<svg width="40" height="661" viewBox="6.125 0 40 661" fill="none" xmlns="http://www.w3.org/2000/svg">
<rect width="40" height="661" rx="5" ry="5" transform="translate(6.125)" fill="black" fill-opacity="0.25"/>
<path d="M21.2797 35.7518C21.2499 35.7843 21.1687 35.9032 21.0956 36.0167C21.0251 36.1302 20.9601 36.2545 20.952 36.2924C20.9385 36.3572 20.9899 36.4194 21.4991 36.9491C21.8079 37.2708 22.7884 38.2518 23.6768 39.1275C24.5652 40.0032 25.3913 40.8005 25.5105 40.8978C25.6324 40.9924 25.8816 41.1735 26.0685 41.2951C26.2526 41.4194 26.537 41.5897 26.6996 41.6735C26.8648 41.76 27.1194 41.8816 27.2684 41.9437C27.4173 42.0059 27.6855 42.1032 27.8642 42.16C28.0403 42.2194 28.3491 42.3005 28.5495 42.3464C28.7472 42.3897 29.0262 42.4437 29.1698 42.4654C29.3106 42.487 29.6763 42.5113 29.9823 42.5194C30.3236 42.5275 30.6324 42.5221 30.7841 42.5059C30.952 42.4843 31.0441 42.4627 31.0766 42.4302C31.101 42.4059 31.2039 42.2302 31.3014 42.0383C31.3989 41.8464 31.4802 41.6708 31.4802 41.6437C31.4829 41.6194 31.4666 41.6005 31.4504 41.6005C31.4314 41.6005 31.296 41.6194 31.147 41.641C30.952 41.6708 30.6784 41.6843 30.1774 41.687C29.5517 41.6897 29.4433 41.6843 29.1427 41.6302C28.9585 41.5978 28.6958 41.5437 28.5603 41.5086C28.4276 41.4762 28.1784 41.4005 28.0132 41.3437C27.8453 41.2843 27.5907 41.187 27.4444 41.1221C27.2982 41.0572 27.0679 40.9437 26.9325 40.8654C26.7971 40.7897 26.5587 40.6383 26.4043 40.5275C26.2472 40.4194 26.0197 40.2464 25.9005 40.1437C25.7787 40.041 24.7115 38.9978 23.5278 37.8248C22.3442 36.6518 21.3664 35.6924 21.3556 35.6924C21.342 35.6924 21.3095 35.7194 21.2797 35.7518Z" fill="url(#paint0_linear_1087_3591)"/>
<path d="M23.1673 31.6516C22.2355 32.5759 21.2279 33.5894 20.9273 33.9002C20.6266 34.2137 20.2881 34.5921 20.1743 34.7434C20.0606 34.8948 19.8953 35.1326 19.8087 35.2732C19.722 35.411 19.5811 35.6651 19.4945 35.8353C19.4078 36.0056 19.2778 36.2948 19.2047 36.4786C19.1315 36.6651 19.0313 36.9543 18.9826 37.1245C18.9338 37.2948 18.8634 37.584 18.8309 37.7705C18.7957 37.9543 18.755 38.2029 18.7415 38.3245C18.7252 38.4434 18.7063 38.7516 18.6982 39.0083C18.69 39.2732 18.6954 39.5921 18.709 39.7543C18.7334 39.9948 18.7469 40.0489 18.7984 40.0948C18.8309 40.1272 19.0042 40.2272 19.1857 40.3218C19.3672 40.4137 19.5378 40.4894 19.5676 40.4894C19.6028 40.4894 19.6191 40.4732 19.6191 40.4326C19.6191 40.4002 19.5974 40.2516 19.573 40.1029C19.5432 39.9029 19.5297 39.6651 19.5297 39.1867C19.5297 38.6813 19.5378 38.4813 19.5757 38.2597C19.6001 38.1029 19.6516 37.8489 19.6841 37.6921C19.7193 37.5353 19.7789 37.3164 19.8168 37.2029C19.8547 37.0894 19.9305 36.8786 19.9847 36.738C20.0416 36.5948 20.1635 36.3353 20.2556 36.157C20.3477 35.9813 20.5075 35.7083 20.6131 35.5516C20.716 35.3948 20.8948 35.157 21.0058 35.0218C21.1196 34.8867 22.1597 33.8272 23.3162 32.6624C24.4755 31.5002 25.4479 30.5137 25.4777 30.4705L25.5346 30.3921C25.4073 30.2651 25.2718 30.1705 25.1499 30.0975C25.0281 30.0245 24.9143 29.9678 24.8953 29.9678C24.8764 29.9678 24.099 30.7245 23.1673 31.6516Z" fill="url(#paint1_linear_1087_3591)"/>
<path d="M32.5929 29.805C32.5929 29.832 32.6118 29.9914 32.6362 30.1617C32.6687 30.3806 32.6823 30.6482 32.6823 31.0752C32.6823 31.5293 32.6714 31.7563 32.6362 31.9779C32.6118 32.1428 32.5522 32.4374 32.5035 32.6374C32.4547 32.8347 32.3626 33.1482 32.2922 33.332C32.2245 33.5185 32.0864 33.8293 31.9862 34.0293C31.8859 34.2266 31.7288 34.5104 31.6368 34.6563C31.5447 34.8023 31.3524 35.0563 31.2115 35.2239C31.068 35.3887 30.0252 36.459 28.893 37.6023C27.7608 38.7428 26.7966 39.7212 26.7478 39.7752L26.6611 39.8752C26.7613 39.9698 26.8941 40.0617 27.0241 40.1401C27.1514 40.2185 27.276 40.2833 27.3031 40.2833C27.3274 40.2833 28.2944 39.3401 29.5512 38.086C31.16 36.4806 31.8074 35.8158 31.9509 35.6293C32.0593 35.486 32.2218 35.2536 32.3166 35.1131C32.4087 34.9698 32.5685 34.6969 32.6687 34.5077C32.7662 34.3158 32.9017 34.0374 32.9639 33.886C33.0262 33.7374 33.1183 33.4887 33.1698 33.332C33.2186 33.1779 33.2944 32.8752 33.3377 32.6617C33.3811 32.4482 33.4352 32.1239 33.4596 31.9401C33.4867 31.7347 33.5057 31.4158 33.5084 31.1158C33.5084 30.8455 33.5002 30.532 33.4867 30.4185C33.4704 30.2563 33.4515 30.2023 33.4082 30.1617C33.3757 30.132 33.1969 30.032 33.01 29.9347C32.8231 29.8401 32.6525 29.7617 32.6308 29.7617C32.6118 29.7617 32.5929 29.7806 32.5929 29.805Z" fill="url(#paint2_linear_1087_3591)"/>
<path d="M17.9885 28.9268C17.826 29.0349 17.6066 29.189 17.4982 29.27C17.3926 29.3511 17.1895 29.5214 17.0459 29.6484C16.9051 29.7754 16.6803 30.0025 16.5475 30.1484C16.4148 30.2971 16.209 30.5457 16.0925 30.7025C15.9733 30.8592 15.7864 31.1376 15.6754 31.3214C15.5643 31.5052 15.4072 31.8025 15.326 31.9781C15.2447 32.1565 15.1364 32.4187 15.0822 32.5592C15.0307 32.7025 14.9468 32.9565 14.898 33.1268C14.8493 33.2971 14.7816 33.5917 14.7464 33.7835C14.7111 33.9754 14.6705 34.2592 14.657 34.416C14.6434 34.5727 14.6299 34.8971 14.6299 35.1376C14.6299 35.3808 14.6461 35.7322 14.6678 35.9241C14.6868 36.116 14.7328 36.4187 14.7707 36.5944C14.8059 36.7727 14.8709 37.0403 14.9143 37.189C14.9576 37.3376 15.0389 37.5862 15.0985 37.743C15.1581 37.8998 15.2664 38.1538 15.3395 38.3106C15.4127 38.4673 15.54 38.7106 15.6239 38.8511C15.7079 38.9944 15.8542 39.2268 15.9517 39.3673C16.0465 39.5106 16.2252 39.743 16.3444 39.8835C16.4636 40.0268 16.6423 40.2241 16.7399 40.3241C16.8374 40.4241 17.0215 40.5971 17.1516 40.7079C17.2789 40.816 17.4928 40.9862 17.6283 41.0835C17.7637 41.1808 17.9966 41.3349 18.1456 41.4295C18.2946 41.5241 18.5383 41.6619 18.6873 41.7376C18.8363 41.8133 19.0936 41.9295 19.2561 41.9944C19.4213 42.0592 19.7111 42.1592 19.9034 42.216C20.0958 42.2727 20.3693 42.343 20.5102 42.37C20.6537 42.3998 20.8839 42.4403 21.0275 42.4619C21.1683 42.4862 21.5177 42.5106 21.8021 42.5187C22.1028 42.5268 22.4549 42.5214 22.6418 42.5052C22.8206 42.489 23.0698 42.4592 23.1971 42.4376C23.3271 42.4133 23.5654 42.3673 23.7279 42.3295C23.8904 42.2944 24.1694 42.216 24.3482 42.1592C24.527 42.1025 24.8059 41.9998 24.9685 41.9322C25.131 41.8646 25.2989 41.7835 25.3368 41.7538C25.3964 41.7106 25.4018 41.6944 25.3747 41.6592C25.3585 41.6349 25.2339 41.5268 25.0985 41.4187C24.963 41.3106 24.8303 41.2052 24.8005 41.1863C24.7572 41.1592 24.6786 41.1781 24.2453 41.3241C23.9338 41.4295 23.5925 41.5241 23.3542 41.57C23.1402 41.6133 22.8531 41.6592 22.7149 41.6754C22.5741 41.689 22.2572 41.7025 22.008 41.7025C21.748 41.7025 21.4284 41.6863 21.2523 41.6619C21.0871 41.6403 20.8108 41.5917 20.6402 41.5565C20.4695 41.5214 20.1662 41.4376 19.9685 41.3754C19.768 41.3106 19.4728 41.1971 19.3076 41.1241C19.1451 41.0511 18.8715 40.9079 18.7008 40.8079C18.5302 40.7052 18.3189 40.5727 18.2323 40.5106C18.1456 40.4511 17.9533 40.2998 17.807 40.1808C17.6608 40.0592 17.4143 39.8268 17.2599 39.6646C17.1028 39.5025 16.9105 39.2808 16.8319 39.1754C16.7507 39.0673 16.599 38.8538 16.4961 38.6971C16.3932 38.5403 16.2333 38.2619 16.144 38.0781C16.0519 37.8944 15.9354 37.6322 15.8839 37.4971C15.8298 37.3646 15.7485 37.1079 15.6998 36.9295C15.651 36.7538 15.5887 36.4917 15.5589 36.3511C15.5318 36.2079 15.4966 35.9646 15.4831 35.8079C15.4695 35.6538 15.4587 35.3403 15.4587 35.1133C15.456 34.8862 15.4695 34.5727 15.4858 34.416C15.4993 34.2592 15.54 33.9998 15.5752 33.8349C15.6104 33.6727 15.6727 33.4106 15.7187 33.2565C15.7648 33.0998 15.8487 32.8511 15.9083 32.7025C15.9679 32.5511 16.0844 32.2971 16.1656 32.1349C16.2496 31.97 16.3986 31.7106 16.5015 31.5538C16.6044 31.3971 16.7859 31.1484 16.9051 30.9998C17.0242 30.8511 17.2274 30.6241 17.3574 30.4944C17.4847 30.3673 17.7014 30.1646 17.8341 30.043L18.0806 29.8241C18.2702 29.0646 18.3271 28.8187 18.3271 28.7862C18.3271 28.7565 18.3162 28.7295 18.3054 28.7295C18.2946 28.7295 18.1537 28.8187 17.9885 28.9268Z" fill="url(#paint3_linear_1087_3591)"/>
<path d="M21.5177 27.7493C21.3768 27.7601 21.2333 27.7763 21.2008 27.7845C21.1656 27.7953 21.106 27.8682 21.0437 27.9763C20.9868 28.0709 20.8947 28.2466 20.8351 28.3628C20.7782 28.479 20.7295 28.5926 20.7295 28.6142C20.7295 28.6358 20.7457 28.652 20.762 28.652C20.781 28.652 20.9624 28.6331 21.1683 28.6088C21.4012 28.5817 21.7479 28.5655 22.0729 28.5655C22.4576 28.5655 22.6851 28.5763 22.9018 28.6088C23.0643 28.6358 23.3324 28.6845 23.4949 28.7223C23.6602 28.7574 23.9202 28.8277 24.0773 28.879C24.2344 28.9277 24.4944 29.025 24.6596 29.0953C24.8221 29.1655 25.0442 29.2709 25.1499 29.3277C25.2555 29.3872 25.4884 29.5304 25.6672 29.6466C25.8433 29.7655 26.087 29.9412 26.2089 30.0358C26.3281 30.1331 27.3817 31.1601 28.5464 32.3142C29.7138 33.4709 30.7105 34.4493 30.7647 34.4872C30.846 34.5466 30.8676 34.5547 30.9028 34.5277C30.9272 34.5088 30.9895 34.4304 31.0437 34.352C31.0951 34.2736 31.1683 34.1493 31.2062 34.0763L31.2739 33.9412C31.1683 33.7899 30.2582 32.8655 29.1829 31.7899C28.1103 30.7142 27.0892 29.7115 26.9185 29.5601C26.7452 29.4088 26.496 29.2088 26.3633 29.1169C26.2279 29.025 25.9976 28.8736 25.8487 28.7817C25.697 28.6926 25.4261 28.5466 25.2392 28.4574C25.0551 28.3709 24.7598 28.2439 24.5811 28.1817C24.4023 28.1169 24.1477 28.0358 24.0123 28.0007C23.8768 27.9628 23.6439 27.9115 23.4949 27.8817C23.346 27.852 23.0832 27.8115 22.9126 27.7899C22.742 27.7709 22.4169 27.7466 22.1894 27.7412C21.9619 27.7331 21.6612 27.7385 21.5177 27.7493Z" fill="url(#paint4_linear_1087_3591)"/>
<path d="M25.5759 23.6916C25.519 23.697 25.3267 23.7186 25.1507 23.7402C24.9719 23.7618 24.6875 23.8105 24.5169 23.8456C24.3462 23.8808 24.0727 23.951 23.9101 24.0024C23.7476 24.051 23.4849 24.1429 23.3278 24.2078C23.1707 24.27 22.8917 24.3997 22.7075 24.4916C22.5234 24.5835 22.2552 24.7348 22.1144 24.8267C21.9708 24.9213 21.7623 25.0673 21.6485 25.1537C21.5347 25.2375 21.3262 25.4078 21.1853 25.5294C21.0445 25.651 20.8359 25.8483 20.7249 25.97C20.6111 26.0916 20.4297 26.2997 20.3213 26.4348C20.213 26.57 20.0288 26.8186 19.915 26.9889C19.8013 27.1591 19.6117 27.4835 19.4979 27.7105C19.3841 27.9375 19.2487 28.2348 19.1973 28.3673C19.1485 28.5024 19.0727 28.724 19.0266 28.8591C18.9833 28.9943 18.9291 29.1835 18.9074 29.2835C18.8831 29.3835 18.837 29.6159 18.8045 29.7997C18.772 29.9835 18.7314 30.3024 18.7124 30.5078C18.6935 30.7321 18.688 31.0456 18.6989 31.2835C18.707 31.5024 18.7314 31.8267 18.7531 32.0051C18.7774 32.1808 18.8235 32.4673 18.8614 32.6375C18.8966 32.8078 18.967 33.0808 19.0158 33.2429C19.0672 33.4051 19.162 33.6781 19.2298 33.8483C19.2975 34.0186 19.3841 34.2186 19.4221 34.2943C19.46 34.3673 19.4979 34.4294 19.5087 34.4294C19.5196 34.4294 19.571 34.3862 19.6225 34.3321C19.674 34.2781 19.7796 34.1537 19.8581 34.0564C19.9367 33.9564 20.0125 33.8483 20.0288 33.8159C20.0532 33.7673 20.0369 33.6916 19.9177 33.3402C19.8392 33.1078 19.7471 32.8051 19.7119 32.6618C19.6767 32.5213 19.6198 32.2537 19.59 32.07C19.5385 31.7835 19.5304 31.6402 19.5304 31.0754C19.5304 30.5267 19.5385 30.3645 19.5873 30.0835C19.6171 29.8997 19.6713 29.6267 19.7092 29.4781C19.7471 29.3294 19.8202 29.0835 19.869 28.9348C19.9204 28.7862 20.0234 28.5267 20.0992 28.3564C20.1778 28.1862 20.3105 27.924 20.3971 27.7754C20.4811 27.6267 20.6247 27.4024 20.7113 27.2808C20.8007 27.1564 20.9659 26.9429 21.0797 26.8051C21.1935 26.6673 21.3858 26.4618 21.5049 26.351C21.6268 26.2375 21.8408 26.051 21.9844 25.9375C22.1252 25.8213 22.3636 25.6483 22.5152 25.551C22.6642 25.4537 22.9594 25.2889 23.1734 25.1835C23.3874 25.0781 23.6772 24.951 23.8181 24.897C23.9616 24.8456 24.2514 24.7591 24.4654 24.7051C24.6794 24.651 24.98 24.5889 25.1371 24.5645C25.3755 24.5267 25.5542 24.5213 26.2368 24.5321C26.9952 24.5429 27.071 24.5483 27.3744 24.6132C27.5505 24.651 27.8186 24.7186 27.9676 24.7591C28.1165 24.8024 28.3739 24.8916 28.5364 24.9537C28.6989 25.0186 28.9779 25.1483 29.1566 25.2402C29.3354 25.3321 29.6062 25.4916 29.7633 25.597C29.9204 25.6997 30.1425 25.8618 30.2563 25.9564C30.3701 26.051 30.584 26.2456 30.7303 26.3916C30.8793 26.5348 31.0851 26.751 31.188 26.8727C31.291 26.9943 31.402 27.1051 31.4345 27.1213C31.467 27.1402 31.6945 27.1997 31.9356 27.2564C32.1767 27.3159 32.4015 27.3618 32.4313 27.3618C32.471 27.3618 32.4909 27.3474 32.4909 27.3186C32.4909 27.2916 32.4042 27.1456 32.2986 26.9889C32.1929 26.8321 32.0033 26.5781 31.8787 26.4213C31.7541 26.2673 31.5293 26.0159 31.3804 25.8645C31.2314 25.7132 30.9849 25.4889 30.8359 25.3645C30.687 25.2429 30.4188 25.0429 30.2428 24.9267C30.064 24.8078 29.7606 24.6294 29.571 24.5294C29.3787 24.4294 29.0645 24.2835 28.8722 24.2078C28.6799 24.1294 28.4253 24.0375 28.3034 23.9997C28.1815 23.9645 27.9567 23.9024 27.7996 23.8673C27.6425 23.8294 27.3013 23.7727 27.0358 23.7375C26.6729 23.6889 26.4535 23.6754 26.1203 23.6781C25.8793 23.6808 25.6328 23.6862 25.5759 23.6916Z" fill="url(#paint5_linear_1087_3591)"/>
<path d="M29.608 27.7513C29.4644 27.7648 29.226 27.7918 29.0771 27.8135C28.9281 27.8378 28.6735 27.8864 28.5083 27.9216C28.3458 27.9567 28.0207 28.0513 27.7851 28.127C27.5522 28.2054 27.238 28.3297 27.089 28.4027C26.9373 28.4756 26.8154 28.5486 26.8154 28.5648C26.8154 28.581 26.9454 28.7027 27.0998 28.8297C27.2569 28.9594 27.414 29.0729 27.4492 29.081C27.4926 29.0918 27.6415 29.0513 27.888 28.9621C28.0939 28.8891 28.381 28.7999 28.5218 28.7648C28.6654 28.7297 28.9498 28.6702 29.1556 28.6378C29.3723 28.5999 29.6973 28.5675 29.9303 28.5567C30.1713 28.5486 30.472 28.554 30.6805 28.5729C30.8729 28.5891 31.1816 28.6324 31.3658 28.6648C31.55 28.6999 31.8479 28.7702 32.024 28.8189C32.2028 28.8702 32.498 28.9729 32.6849 29.0459C32.8691 29.1216 33.1426 29.2486 33.2916 29.3324C33.4406 29.4135 33.7087 29.5783 33.8848 29.6972C34.0635 29.8162 34.3479 30.0324 34.5186 30.1783C34.6865 30.3243 34.9465 30.5837 35.0928 30.754C35.239 30.9243 35.453 31.1918 35.5641 31.3486C35.6751 31.5027 35.8376 31.7594 35.9243 31.9135C36.011 32.0702 36.1356 32.3216 36.2006 32.4702C36.2683 32.6189 36.3712 32.8918 36.4335 33.0756C36.4931 33.2594 36.5798 33.5783 36.6204 33.7837C36.6692 34.0162 36.7125 34.3189 36.7315 34.5837C36.7477 34.827 36.7531 35.1918 36.745 35.4351C36.7369 35.6702 36.7098 35.9837 36.6881 36.1324C36.6665 36.281 36.6069 36.554 36.5608 36.7378C36.5148 36.9216 36.42 37.2243 36.3523 37.4081C36.2846 37.5918 36.1762 37.8594 36.1085 37.9999C36.0435 38.1432 35.9189 38.3702 35.8349 38.5054C35.7537 38.6378 35.602 38.8648 35.5018 39.0027C35.4016 39.1432 35.2201 39.3702 35.0982 39.5054C34.9763 39.6432 34.8057 39.8189 34.7217 39.8972C34.6377 39.9756 34.4698 40.127 34.3506 40.2351L34.1312 40.4297C33.9416 41.1756 33.8848 41.4216 33.8848 41.4567C33.8848 41.4918 33.8902 41.5216 33.8983 41.5216C33.9064 41.5216 33.9498 41.5027 33.9958 41.4783C34.0419 41.4567 34.1773 41.3702 34.2992 41.2891C34.4211 41.2081 34.6296 41.0567 34.7651 40.954C34.9005 40.8486 35.1903 40.5837 35.4124 40.3621C35.667 40.1081 35.9081 39.8351 36.0733 39.6135C36.2195 39.4216 36.42 39.127 36.5202 38.9567C36.6231 38.7864 36.7667 38.5189 36.8425 38.3621C36.9184 38.2054 37.0348 37.9405 37.1025 37.7702C37.1703 37.5999 37.2759 37.2621 37.3382 37.0216C37.3978 36.781 37.4763 36.4027 37.5088 36.1837C37.5603 35.8432 37.5684 35.6837 37.5684 35.1135C37.5657 34.5432 37.5576 34.3837 37.5061 34.0567C37.4736 33.8432 37.4059 33.5054 37.3571 33.3081C37.3057 33.1081 37.219 32.8135 37.1621 32.6486C37.1052 32.4864 36.9509 32.1324 36.8181 31.8621C36.6773 31.5729 36.4796 31.2243 36.336 31.0108C36.2033 30.8135 35.992 30.527 35.8647 30.3783C35.7374 30.2324 35.5153 29.9945 35.3718 29.8513C35.2282 29.7108 34.9899 29.4972 34.8409 29.3756C34.6919 29.2567 34.4725 29.0945 34.3506 29.0135C34.2288 28.9324 34.0392 28.8108 33.9254 28.7432C33.8116 28.6756 33.6193 28.5729 33.4974 28.5108C33.3756 28.4513 33.1318 28.3432 32.9557 28.2702C32.777 28.1999 32.4926 28.0999 32.3219 28.0486C32.1513 27.9999 31.9292 27.9405 31.8317 27.9189C31.7315 27.8972 31.5094 27.8567 31.3387 27.8297C31.1681 27.7999 30.8674 27.7648 30.667 27.7513C30.4693 27.7351 30.2065 27.7243 30.0847 27.727C29.9655 27.7297 29.7488 27.7405 29.608 27.7513Z" fill="url(#paint6_linear_1087_3591)"/>
<path d="M32.4448 36.0892C32.3364 36.2216 32.2227 36.373 32.1929 36.4216L32.1414 36.5162C32.3283 37.0081 32.4231 37.3189 32.4746 37.5243C32.526 37.7297 32.591 38.0378 32.6208 38.2081C32.6533 38.3919 32.6804 38.7027 32.6885 38.9676C32.6967 39.227 32.6912 39.5513 32.675 39.7297C32.6587 39.9 32.6235 40.1676 32.5964 40.3216C32.5694 40.4784 32.5206 40.7054 32.4908 40.8243C32.461 40.9459 32.3987 41.154 32.3554 41.2892C32.312 41.4243 32.2118 41.673 32.136 41.8432C32.0574 42.0135 31.9274 42.2703 31.8489 42.4108C31.7703 42.554 31.6484 42.7567 31.578 42.8621C31.5049 42.9703 31.3776 43.1486 31.2909 43.2621C31.2069 43.3757 30.9794 43.6243 30.7844 43.8162C30.5921 44.0081 30.3131 44.2594 30.1642 44.3757C30.0152 44.4919 29.7877 44.6513 29.6604 44.7324C29.5331 44.8135 29.2351 44.9757 29.0022 45.0919C28.7665 45.2108 28.4469 45.3486 28.2898 45.4C28.1354 45.4513 27.8673 45.527 27.6967 45.5703C27.526 45.6108 27.2768 45.6621 27.1414 45.6838C27.006 45.7054 26.7134 45.7378 26.4941 45.754C26.188 45.7757 26.0038 45.7757 25.7059 45.754C25.4919 45.7378 25.2102 45.7054 25.0802 45.6865C24.9475 45.6648 24.7199 45.6189 24.5764 45.5865C24.4301 45.5513 24.1755 45.4811 24.013 45.427C23.8505 45.3757 23.5824 45.2703 23.4198 45.1946C23.2546 45.1216 23.0163 45.0027 22.889 44.9324C22.7617 44.8621 22.6046 44.773 22.5396 44.7324C22.4746 44.6946 22.2904 44.5621 22.1251 44.4378C21.9626 44.3162 21.6728 44.0594 21.4805 43.8676C21.2882 43.6784 21.0498 43.4324 20.9496 43.3243L20.7682 43.127C20.0179 42.9432 19.7822 42.8892 19.7606 42.8892C19.7389 42.8892 19.7227 42.9108 19.7227 42.9405C19.7227 42.9676 19.8147 43.127 19.9285 43.2946C20.0396 43.4621 20.2292 43.7189 20.351 43.8676C20.4702 44.0189 20.7248 44.2919 20.9144 44.4757C21.104 44.6594 21.3722 44.8973 21.5049 45.0027C21.6403 45.1054 21.903 45.2919 22.0872 45.4135C22.2714 45.5324 22.6208 45.727 22.8619 45.8459C23.1056 45.9621 23.4361 46.1027 23.5986 46.1594C23.7638 46.2162 24.0645 46.3027 24.2703 46.354C24.4789 46.4054 24.7497 46.4648 24.8798 46.4865C25.0071 46.5081 25.2915 46.5432 25.5108 46.5648C25.7329 46.5865 26.0011 46.6027 26.1067 46.6027C26.2124 46.6027 26.4805 46.5838 26.6999 46.5648C26.922 46.5432 27.2633 46.4946 27.4637 46.4594C27.6614 46.4243 27.9892 46.3486 28.1869 46.2892C28.3873 46.2297 28.7015 46.1216 28.8857 46.0486C29.0699 45.9757 29.3597 45.8432 29.5303 45.7567C29.701 45.6703 29.9989 45.4946 30.1912 45.3676C30.3835 45.2405 30.6381 45.0567 30.76 44.9621C30.8792 44.8648 31.1176 44.6513 31.2855 44.4892C31.4534 44.3243 31.7134 44.0405 31.8624 43.8567C32.0114 43.6703 32.2145 43.3973 32.312 43.2486C32.4123 43.1 32.5802 42.8108 32.6831 42.6054C32.7887 42.4 32.9188 42.1216 32.9756 41.9865C33.0325 41.8513 33.1138 41.6243 33.1571 41.4838C33.2004 41.3405 33.2655 41.1081 33.3007 40.9676C33.3359 40.8243 33.39 40.5703 33.4171 40.4C33.4469 40.2297 33.4848 39.8865 33.5011 39.6378C33.5255 39.2865 33.5255 39.0865 33.5011 38.7351C33.4848 38.4892 33.4469 38.1513 33.4198 37.9892C33.3928 37.8243 33.3332 37.5459 33.2898 37.3703C33.2438 37.1919 33.1571 36.8973 33.0921 36.7108C33.0271 36.527 32.9188 36.2567 32.8483 36.1135C32.7725 35.9513 32.7075 35.8486 32.6858 35.8486C32.6642 35.8486 32.5558 35.9567 32.4448 36.0892Z" fill="url(#paint7_linear_1087_3591)"/>
<path d="M27.2924 65.6865L30.195 65.6865C30.9237 65.6865 31.5144 66.2772 31.5144 67.0059L31.5144 74.9221C31.5144 75.6508 30.9237 76.2415 30.195 76.2415L27.2924 76.2415M25.8851 65.6865L22.9825 65.6865C22.2538 65.6865 21.6631 66.2772 21.6631 67.0059L21.6631 74.9221C21.6631 75.6508 22.2538 76.2415 22.9825 76.2415H25.8851" stroke="#E6E6E6" stroke-width="0.703665" stroke-linecap="round"/>
<rect x="25.375" y="75" width="3.75" height="9" rx="0.703665" transform="rotate(-180 25.375 75)" fill="#E6E6E6"/>
<path d="M32.875 108.404L30.625 106.154M30.625 101.654C30.625 104.14 28.6103 106.154 26.125 106.154C23.6397 106.154 21.625 104.14 21.625 101.654C21.625 99.169 23.6397 97.1543 26.125 97.1543C28.6103 97.1543 30.625 99.169 30.625 101.654Z" stroke="#E6E6E6" stroke-width="0.823529" stroke-linecap="round"/>
<g filter="url(#filter0_d_1087_3591)">
<path d="M4.25 123L48 123.285" stroke="url(#paint8_linear_1087_3591)" stroke-width="0.5" stroke-linecap="round" shape-rendering="crispEdges"/>
</g>
<rect x="6.125" y="141" width="40" height="25" rx="6.13449" fill="#0E0E0E"/>
<rect x="6.125" y="141" width="40" height="25" rx="6.13449" stroke="url(#paint9_linear_1087_3591)" stroke-width="0.373701"/>
<path d="M19.3379 152.875C19.3379 151.767 19.3379 151.212 19.5948 150.725C19.8516 150.238 20.3341 149.877 21.2989 149.156L22.2349 148.456C23.9788 147.152 24.8508 146.5 25.8895 146.5C26.9282 146.5 27.8001 147.152 29.5441 148.456L30.48 149.156C31.4449 149.877 31.9273 150.238 32.1842 150.725C32.4411 151.212 32.4411 151.767 32.4411 152.875V156.337C32.4411 157.877 32.4411 158.647 31.8928 159.125C31.3445 159.603 30.4621 159.603 28.6973 159.603H23.0817C21.3168 159.603 20.4344 159.603 19.8862 159.125C19.3379 158.647 19.3379 157.877 19.3379 156.337V152.875Z" stroke="#C7C7CC" stroke-width="0.637971"/>
<path d="M27.7777 159.498V156.139C27.7777 155.88 27.5677 155.67 27.3087 155.67H24.4182C24.1592 155.67 23.9492 155.88 23.9492 156.139V159.498" stroke="#C7C7CC" stroke-width="0.637971" stroke-linecap="round" stroke-linejoin="round"/>
<path d="M33.1369 190.5V194.664C33.1369 195.767 33.1369 196.318 32.7944 196.66C32.4518 197.003 31.9006 197.003 30.798 197.003H23.3825C23.334 197.003 23.3098 197.003 23.2893 197.002C22.3527 196.98 21.5986 196.226 21.5767 195.29C21.5762 195.269 21.5762 195.245 21.5762 195.196M21.5762 195.196V186.336C21.5762 185.233 21.5762 184.682 21.9187 184.34C22.2612 183.997 22.8125 183.997 23.915 183.997H30.798C31.9006 183.997 32.4518 183.997 32.7944 184.34C33.1369 184.682 33.1369 185.233 33.1369 186.336V191.051C33.1369 192.154 33.1369 192.705 32.7944 193.048C32.4518 193.39 31.9006 193.39 30.798 193.39H23.3825C23.334 193.39 23.3098 193.39 23.2893 193.391C22.3527 193.413 21.5986 194.167 21.5767 195.103C21.5762 195.124 21.5762 195.148 21.5762 195.196Z" stroke="#E6E6E6" stroke-width="0.584712"/>
<path d="M25.1885 189.054L26.2201 190.086C26.4485 190.314 26.8187 190.314 27.047 190.086L29.5237 187.609" stroke="#E6E6E6" stroke-width="0.584712" stroke-linecap="round"/>
<path d="M33.1369 229.5V233.664C33.1369 234.767 33.1369 235.318 32.7944 235.66C32.4518 236.003 31.9006 236.003 30.798 236.003H23.3825C23.334 236.003 23.3098 236.003 23.2893 236.002C22.3527 235.98 21.5986 235.226 21.5767 234.29C21.5762 234.269 21.5762 234.245 21.5762 234.196M21.5762 234.196V225.336C21.5762 224.233 21.5762 223.682 21.9187 223.34C22.2612 222.997 22.8125 222.997 23.915 222.997H30.798C31.9006 222.997 32.4518 222.997 32.7944 223.34C33.1369 223.682 33.1369 224.233 33.1369 225.336V230.051C33.1369 231.154 33.1369 231.705 32.7944 232.048C32.4518 232.39 31.9006 232.39 30.798 232.39H23.3825C23.334 232.39 23.3098 232.39 23.2893 232.391C22.3527 232.413 21.5986 233.167 21.5767 234.103C21.5762 234.124 21.5762 234.148 21.5762 234.196Z" stroke="#E6E6E6" stroke-width="0.584712"/>
<path d="M25.1885 228.054L26.2201 229.086C26.4485 229.314 26.8187 229.314 27.047 229.086L29.5237 226.609" stroke="#E6E6E6" stroke-width="0.584712" stroke-linecap="round"/>
<path opacity="0.99" fill-rule="evenodd" clip-rule="evenodd" d="M28.5127 261.844C32.4242 261.841 32.6163 261.843 32.8315 261.891C32.9554 261.918 33.1521 261.977 33.2687 262.021C33.3853 262.066 33.588 262.173 33.7191 262.26C33.8543 262.348 34.0437 262.507 34.157 262.625C34.2663 262.739 34.412 262.923 34.4796 263.032C34.5478 263.141 34.6419 263.326 34.6882 263.443C34.7346 263.559 34.7949 263.762 34.822 263.893C34.8684 264.118 34.8711 264.319 34.8711 267.365C34.8704 270.428 34.8677 270.61 34.8207 270.823C34.7936 270.947 34.7346 271.144 34.6902 271.26C34.6452 271.377 34.5379 271.58 34.4518 271.711C34.3637 271.845 34.204 272.036 34.0868 272.149C33.9722 272.259 33.7768 272.411 33.6529 272.487C33.529 272.563 33.3323 272.66 33.2157 272.702C33.0991 272.744 32.9322 272.793 32.8448 272.811C32.7295 272.834 32.6606 272.836 32.5931 272.815C32.5421 272.8 32.4672 272.751 32.4275 272.707C32.3871 272.661 32.3473 272.581 32.3387 272.526C32.3294 272.471 32.3294 272.387 32.3387 272.34C32.3473 272.292 32.395 272.21 32.444 272.155C32.493 272.1 32.5792 272.036 32.6361 272.012C32.6924 271.988 32.8282 271.935 32.9375 271.894C33.0468 271.853 33.2071 271.77 33.2932 271.712C33.38 271.653 33.5138 271.533 33.5913 271.446C33.6695 271.358 33.7801 271.191 33.8384 271.075C33.8967 270.958 33.9616 270.779 33.9834 270.677C34.0172 270.519 34.0232 270.034 34.0232 267.352C34.0232 264.696 34.0172 264.183 33.9841 264.026C33.9629 263.924 33.8953 263.739 33.8344 263.615C33.749 263.443 33.6754 263.342 33.5224 263.189C33.3694 263.036 33.2687 262.962 33.0965 262.877C32.9726 262.816 32.7878 262.748 32.6858 262.727C32.5275 262.694 31.9121 262.688 28.5127 262.688C25.1133 262.688 24.4979 262.694 24.3396 262.727C24.2376 262.748 24.0528 262.816 23.9289 262.877C23.756 262.962 23.6573 263.035 23.5043 263.189C23.3745 263.32 23.2718 263.455 23.2089 263.575C23.1559 263.677 23.091 263.826 23.0651 263.907C23.0227 264.036 23.0161 264.199 23.0029 265.355C22.9883 266.631 22.987 266.661 22.932 266.733C22.9009 266.775 22.8439 266.832 22.8041 266.861C22.7518 266.9 22.6909 266.914 22.5776 266.914C22.461 266.914 22.4041 266.9 22.3477 266.858C22.3067 266.827 22.2491 266.77 22.2199 266.73C22.1689 266.661 22.1669 266.611 22.1596 265.408C22.1537 264.347 22.159 264.125 22.1954 263.933C22.2186 263.809 22.2729 263.612 22.3146 263.496C22.357 263.379 22.4537 263.182 22.5299 263.059C22.6061 262.935 22.7584 262.74 22.8684 262.625C22.9777 262.511 23.1632 262.353 23.2797 262.275C23.3963 262.198 23.5752 262.099 23.6772 262.056C23.7792 262.012 23.958 261.952 24.0746 261.922C24.1912 261.893 24.3164 261.864 24.3528 261.858C24.3893 261.851 26.2612 261.846 28.5127 261.844ZM22.6173 268.21C22.6902 268.217 22.7783 268.244 22.8128 268.27C22.8472 268.297 22.9009 268.353 22.932 268.394C22.9863 268.466 22.989 268.5 23.0029 269.56C23.0161 270.508 23.0241 270.67 23.0651 270.797C23.0916 270.877 23.1559 271.026 23.2089 271.128C23.2718 271.25 23.3738 271.382 23.5043 271.513C23.6566 271.665 23.7573 271.739 23.9289 271.824C24.0528 271.886 24.2376 271.953 24.3396 271.975C24.4893 272.007 24.7741 272.015 25.8167 272.015C26.8269 272.016 27.127 272.023 27.1945 272.051C27.2528 272.075 27.4767 272.31 27.89 272.78C28.2252 273.162 28.5054 273.474 28.5127 273.474C28.52 273.474 28.8002 273.162 29.1353 272.78C29.5765 272.277 29.7706 272.075 29.8375 272.048C29.9077 272.02 30.0342 272.013 30.3588 272.02C30.747 272.028 30.7947 272.034 30.8622 272.085C30.9033 272.116 30.9609 272.173 30.9901 272.213C31.0291 272.265 31.0431 272.326 31.0431 272.44C31.0431 272.556 31.0291 272.613 30.9868 272.669C30.9556 272.71 30.8987 272.768 30.8589 272.797C30.7993 272.842 30.739 272.852 30.1952 272.864L29.4798 273.676C28.9909 274.232 28.7372 274.501 28.6783 274.524C28.6306 274.544 28.5564 274.56 28.5127 274.56C28.469 274.56 28.3941 274.544 28.3471 274.524C28.2875 274.5 28.0411 274.237 26.8434 272.864L25.565 272.856C24.3641 272.848 24.2747 272.844 24.0879 272.793C23.9786 272.762 23.7997 272.699 23.6904 272.653C23.5811 272.606 23.3963 272.505 23.2797 272.428C23.1632 272.35 22.9784 272.192 22.8684 272.078C22.7591 271.963 22.6134 271.78 22.5458 271.671C22.4776 271.562 22.3842 271.377 22.3378 271.26C22.2914 271.144 22.2312 270.947 22.204 270.823C22.161 270.625 22.155 270.473 22.1543 269.571C22.1537 268.905 22.1636 268.518 22.1821 268.471C22.1974 268.431 22.2305 268.369 22.2557 268.333C22.2808 268.298 22.3424 268.253 22.3928 268.233C22.4451 268.214 22.5425 268.204 22.6173 268.21ZM29.7713 265.204C29.8382 265.204 29.9117 265.226 29.97 265.265C30.021 265.298 30.0832 265.367 30.1091 265.418C30.1435 265.487 30.1515 265.543 30.1389 265.642C30.1296 265.715 30.0832 266.007 29.9488 266.808L30.3899 267.267C30.6324 267.52 30.8516 267.758 30.8775 267.797C30.9059 267.841 30.9232 267.919 30.9225 268.001C30.9225 268.119 30.9119 268.143 30.8231 268.226C30.7324 268.312 30.6913 268.326 30.3138 268.406C30.0885 268.454 29.8083 268.512 29.6918 268.535C29.5493 268.563 29.4626 268.595 29.4261 268.633C29.397 268.665 29.2903 268.839 29.1897 269.021C29.0883 269.203 28.9592 269.43 28.9022 269.525C28.8452 269.619 28.7671 269.73 28.7286 269.77C28.6896 269.811 28.6167 269.851 28.5657 269.86C28.5147 269.868 28.4312 269.863 28.3802 269.848C28.3292 269.833 28.2563 269.78 28.2179 269.732C28.1802 269.684 28.0192 269.413 27.8602 269.13C27.6787 268.806 27.5522 268.608 27.5191 268.597C27.4899 268.586 27.2038 268.522 26.8832 268.451C26.5467 268.378 26.2698 268.304 26.2274 268.275C26.187 268.248 26.1367 268.19 26.1148 268.147C26.093 268.103 26.0751 268.025 26.0751 267.974C26.0751 267.923 26.0877 267.848 26.1029 267.809C26.1181 267.768 26.3387 267.527 27.0567 266.808L26.9633 266.272C26.9117 265.976 26.8699 265.675 26.8699 265.603C26.8699 265.53 26.8865 265.437 26.9064 265.397C26.9262 265.357 26.9739 265.303 27.0124 265.278C27.0548 265.249 27.1309 265.232 27.2078 265.232C27.3118 265.233 27.435 265.281 28.4994 265.783L29.0824 265.495C29.5268 265.273 29.6904 265.204 29.7713 265.204Z" fill="#E6E6E6"/>
<path d="M27.168 301.433H30.1289C31.1137 301.433 31.8118 301.434 32.3408 301.505C32.8582 301.574 33.1535 301.704 33.3682 301.919C33.5828 302.134 33.7127 302.429 33.7822 302.946C33.8533 303.475 33.8545 304.173 33.8545 305.158V309.14C33.8545 310.124 33.8533 310.823 33.7822 311.352C33.7127 311.869 33.5826 312.163 33.3682 312.378C33.1535 312.593 32.8582 312.722 32.3408 312.792C31.8118 312.863 31.1137 312.864 30.1289 312.864H27.168C26.1831 312.864 25.4851 312.863 24.9561 312.792C24.4386 312.722 24.1434 312.593 23.9287 312.378C23.7142 312.163 23.5842 311.869 23.5146 311.352C23.4435 310.823 23.4424 310.124 23.4424 309.14V305.158C23.4424 304.173 23.4435 303.475 23.5146 302.946C23.5842 302.429 23.714 302.134 23.9287 301.919C24.1434 301.704 24.4386 301.574 24.9561 301.505C25.4851 301.434 26.1832 301.433 27.168 301.433ZM30.1787 302.664C29.9553 302.664 29.7735 302.845 29.7734 303.068V305.108C29.7734 305.332 29.9552 305.514 30.1787 305.514C30.4021 305.514 30.583 305.332 30.583 305.108V303.068C30.583 302.845 30.4021 302.664 30.1787 302.664Z" stroke="#E6E6E6" stroke-width="0.809249" stroke-linecap="round"/>
<path d="M20.998 304.089H24.0582M20.998 307.149H24.0582M20.998 310.209H24.0582" stroke="#E6E6E6" stroke-width="0.809249" stroke-linecap="round"/>
<path d="M31.8271 342.745L28.8309 345.741C28.412 346.16 27.7327 346.16 27.3138 345.741L26.9536 345.381C26.5346 344.962 25.8553 344.962 25.4364 345.381L23.066 347.751" stroke="#E6E6E6" stroke-width="0.750957" stroke-linecap="round" stroke-linejoin="round"/>
<path d="M20.5625 340.867V348.699C20.5625 349.9 20.5625 350.501 20.7964 350.96C21.0021 351.364 21.3303 351.692 21.734 351.898C22.193 352.132 22.7938 352.132 23.9954 352.132H31.8269" stroke="#E6E6E6" stroke-width="0.750957" stroke-linecap="round"/>
<path d="M32.7747 386.583V384.823C32.7747 383.921 32.7747 383.471 32.5993 383.127C32.445 382.824 32.1988 382.578 31.896 382.423C31.5518 382.248 31.1012 382.248 30.2 382.248H28.8193C28.4162 382.248 28.2147 382.248 28.0318 382.192C27.8698 382.143 27.7192 382.063 27.5884 381.955C27.4407 381.834 27.329 381.666 27.1054 381.331L26.8832 380.997C26.6597 380.662 26.5479 380.494 26.4002 380.373C26.2695 380.265 26.1188 380.185 25.9569 380.136C25.7739 380.08 25.5724 380.08 25.1693 380.08H24.5112C23.61 380.08 23.1594 380.08 22.8152 380.255C22.5124 380.41 22.2662 380.656 22.1119 380.959C21.9365 381.303 21.9365 381.754 21.9365 382.655V383.693M32.7747 388.209C32.7747 388.56 32.7747 388.736 32.7474 388.882C32.6255 389.535 32.1141 390.047 31.4605 390.169C31.3143 390.196 31.1387 390.196 30.7877 390.196H24.5112C23.61 390.196 23.1594 390.196 22.8152 390.021C22.5124 389.866 22.2662 389.62 22.1119 389.317C21.9365 388.973 21.9365 388.522 21.9365 387.621V385.138" stroke="#E6E6E6" stroke-width="0.750957" stroke-linecap="round"/>
<path d="M33.1369 424.5V428.664C33.1369 429.767 33.1369 430.318 32.7944 430.66C32.4518 431.003 31.9006 431.003 30.798 431.003H23.3825C23.334 431.003 23.3098 431.003 23.2893 431.002C22.3527 430.98 21.5986 430.226 21.5767 429.29C21.5762 429.269 21.5762 429.245 21.5762 429.196M21.5762 429.196V420.336C21.5762 419.233 21.5762 418.682 21.9187 418.34C22.2612 417.997 22.8125 417.997 23.915 417.997H30.798C31.9006 417.997 32.4518 417.997 32.7944 418.34C33.1369 418.682 33.1369 419.233 33.1369 420.336V425.051C33.1369 426.154 33.1369 426.705 32.7944 427.048C32.4518 427.39 31.9006 427.39 30.798 427.39H23.3825C23.334 427.39 23.3098 427.39 23.2893 427.391C22.3527 427.413 21.5986 428.167 21.5767 429.103C21.5762 429.124 21.5762 429.148 21.5762 429.196Z" stroke="#E6E6E6" stroke-width="0.584712"/>
<path d="M25.1885 423.054L26.2201 424.086C26.4485 424.314 26.8187 424.314 27.047 424.086L29.5237 421.609" stroke="#E6E6E6" stroke-width="0.584712" stroke-linecap="round"/>
<circle cx="27.356" cy="460.61" r="2.51469" stroke="#E6E6E6" stroke-width="0.750957" stroke-linecap="round"/>
<path d="M22.0958 467.454C22.5892 465.178 24.7377 464.583 27.0672 464.583H27.644C29.9735 464.583 32.122 465.178 32.6154 467.454C32.7275 467.972 32.3455 468.918 31.8161 468.918H22.8951C22.3657 468.918 21.9837 467.972 22.0958 467.454Z" stroke="#E6E6E6" stroke-width="0.750957" stroke-linecap="round"/>
<rect x="20.8535" y="498.165" width="13.0058" height="10.8382" rx="2.25323" stroke="#E6E6E6" stroke-width="0.5"/>
<path d="M20.8535 501.777L33.8593 501.777" stroke="#E6E6E6" stroke-width="0.5" stroke-linecap="round"/>
<path d="M25.1885 505.39H29.5237" stroke="#E6E6E6" stroke-width="0.5" stroke-linecap="round"/>
<path d="M24.4658 495.997L24.4658 498.887" stroke="#E6E6E6" stroke-width="0.5" stroke-linecap="round"/>
<path d="M30.2461 495.997L30.2461 498.887" stroke="#E6E6E6" stroke-width="0.5" stroke-linecap="round"/>
<g filter="url(#filter1_d_1087_3591)">
<path d="M4.625 566.25H47.625" stroke="url(#paint10_linear_1087_3591)" stroke-width="0.5" stroke-linecap="round" shape-rendering="crispEdges"/>
</g>
<path d="M23 599.375L26.125 602.5L29.25 599.375M23 595.625L26.125 592.5L29.25 595.625" stroke="#E6E6E6" stroke-width="0.449979" stroke-linecap="round" stroke-linejoin="round"/>
<rect x="13.9906" y="615.366" width="24.2687" height="24.2687" rx="12.1344" fill="#FFF8F8" fill-opacity="0.2"/>
<rect x="13.9906" y="615.366" width="24.2687" height="24.2687" rx="12.1344" stroke="url(#paint11_linear_1087_3591)" stroke-width="0.73125"/>
<defs>
<filter id="filter0_d_1087_3591" x="0" y="122.75" width="52.25" height="8.78516" filterUnits="userSpaceOnUse" color-interpolation-filters="sRGB">
<feFlood flood-opacity="0" result="BackgroundImageFix"/>
<feColorMatrix in="SourceAlpha" type="matrix" values="0 0 0 0 0 0 0 0 0 0 0 0 0 0 0 0 0 0 127 0" result="hardAlpha"/>
<feOffset dy="4"/>
<feGaussianBlur stdDeviation="2"/>
<feComposite in2="hardAlpha" operator="out"/>
<feColorMatrix type="matrix" values="0 0 0 0 0 0 0 0 0 0 0 0 0 0 0 0 0 0 0.25 0"/>
<feBlend mode="normal" in2="BackgroundImageFix" result="effect1_dropShadow_1087_3591"/>
<feBlend mode="normal" in="SourceGraphic" in2="effect1_dropShadow_1087_3591" result="shape"/>
</filter>
<filter id="filter1_d_1087_3591" x="0.375" y="566" width="51.5" height="8.5" filterUnits="userSpaceOnUse" color-interpolation-filters="sRGB">
<feFlood flood-opacity="0" result="BackgroundImageFix"/>
<feColorMatrix in="SourceAlpha" type="matrix" values="0 0 0 0 0 0 0 0 0 0 0 0 0 0 0 0 0 0 127 0" result="hardAlpha"/>
<feOffset dy="4"/>
<feGaussianBlur stdDeviation="2"/>
<feComposite in2="hardAlpha" operator="out"/>
<feColorMatrix type="matrix" values="0 0 0 0 0 0 0 0 0 0 0 0 0 0 0 0 0 0 0.25 0"/>
<feBlend mode="normal" in2="BackgroundImageFix" result="effect1_dropShadow_1087_3591"/>
<feBlend mode="normal" in="SourceGraphic" in2="effect1_dropShadow_1087_3591" result="shape"/>
</filter>
<linearGradient id="paint0_linear_1087_3591" x1="31.3806" y1="41.2696" x2="20.7061" y2="37.7208" gradientUnits="userSpaceOnUse">
<stop stop-color="#D1D1D1" stop-opacity="0"/>
<stop offset="0.514423" stop-color="white"/>
<stop offset="1" stop-color="#D1D1D1" stop-opacity="0"/>
</linearGradient>
<linearGradient id="paint1_linear_1087_3591" x1="25.1303" y1="29.7311" x2="16.1199" y2="33.9971" gradientUnits="userSpaceOnUse">
<stop stop-color="#D1D1D1" stop-opacity="0"/>
<stop offset="0.514423" stop-color="white"/>
<stop offset="1" stop-color="#D1D1D1" stop-opacity="0"/>
</linearGradient>
<linearGradient id="paint2_linear_1087_3591" x1="32.3412" y1="29.2495" x2="22.8914" y2="34.2032" gradientUnits="userSpaceOnUse">
<stop stop-color="#D1D1D1" stop-opacity="0"/>
<stop offset="0.514423" stop-color="white"/>
<stop offset="1" stop-color="#D1D1D1" stop-opacity="0"/>
</linearGradient>
<linearGradient id="paint3_linear_1087_3591" x1="28.0149" y1="41.2689" x2="24.2098" y2="27.5099" gradientUnits="userSpaceOnUse">
<stop stop-color="#D1D1D1" stop-opacity="0"/>
<stop offset="0.514423" stop-color="white"/>
<stop offset="1" stop-color="#D1D1D1" stop-opacity="0"/>
</linearGradient>
<linearGradient id="paint4_linear_1087_3591" x1="31.3801" y1="35.0197" x2="19.5274" y2="30.2749" gradientUnits="userSpaceOnUse">
<stop stop-color="#D1D1D1" stop-opacity="0"/>
<stop offset="0.514423" stop-color="white"/>
<stop offset="1" stop-color="#D1D1D1" stop-opacity="0"/>
</linearGradient>
<linearGradient id="paint5_linear_1087_3591" x1="31.8615" y1="26.8459" x2="19.8441" y2="34.5412" gradientUnits="userSpaceOnUse">
<stop stop-color="#D1D1D1" stop-opacity="0"/>
<stop offset="0.514423" stop-color="white"/>
<stop offset="1" stop-color="#D1D1D1" stop-opacity="0"/>
</linearGradient>
<linearGradient id="paint6_linear_1087_3591" x1="33.303" y1="41.2689" x2="29.5087" y2="27.5116" gradientUnits="userSpaceOnUse">
<stop stop-color="#D1D1D1" stop-opacity="0"/>
<stop offset="0.514423" stop-color="white"/>
<stop offset="1" stop-color="#D1D1D1" stop-opacity="0"/>
</linearGradient>
<linearGradient id="paint7_linear_1087_3591" x1="30.9001" y1="33.5767" x2="18.8808" y2="40.7883" gradientUnits="userSpaceOnUse">
<stop stop-color="#D1D1D1" stop-opacity="0"/>
<stop offset="0.514423" stop-color="white"/>
<stop offset="1" stop-color="#D1D1D1" stop-opacity="0"/>
</linearGradient>
<linearGradient id="paint8_linear_1087_3591" x1="4.24675" y1="123.5" x2="47.9967" y2="123.785" gradientUnits="userSpaceOnUse">
<stop stop-color="#CDCDCD" stop-opacity="0"/>
<stop offset="0.5" stop-color="#CDCDCD"/>
<stop offset="1" stop-color="#CDCDCD" stop-opacity="0"/>
</linearGradient>
<linearGradient id="paint9_linear_1087_3591" x1="46.125" y1="153.5" x2="7.125" y2="153.5" gradientUnits="userSpaceOnUse">
<stop stop-color="#CDCDCD" stop-opacity="0"/>
<stop offset="0.5" stop-color="#CDCDCD"/>
<stop offset="1" stop-color="#CDCDCD" stop-opacity="0"/>
</linearGradient>
<linearGradient id="paint10_linear_1087_3591" x1="4.625" y1="566.75" x2="47.625" y2="566.75" gradientUnits="userSpaceOnUse">
<stop stop-color="#CDCDCD" stop-opacity="0"/>
<stop offset="0.5" stop-color="#CDCDCD"/>
<stop offset="1" stop-color="#CDCDCD" stop-opacity="0"/>
</linearGradient>
<linearGradient id="paint11_linear_1087_3591" x1="26.4223" y1="606.176" x2="26.4223" y2="647.353" gradientUnits="userSpaceOnUse">
<stop stop-color="#00FF48"/>
<stop offset="1" stop-color="#00992B" stop-opacity="0"/>
</linearGradient>
</defs>
</svg>
