<svg width="21" height="26" viewBox="0 0 21 26" fill="none" xmlns="http://www.w3.org/2000/svg">
<g filter="url(#filter0_d_1094_3027)">
<path d="M10.0833 17.5V10.8333M10.0833 17.5L5.16993 13.9904C4.71896 13.6683 4.49347 13.5072 4.37174 13.2707C4.25 13.0341 4.25 12.757 4.25 12.2028V6.66667M10.0833 17.5L14.9967 13.9904C15.4477 13.6683 15.6732 13.5072 15.7949 13.2707C15.9167 13.0341 15.9167 12.757 15.9167 12.2028V6.66667M10.0833 10.8333L4.25 6.66667M10.0833 10.8333L15.9167 6.66667M4.25 6.66667L8.80648 3.41204C9.42305 2.97163 9.73134 2.75143 10.0833 2.75143C10.4353 2.75143 10.7436 2.97163 11.3602 3.41204L15.9167 6.66667" stroke="#CDCDCD" stroke-width="0.5" stroke-linejoin="round"/>
</g>
<defs>
<filter id="filter0_d_1094_3027" x="-3.91602" y="0" width="28" height="28" filterUnits="userSpaceOnUse" color-interpolation-filters="sRGB">
<feFlood flood-opacity="0" result="BackgroundImageFix"/>
<feColorMatrix in="SourceAlpha" type="matrix" values="0 0 0 0 0 0 0 0 0 0 0 0 0 0 0 0 0 0 127 0" result="hardAlpha"/>
<feOffset dy="4"/>
<feGaussianBlur stdDeviation="2"/>
<feComposite in2="hardAlpha" operator="out"/>
<feColorMatrix type="matrix" values="0 0 0 0 0 0 0 0 0 0 0 0 0 0 0 0 0 0 0.5 0"/>
<feBlend mode="normal" in2="BackgroundImageFix" result="effect1_dropShadow_1094_3027"/>
<feBlend mode="normal" in="SourceGraphic" in2="effect1_dropShadow_1094_3027" result="shape"/>
</filter>
</defs>
</svg>
