<svg width="28" height="26" viewBox="0 0 28 26" fill="none" xmlns="http://www.w3.org/2000/svg">
<g filter="url(#filter0_d_1094_3035)">
<g clip-path="url(#clip0_1094_3035)">
<path opacity="0.99" d="M18.2866 7.04778C18.23 7.06277 17.8008 7.23414 17.3355 7.42479L16.4873 7.77181C15.909 7.53832 15.5054 7.37766 15.215 7.26199C14.8243 7.10562 14.6546 7.04992 14.5595 7.0435C14.4876 7.03707 14.3847 7.04564 14.3282 7.06277C14.2716 7.07777 14.1817 7.12489 14.1277 7.16559C14.0609 7.21701 14.0172 7.27698 13.9915 7.34982C13.9709 7.40979 13.9555 7.49119 13.9555 7.53189C13.9555 7.57259 13.9863 7.7461 14.0198 7.91747C14.0557 8.08884 14.1251 8.42086 14.174 8.65649L14.2639 9.08491C13.169 9.99744 12.8297 10.2973 12.8065 10.338C12.7834 10.3787 12.7577 10.4708 12.7526 10.5415C12.7448 10.6165 12.7551 10.7065 12.7757 10.7557C12.7937 10.8029 12.8579 10.8821 12.9196 10.9335C12.9942 10.9957 13.0713 11.0342 13.1664 11.0556C13.2384 11.0728 13.6933 11.1542 14.174 11.2356C14.706 11.3255 15.0556 11.3962 15.0685 11.4134C15.0787 11.4284 15.251 11.6876 15.4514 11.9875C15.6494 12.2873 15.873 12.6151 15.945 12.7158C16.0478 12.8571 16.1043 12.9107 16.202 12.9621C16.3074 13.0157 16.3562 13.0264 16.4847 13.0264C16.5953 13.0242 16.6749 13.0114 16.7521 12.9771C16.8112 12.9514 16.8883 12.8978 16.9217 12.8614C16.9551 12.8229 17.1248 12.583 17.297 12.3302C17.4718 12.0774 17.68 11.7668 17.7622 11.6404C17.8573 11.4948 17.9344 11.4005 17.973 11.3898C18.0038 11.377 18.4356 11.2998 18.9292 11.2163C19.4252 11.1306 19.8648 11.0514 19.9059 11.0364C19.947 11.0214 20.0267 10.9764 20.0807 10.9357C20.1347 10.895 20.1964 10.8243 20.2195 10.7772C20.2426 10.7236 20.2555 10.6422 20.2478 10.5608C20.2426 10.4601 20.2246 10.4109 20.1681 10.3466C20.1295 10.2995 19.8468 10.0467 19.5383 9.78109C19.2299 9.51547 18.924 9.252 18.8572 9.19202L18.7364 9.08491C18.8392 8.58795 18.9086 8.24521 18.9574 8.00315C19.0114 7.74396 19.0448 7.51476 19.0397 7.44407C19.0345 7.35838 19.0114 7.30055 18.9626 7.23628C18.9214 7.18702 18.8418 7.12275 18.7826 7.09276C18.7158 7.06063 18.6156 7.03493 18.5308 7.0285C18.4459 7.02207 18.3483 7.03064 18.2866 7.04778Z" fill="#CDCDCD"/>
<path opacity="0.99" d="M14.1386 4.63257C14.1168 4.63908 14.0761 4.66077 14.0489 4.68029C14.0217 4.69981 14 4.74536 14 4.79091C14 4.83646 14.0217 4.88201 14.0489 4.9037C14.0761 4.92322 14.1277 4.94491 14.1658 4.95141C14.2038 4.95792 14.4239 4.97961 14.6549 4.99696C14.8858 5.01648 15.3342 5.06203 15.6467 5.09674C15.9592 5.13361 16.4374 5.19651 16.7065 5.23555C16.9755 5.27676 17.3858 5.344 17.6168 5.38738C17.8477 5.43076 18.1983 5.50017 18.3912 5.54138C18.5841 5.58476 18.9347 5.66718 19.1656 5.72791C19.3966 5.78864 19.7526 5.88842 19.9537 5.95132C20.1548 6.01422 20.4482 6.11182 20.6058 6.16822C20.7634 6.22678 21.0515 6.34173 21.2444 6.42416C21.4373 6.50658 21.7688 6.66491 21.9781 6.77553C22.1873 6.88615 22.4754 7.05533 22.6167 7.1486C22.758 7.24403 22.9373 7.37851 23.0134 7.45009C23.0895 7.5195 23.1954 7.62795 23.2471 7.68651C23.3014 7.74724 23.3829 7.85569 23.4291 7.9316C23.4753 8.00535 23.5324 8.13115 23.5569 8.21357C23.5867 8.31335 23.5949 8.40444 23.584 8.50639C23.5759 8.58664 23.5378 8.71244 23.5052 8.78835C23.4699 8.8621 23.3938 8.9814 23.3367 9.05297C23.2824 9.12455 23.1357 9.26119 23.0134 9.35663C22.8911 9.45207 22.6764 9.59305 22.5351 9.67113C22.3938 9.74705 22.1411 9.862 21.9781 9.92274C21.815 9.98564 21.5324 10.0767 21.3531 10.1266C21.1738 10.1743 20.9292 10.2351 20.8096 10.2589C20.6846 10.285 20.5651 10.324 20.5297 10.35C20.4944 10.3782 20.47 10.4238 20.47 10.4585C20.47 10.4932 20.4999 10.5409 20.546 10.5756C20.6113 10.6277 20.633 10.632 20.7553 10.6212C20.8314 10.6125 21.0759 10.5604 21.2988 10.5019C21.5243 10.4411 21.8721 10.3305 22.0732 10.2546C22.2743 10.1765 22.5433 10.0594 22.671 9.99431C22.7987 9.92707 22.9944 9.81212 23.1058 9.7362C23.2172 9.66246 23.3911 9.52581 23.4944 9.43471C23.6112 9.32843 23.7226 9.20046 23.7987 9.07466C23.8666 8.96621 23.94 8.81655 23.9645 8.73847C23.9971 8.63436 24.0052 8.53675 23.9971 8.3589C23.9835 8.16152 23.9672 8.09211 23.8992 7.94679C23.853 7.85135 23.7389 7.68 23.6438 7.56721C23.5487 7.45226 23.3476 7.25705 23.1873 7.12474C23.0297 6.99677 22.7851 6.81891 22.6438 6.73215C22.5025 6.64539 22.2389 6.4979 22.0596 6.40464C21.8803 6.3092 21.5487 6.15737 21.3259 6.06627C21.1004 5.97518 20.7716 5.84937 20.5922 5.78864C20.4129 5.72791 20.1384 5.63681 19.9808 5.5891C19.8232 5.54138 19.4944 5.44811 19.2472 5.38304C18.9999 5.31797 18.5678 5.2182 18.2825 5.15964C17.9972 5.10107 17.5597 5.01865 17.3043 4.97744C17.0488 4.93623 16.6222 4.87333 16.3532 4.83646C16.0842 4.79958 15.625 4.74753 15.3342 4.71716C15.0435 4.6868 14.7201 4.6586 14.6141 4.64992C14.5081 4.64342 14.3696 4.63474 14.3016 4.62823C14.2337 4.6239 14.1603 4.62606 14.1386 4.63257Z" fill="#CDCDCD"/>
<path opacity="0.99" d="M11.4714 4.63952C11.3587 4.64195 11.061 4.65653 10.8066 4.67111C10.5523 4.68327 10.1159 4.7173 9.83838 4.74403C9.56092 4.77077 9.1505 4.81938 8.92794 4.85341C8.70539 4.885 8.37301 4.94091 8.19092 4.97493C8.00883 5.01139 7.70246 5.07459 7.5117 5.12077C7.32094 5.16695 7.02902 5.2423 6.86139 5.29091C6.69375 5.34195 6.39027 5.44403 6.18217 5.51938C5.97407 5.59473 5.68215 5.71868 5.53185 5.79403C5.38156 5.86938 5.17346 5.98118 5.06941 6.04681C4.96536 6.11 4.79772 6.2291 4.69656 6.30931C4.5954 6.39195 4.45667 6.5232 4.39019 6.60341C4.32082 6.68362 4.22544 6.81973 4.17631 6.90723C4.12717 6.99473 4.06937 7.13084 4.04335 7.21105C4.02023 7.29125 4 7.44924 4 7.56348C4 7.68987 4.02023 7.8357 4.05492 7.94021C4.08382 8.035 4.13584 8.16625 4.17053 8.23188C4.2081 8.29993 4.30926 8.44577 4.39886 8.56C4.48846 8.67181 4.66766 8.85653 4.79483 8.97077C4.922 9.08257 5.14455 9.25271 5.28618 9.34993C5.4278 9.44716 5.64457 9.58084 5.76308 9.64889C5.88158 9.71452 6.10413 9.83119 6.25443 9.90653C6.40472 9.98188 6.70531 10.118 6.91919 10.2104C7.13307 10.3027 7.46546 10.4315 7.65622 10.4996C7.84698 10.5701 8.04062 10.626 8.08398 10.626C8.13311 10.626 8.19381 10.6017 8.23427 10.5652C8.27763 10.5288 8.30653 10.4777 8.30653 10.4388C8.30364 10.3951 8.27474 10.3489 8.2256 10.3149C8.18225 10.2833 7.99149 10.2006 7.80073 10.1301C7.60997 10.0597 7.28626 9.93084 7.07816 9.84334C6.87006 9.75584 6.58392 9.62702 6.44229 9.55653C6.30067 9.48605 6.03476 9.33778 5.85268 9.23084C5.67059 9.12146 5.38156 8.91973 5.21103 8.77875C5.02316 8.6232 4.84396 8.4482 4.75437 8.3291C4.67055 8.22216 4.57806 8.07389 4.54626 8.00098C4.51158 7.92806 4.47401 7.80167 4.45667 7.72146C4.43643 7.61938 4.43643 7.52216 4.45956 7.39334C4.47979 7.27424 4.52892 7.14785 4.59829 7.02875C4.67055 6.90723 4.77171 6.7857 4.91333 6.66417C5.02605 6.56452 5.23415 6.41382 5.37578 6.32875C5.5174 6.24368 5.80932 6.10028 6.0232 6.01035C6.23708 5.91799 6.56947 5.79403 6.76023 5.73327C6.95099 5.6725 7.31516 5.57285 7.56951 5.50966C7.82385 5.44889 8.25162 5.35896 8.5233 5.31521C8.79499 5.26903 9.23431 5.20341 9.506 5.16938C9.77769 5.13535 10.217 5.0916 10.4887 5.07216C10.7604 5.05271 11.3298 5.02841 11.7604 5.02111C12.3298 5.00896 12.561 4.99681 12.6217 4.9725C12.6651 4.95306 12.7142 4.91417 12.7316 4.885C12.7489 4.85341 12.7547 4.79993 12.746 4.76348C12.7345 4.71973 12.6969 4.68084 12.642 4.65896C12.5755 4.6298 12.457 4.6225 12.113 4.62737C11.8731 4.6298 11.5841 4.63466 11.4714 4.63952Z" fill="#CDCDCD"/>
<path opacity="0.99" d="M20.5773 -0.136432C20.4516 -0.116487 20.2003 -0.0566539 20.0204 -0.00429935C19.8404 0.0480552 19.5491 0.147778 19.3778 0.215091C19.2064 0.282404 18.8837 0.424509 18.6638 0.531712C18.4439 0.638914 18.104 0.818415 17.907 0.933097C17.7099 1.04529 17.3701 1.2572 17.1502 1.3993C16.9303 1.54141 16.5904 1.77576 16.3933 1.91786C16.1991 2.06246 15.9021 2.28684 15.7365 2.41398C15.5708 2.54362 15.1939 2.85775 14.8968 3.11204C14.6027 3.36883 14.1914 3.73282 13.9858 3.92479C13.7802 4.11675 13.5603 4.32368 13.4946 4.38601C13.4289 4.44833 13.2518 4.62534 13.1005 4.77991C12.9491 4.93199 12.6407 5.25858 12.4179 5.5029C12.1951 5.74473 11.8696 6.11371 11.6953 6.31814C11.5183 6.52506 11.2098 6.89902 11.0099 7.15332C10.8072 7.40761 10.533 7.76163 10.4016 7.93864C10.2674 8.11565 10.0418 8.42479 9.89897 8.62423C9.75903 8.82368 9.4563 9.26745 9.23068 9.609C9.00506 9.95304 8.61666 10.5913 8.36819 11.03C8.11687 11.4688 7.81985 12.0248 7.70276 12.2641C7.58567 12.5035 7.42288 12.8575 7.34006 13.0494C7.25724 13.2414 7.1173 13.5954 7.02591 13.8348C6.93452 14.0741 6.806 14.4555 6.74317 14.6824C6.68034 14.9093 6.59752 15.2334 6.56325 15.4054C6.51469 15.6472 6.50042 15.8168 6.50042 16.1658C6.49756 16.5223 6.50898 16.6469 6.54897 16.7766C6.57753 16.8663 6.64607 17.0159 6.69747 17.1132C6.7603 17.2278 6.85741 17.3425 6.9745 17.4447C7.0973 17.5544 7.21725 17.6292 7.35434 17.6866C7.46572 17.7314 7.61708 17.7813 7.69705 17.7963C7.77416 17.8137 7.96265 17.8262 8.11116 17.8262C8.25967 17.8262 8.45387 17.8137 8.53955 17.7987C8.62522 17.7838 8.81943 17.7389 8.96794 17.694C9.11644 17.6517 9.4306 17.5295 9.66764 17.4273C9.90182 17.3226 10.2645 17.1431 10.4673 17.0284C10.6701 16.9137 11.0071 16.7093 11.2098 16.5771C11.4126 16.4425 11.721 16.2306 11.8953 16.1035C12.0695 15.9788 12.4208 15.7046 12.6806 15.4951C12.9405 15.2882 13.3232 14.9566 13.5289 14.7622C13.8858 14.4306 13.9087 14.4032 13.9087 14.3084C13.9087 14.2312 13.8916 14.1938 13.8287 14.1464C13.7802 14.104 13.7202 14.0816 13.6574 14.0841C13.6088 14.0841 13.5374 14.0965 13.5003 14.1115C13.466 14.1289 13.1919 14.3508 12.8948 14.6051C12.5978 14.8619 12.198 15.1885 12.0095 15.3331C11.821 15.4752 11.5697 15.6622 11.4526 15.7445C11.3355 15.8267 11.1099 15.9788 10.9528 16.0835C10.7957 16.1857 10.4873 16.3752 10.2674 16.4999C10.0475 16.627 9.68763 16.8065 9.46772 16.9012C9.24782 16.996 8.9508 17.1082 8.81086 17.153C8.60523 17.2154 8.49385 17.2353 8.25395 17.2453C8.03119 17.2528 7.9141 17.2478 7.79701 17.2179C7.71133 17.1954 7.58281 17.1456 7.51141 17.1057C7.44001 17.0633 7.34862 16.9885 7.30864 16.9361C7.2658 16.8813 7.21154 16.7816 7.18298 16.7143C7.15728 16.6445 7.12872 16.4774 7.12015 16.3403C7.11158 16.2032 7.12015 15.9614 7.13729 15.8043C7.15728 15.6472 7.20012 15.4054 7.23153 15.2683C7.26009 15.1312 7.31721 14.9068 7.35719 14.7697C7.39718 14.6325 7.49428 14.3409 7.57424 14.1215C7.65135 13.9021 7.78273 13.5705 7.85984 13.386C7.9398 13.2015 8.08545 12.8774 8.18541 12.668C8.28537 12.4611 8.49671 12.0497 8.65664 11.758C8.81372 11.4688 9.08503 11.0001 9.25924 10.7184C9.43345 10.4367 9.71048 10.0104 9.87612 9.77105C10.0418 9.53171 10.3188 9.13781 10.4901 8.89847C10.6644 8.65914 10.9071 8.32756 11.0328 8.16301C11.1584 7.99847 11.384 7.71177 11.5326 7.52728C11.6839 7.34279 11.921 7.05609 12.0638 6.89155C12.2037 6.727 12.515 6.37797 12.7549 6.11869C12.9919 5.85941 13.406 5.42562 13.6688 5.15886C13.9344 4.8921 14.4228 4.43337 14.7512 4.13919C15.0796 3.84501 15.5508 3.44362 15.7936 3.24418C16.0364 3.04722 16.4533 2.72562 16.7218 2.52866C16.9902 2.3342 17.3758 2.06495 17.5786 1.93033C17.7813 1.79819 18.1098 1.59376 18.3068 1.48157C18.5039 1.36689 18.818 1.19736 19.0065 1.10512C19.195 1.01038 19.4835 0.880742 19.6491 0.818415C19.8147 0.753595 20.0518 0.671324 20.1774 0.636421C20.3031 0.599025 20.5087 0.551657 20.6344 0.529219C20.7943 0.501795 20.9371 0.494316 21.1056 0.504288C21.2798 0.51426 21.3884 0.536698 21.4912 0.581573C21.5683 0.613983 21.6825 0.688775 21.7396 0.743623C21.7996 0.800964 21.8796 0.898194 21.9167 0.963014C21.9538 1.03033 21.9995 1.14501 22.0224 1.2198C22.0452 1.30207 22.0566 1.47659 22.0566 1.65609C22.0538 1.8306 22.0252 2.07991 21.991 2.25443C21.9595 2.41897 21.8996 2.6608 21.8624 2.79044C21.8253 2.92008 21.7168 3.22423 21.6225 3.46357C21.5312 3.7029 21.3769 4.05692 21.2827 4.24889C21.1884 4.44085 21.0514 4.70512 20.98 4.83476C20.8943 4.98933 20.8486 5.10401 20.8486 5.16385C20.8486 5.23365 20.8714 5.27853 20.9257 5.33088C20.9714 5.37077 21.0456 5.41066 21.0913 5.42063C21.137 5.4306 21.217 5.4331 21.2627 5.42312C21.3084 5.41565 21.3827 5.37825 21.4255 5.34085C21.4683 5.30096 21.5569 5.16883 21.6225 5.04667C21.6882 4.92451 21.8225 4.64778 21.9253 4.43587C22.0252 4.22396 22.1795 3.86994 22.2651 3.65055C22.3508 3.43116 22.465 3.09958 22.5193 2.91509C22.5736 2.7306 22.6364 2.48878 22.6592 2.37908C22.6821 2.26938 22.7164 2.03504 22.7335 1.85553C22.7535 1.63116 22.7563 1.46412 22.7364 1.30706C22.7192 1.1849 22.6792 1.0029 22.645 0.908166C22.6136 0.813429 22.545 0.666338 22.4965 0.584066C22.4451 0.501795 22.3165 0.354703 22.2052 0.257473C22.0595 0.130327 21.9453 0.0555348 21.791 -0.0117783C21.674 -0.0616398 21.4883 -0.118981 21.3769 -0.138925C21.2656 -0.15887 21.0942 -0.173828 20.9914 -0.173828C20.8886 -0.173828 20.7029 -0.156377 20.5773 -0.136432Z" fill="#CDCDCD"/>
</g>
</g>
<defs>
<filter id="filter0_d_1094_3035" x="-0.253906" y="0" width="28" height="26" filterUnits="userSpaceOnUse" color-interpolation-filters="sRGB">
<feFlood flood-opacity="0" result="BackgroundImageFix"/>
<feColorMatrix in="SourceAlpha" type="matrix" values="0 0 0 0 0 0 0 0 0 0 0 0 0 0 0 0 0 0 127 0" result="hardAlpha"/>
<feOffset dy="4"/>
<feGaussianBlur stdDeviation="2"/>
<feComposite in2="hardAlpha" operator="out"/>
<feColorMatrix type="matrix" values="0 0 0 0 0 0 0 0 0 0 0 0 0 0 0 0 0 0 0.5 0"/>
<feBlend mode="normal" in2="BackgroundImageFix" result="effect1_dropShadow_1094_3035"/>
<feBlend mode="normal" in="SourceGraphic" in2="effect1_dropShadow_1094_3035" result="shape"/>
</filter>
<clipPath id="clip0_1094_3035">
<rect width="20" height="18" fill="white" transform="translate(3.74609)"/>
</clipPath>
</defs>
</svg>
