<svg width="28" height="28" viewBox="0 0 28 28" fill="none" xmlns="http://www.w3.org/2000/svg">
<g filter="url(#filter0_d_1087_3637)">
<path d="M20.25 11.2504V8.82504C20.25 7.92381 20.25 7.4732 20.0746 7.12897C19.9203 6.82618 19.6742 6.58 19.3714 6.42573C19.0271 6.25033 18.5765 6.25033 17.6753 6.25033H15.5191C15.116 6.25033 14.9145 6.25033 14.7316 6.19478C14.5696 6.14559 14.419 6.06496 14.2882 5.95748C14.1405 5.83609 14.0288 5.6684 13.8052 5.33301L13.3615 4.66732C13.1379 4.33194 13.0261 4.16425 12.8784 4.04285C12.7477 3.93538 12.597 3.85474 12.4351 3.80556C12.2522 3.75 12.0506 3.75 11.6476 3.75H10.3247C9.42348 3.75 8.97286 3.75 8.62864 3.92539C8.32585 4.07967 8.07967 4.32585 7.92539 4.62864C7.75 4.97286 7.75 5.42348 7.75 6.32471V7.91683M20.25 13.1253C20.25 13.7607 20.25 14.0783 20.1616 14.334C20.0001 14.8005 19.6335 15.1671 19.167 15.3286C18.9113 15.417 18.5937 15.417 17.9583 15.417H10.3247C9.42348 15.417 8.97286 15.417 8.62864 15.2416C8.32585 15.0873 8.07967 14.8412 7.92539 14.5384C7.75 14.1941 7.75 13.7435 7.75 12.8423V9.58369" stroke="#CDCDCD" stroke-width="0.750957" stroke-linecap="round"/>
</g>
<defs>
<filter id="filter0_d_1087_3637" x="0" y="0" width="28" height="28" filterUnits="userSpaceOnUse" color-interpolation-filters="sRGB">
<feFlood flood-opacity="0" result="BackgroundImageFix"/>
<feColorMatrix in="SourceAlpha" type="matrix" values="0 0 0 0 0 0 0 0 0 0 0 0 0 0 0 0 0 0 127 0" result="hardAlpha"/>
<feOffset dy="4"/>
<feGaussianBlur stdDeviation="2"/>
<feComposite in2="hardAlpha" operator="out"/>
<feColorMatrix type="matrix" values="0 0 0 0 0 0 0 0 0 0 0 0 0 0 0 0 0 0 0.5 0"/>
<feBlend mode="normal" in2="BackgroundImageFix" result="effect1_dropShadow_1087_3637"/>
<feBlend mode="normal" in="SourceGraphic" in2="effect1_dropShadow_1087_3637" result="shape"/>
</filter>
</defs>
</svg>
