<svg width="28" height="28" viewBox="0 0 28 28" fill="none" xmlns="http://www.w3.org/2000/svg">
<g filter="url(#filter0_d_1094_2782)">
<path d="M6.32129 9.29351C6.32129 8.03938 6.32129 7.41231 6.6119 6.86111C6.90252 6.30991 7.4483 5.90182 8.53986 5.08564L9.59871 4.29391C11.5717 2.81867 12.5582 2.08105 13.7333 2.08105C14.9084 2.08105 15.8949 2.81867 17.8678 4.29391L18.9267 5.08564C20.0182 5.90182 20.564 6.30991 20.8546 6.86111C21.1453 7.41231 21.1453 8.03938 21.1453 9.29351V13.2103C21.1453 14.952 21.1453 15.8229 20.525 16.3639C19.9047 16.905 18.9064 16.905 16.9098 16.905H10.5567C8.56011 16.905 7.56181 16.905 6.94155 16.3639C6.32129 15.8229 6.32129 14.952 6.32129 13.2103V9.29351Z" stroke="#CDCDCD" stroke-width="0.637971"/>
<path d="M15.4905 16.8382V13.4788C15.4905 13.2197 15.2806 13.0098 15.0216 13.0098H12.1311C11.8721 13.0098 11.6621 13.2197 11.6621 13.4788V16.8382" stroke="#CDCDCD" stroke-width="0.637971" stroke-linecap="round" stroke-linejoin="round"/>
</g>
<defs>
<filter id="filter0_d_1094_2782" x="0" y="0" width="28" height="28" filterUnits="userSpaceOnUse" color-interpolation-filters="sRGB">
<feFlood flood-opacity="0" result="BackgroundImageFix"/>
<feColorMatrix in="SourceAlpha" type="matrix" values="0 0 0 0 0 0 0 0 0 0 0 0 0 0 0 0 0 0 127 0" result="hardAlpha"/>
<feOffset dy="4"/>
<feGaussianBlur stdDeviation="2"/>
<feComposite in2="hardAlpha" operator="out"/>
<feColorMatrix type="matrix" values="0 0 0 0 0 0 0 0 0 0 0 0 0 0 0 0 0 0 0.5 0"/>
<feBlend mode="normal" in2="BackgroundImageFix" result="effect1_dropShadow_1094_2782"/>
<feBlend mode="normal" in="SourceGraphic" in2="effect1_dropShadow_1094_2782" result="shape"/>
</filter>
</defs>
</svg>
