<svg width="25" height="25" viewBox="0 0 25 25" fill="none" xmlns="http://www.w3.org/2000/svg">
<path d="M7.65474 12.7518C7.62494 12.7843 7.54368 12.9032 7.47055 13.0167C7.40013 13.1302 7.33513 13.2545 7.327 13.2924C7.31346 13.3572 7.36492 13.4194 7.87413 13.9491C8.1829 14.2708 9.1634 15.2518 10.0518 16.1275C10.9402 17.0032 11.7663 17.8005 11.8855 17.8978C12.0074 17.9924 12.2566 18.1735 12.4435 18.2951C12.6276 18.4194 12.912 18.5897 13.0746 18.6735C13.2398 18.76 13.4944 18.8816 13.6434 18.9437C13.7923 19.0059 14.0605 19.1032 14.2392 19.16C14.4153 19.2194 14.7241 19.3005 14.9245 19.3464C15.1222 19.3897 15.4012 19.4437 15.5448 19.4654C15.6856 19.487 16.0513 19.5113 16.3573 19.5194C16.6986 19.5275 17.0074 19.5221 17.1591 19.5059C17.327 19.4843 17.4191 19.4627 17.4516 19.4302C17.476 19.4059 17.5789 19.2302 17.6764 19.0383C17.7739 18.8464 17.8552 18.6708 17.8552 18.6437C17.8579 18.6194 17.8416 18.6005 17.8254 18.6005C17.8064 18.6005 17.671 18.6194 17.522 18.641C17.327 18.6708 17.0534 18.6843 16.5524 18.687C15.9267 18.6897 15.8183 18.6843 15.5177 18.6302C15.3335 18.5978 15.0708 18.5437 14.9353 18.5086C14.8026 18.4762 14.5534 18.4005 14.3882 18.3437C14.2203 18.2843 13.9657 18.187 13.8194 18.1221C13.6732 18.0572 13.4429 17.9437 13.3075 17.8654C13.1721 17.7897 12.9337 17.6383 12.7793 17.5275C12.6222 17.4194 12.3947 17.2464 12.2755 17.1437C12.1537 17.041 11.0865 15.9978 9.90284 14.8248C8.7192 13.6518 7.74141 12.6924 7.73057 12.6924C7.71703 12.6924 7.68453 12.7194 7.65474 12.7518Z" fill="url(#paint0_linear_1087_3593)"/>
<path d="M9.54228 8.65156C8.61053 9.57588 7.60295 10.5894 7.3023 10.9002C7.00165 11.2137 6.66308 11.5921 6.54932 11.7434C6.43556 11.8948 6.27034 12.1326 6.18366 12.2732C6.09699 12.411 5.95614 12.6651 5.86947 12.8353C5.7828 13.0056 5.65279 13.2948 5.57965 13.4786C5.50652 13.6651 5.40631 13.9543 5.35755 14.1245C5.3088 14.2948 5.23838 14.584 5.20587 14.7705C5.17066 14.9543 5.13003 15.2029 5.11649 15.3245C5.10024 15.4434 5.08128 15.7516 5.07315 16.0083C5.06503 16.2732 5.07045 16.5921 5.08399 16.7543C5.10836 16.9948 5.12191 17.0489 5.17337 17.0948C5.20587 17.1272 5.37922 17.2272 5.56069 17.3218C5.74217 17.4137 5.91281 17.4894 5.9426 17.4894C5.97781 17.4894 5.99406 17.4732 5.99406 17.4326C5.99406 17.4002 5.9724 17.2516 5.94802 17.1029C5.91822 16.9029 5.90468 16.6651 5.90468 16.1867C5.90468 15.6813 5.91281 15.4813 5.95073 15.2597C5.9751 15.1029 6.02657 14.8489 6.05907 14.6921C6.09428 14.5353 6.15387 14.3164 6.19179 14.2029C6.22971 14.0894 6.30555 13.8786 6.35972 13.738C6.4166 13.5948 6.53848 13.3353 6.63058 13.157C6.72267 12.9813 6.88247 12.7083 6.9881 12.5516C7.09103 12.3948 7.26979 12.157 7.38085 12.0218C7.49461 11.8867 8.53469 10.8272 9.69125 9.66237C10.8505 8.50021 11.8229 7.51372 11.8527 7.47048L11.9096 7.3921C11.7823 7.26507 11.6468 7.17048 11.5249 7.0975C11.4031 7.02453 11.2893 6.96777 11.2703 6.96777C11.2514 6.96777 10.474 7.72453 9.54228 8.65156Z" fill="url(#paint1_linear_1087_3593)"/>
<path d="M18.9679 6.80496C18.9679 6.83199 18.9868 6.99145 19.0112 7.16172C19.0437 7.38064 19.0573 7.6482 19.0573 8.07523C19.0573 8.52929 19.0464 8.75631 19.0112 8.97794C18.9868 9.1428 18.9272 9.43739 18.8785 9.63739C18.8297 9.83469 18.7376 10.1482 18.6672 10.332C18.5995 10.5185 18.4614 10.8293 18.3612 11.0293C18.2609 11.2266 18.1038 11.5104 18.0118 11.6563C17.9197 11.8023 17.7274 12.0563 17.5865 12.2239C17.443 12.3887 16.4002 13.459 15.268 14.6023C14.1358 15.7428 13.1716 16.7212 13.1228 16.7752L13.0361 16.8752C13.1363 16.9698 13.2691 17.0617 13.3991 17.1401C13.5264 17.2185 13.651 17.2833 13.6781 17.2833C13.7024 17.2833 14.6694 16.3401 15.9262 15.086C17.535 13.4806 18.1824 12.8158 18.3259 12.6293C18.4343 12.486 18.5968 12.2536 18.6916 12.1131C18.7837 11.9698 18.9435 11.6969 19.0437 11.5077C19.1412 11.3158 19.2767 11.0374 19.3389 10.886C19.4012 10.7374 19.4933 10.4887 19.5448 10.332C19.5936 10.1779 19.6694 9.87523 19.7127 9.66172C19.7561 9.44821 19.8102 9.12388 19.8346 8.9401C19.8617 8.73469 19.8807 8.41577 19.8834 8.11577C19.8834 7.8455 19.8752 7.53199 19.8617 7.41848C19.8454 7.25631 19.8265 7.20226 19.7832 7.16172C19.7507 7.13199 19.5719 7.03199 19.385 6.93469C19.1981 6.8401 19.0275 6.76172 19.0058 6.76172C18.9868 6.76172 18.9679 6.78064 18.9679 6.80496Z" fill="url(#paint2_linear_1087_3593)"/>
<path d="M4.3635 5.92679C4.20098 6.0349 3.98159 6.18895 3.87325 6.27003C3.76761 6.35111 3.56447 6.52138 3.42092 6.64841C3.28007 6.77544 3.05526 7.00247 2.92254 7.14841C2.78982 7.29706 2.58397 7.54571 2.4675 7.70247C2.34833 7.85922 2.16144 8.1376 2.05039 8.32138C1.93934 8.50517 1.78224 8.80247 1.70098 8.97814C1.61973 9.15652 1.51138 9.41868 1.45721 9.55922C1.40575 9.70247 1.32178 9.95652 1.27303 10.1268C1.22428 10.2971 1.15656 10.5917 1.12135 10.7835C1.08614 10.9754 1.04551 11.2592 1.03197 11.416C1.01843 11.5727 1.00488 11.8971 1.00488 12.1376C1.00488 12.3808 1.02113 12.7322 1.0428 12.9241C1.06176 13.116 1.10781 13.4187 1.14573 13.5944C1.18094 13.7727 1.24594 14.0403 1.28928 14.189C1.33262 14.3376 1.41388 14.5862 1.47346 14.743C1.53305 14.8998 1.64139 15.1538 1.71453 15.3106C1.78766 15.4673 1.91496 15.7106 1.99892 15.8511C2.08289 15.9944 2.22915 16.2268 2.32666 16.3673C2.42146 16.5106 2.60022 16.743 2.7194 16.8835C2.83858 17.0268 3.01734 17.2241 3.11485 17.3241C3.21236 17.4241 3.39654 17.5971 3.52655 17.7079C3.65385 17.816 3.86783 17.9862 4.00326 18.0835C4.13869 18.1808 4.37162 18.3349 4.52059 18.4295C4.66956 18.5241 4.91333 18.6619 5.0623 18.7376C5.21127 18.8133 5.46859 18.9295 5.6311 18.9944C5.79632 19.0592 6.08614 19.1592 6.27845 19.216C6.47076 19.2727 6.74432 19.343 6.88516 19.37C7.02872 19.3998 7.25894 19.4403 7.4025 19.4619C7.54334 19.4862 7.89275 19.5106 8.17715 19.5187C8.4778 19.5268 8.82991 19.5214 9.0168 19.5052C9.19556 19.489 9.44475 19.4592 9.57205 19.4376C9.70207 19.4133 9.94042 19.3673 10.1029 19.3295C10.2654 19.2944 10.5444 19.216 10.7232 19.1592C10.902 19.1025 11.1809 18.9998 11.3435 18.9322C11.506 18.8646 11.6739 18.7835 11.7118 18.7538C11.7714 18.7106 11.7768 18.6944 11.7497 18.6592C11.7335 18.6349 11.6089 18.5268 11.4735 18.4187C11.338 18.3106 11.2053 18.2052 11.1755 18.1863C11.1322 18.1592 11.0536 18.1781 10.6203 18.3241C10.3088 18.4295 9.9675 18.5241 9.72915 18.57C9.51517 18.6133 9.22807 18.6592 9.08993 18.6754C8.94909 18.689 8.63218 18.7025 8.383 18.7025C8.12298 18.7025 7.80337 18.6862 7.62731 18.6619C7.46209 18.6403 7.18581 18.5917 7.01517 18.5565C6.84454 18.5214 6.54118 18.4376 6.34345 18.3754C6.14302 18.3106 5.84779 18.1971 5.68256 18.1241C5.52005 18.0511 5.24649 17.9079 5.07585 17.8079C4.90521 17.7052 4.69394 17.5727 4.60727 17.5106C4.52059 17.4511 4.32828 17.2998 4.18202 17.1808C4.03576 17.0592 3.78928 16.8268 3.63489 16.6646C3.4778 16.5025 3.28549 16.2808 3.20694 16.1754C3.12568 16.0673 2.97401 15.8538 2.87108 15.6971C2.76815 15.5403 2.60835 15.2619 2.51897 15.0781C2.42688 14.8944 2.31041 14.6322 2.25895 14.4971C2.20477 14.3646 2.12352 14.1079 2.07476 13.9295C2.02601 13.7538 1.96371 13.4917 1.93392 13.3511C1.90683 13.2079 1.87162 12.9646 1.85808 12.8079C1.84454 12.6538 1.8337 12.3403 1.8337 12.1133C1.83099 11.8863 1.84454 11.5727 1.86079 11.416C1.87433 11.2592 1.91496 10.9998 1.95017 10.8349C1.98538 10.6727 2.04768 10.4106 2.09372 10.2565C2.13977 10.0998 2.22373 9.85111 2.28332 9.70247C2.34291 9.55111 2.45938 9.29706 2.54064 9.1349C2.6246 8.97003 2.77357 8.71057 2.8765 8.55382C2.97942 8.39706 3.1609 8.14841 3.28007 7.99976C3.39925 7.85111 3.60239 7.62409 3.7324 7.49436C3.8597 7.36733 4.07639 7.16463 4.20911 7.04301L4.45559 6.82409C4.64519 6.06463 4.70207 5.81868 4.70207 5.78625C4.70207 5.75652 4.69123 5.72949 4.6804 5.72949C4.66956 5.72949 4.52872 5.81868 4.3635 5.92679Z" fill="url(#paint3_linear_1087_3593)"/>
<path d="M7.89268 4.74932C7.75184 4.76013 7.60828 4.77634 7.57578 4.78445C7.54057 4.79526 7.48098 4.86824 7.41869 4.97634C7.36181 5.07094 7.26971 5.24661 7.21013 5.36283C7.15325 5.47905 7.10449 5.59256 7.10449 5.61418C7.10449 5.6358 7.12074 5.65202 7.137 5.65202C7.15596 5.65202 7.33743 5.6331 7.54328 5.60878C7.77622 5.58175 8.12291 5.56553 8.44794 5.56553C8.83255 5.56553 9.06007 5.57634 9.27676 5.60878C9.43927 5.6358 9.70742 5.68445 9.86993 5.72229C10.0352 5.75742 10.2952 5.8277 10.4523 5.87905C10.6094 5.9277 10.8694 6.02499 11.0346 6.09526C11.1971 6.16553 11.4192 6.27094 11.5249 6.3277C11.6305 6.38715 11.8634 6.5304 12.0422 6.64661C12.2183 6.76553 12.462 6.94121 12.5839 7.0358C12.7031 7.1331 13.7567 8.16013 14.9214 9.31418C16.0888 10.4709 17.0855 11.4493 17.1397 11.4872C17.221 11.5466 17.2426 11.5547 17.2778 11.5277C17.3022 11.5088 17.3645 11.4304 17.4187 11.352C17.4701 11.2736 17.5433 11.1493 17.5812 11.0763L17.6489 10.9412C17.5433 10.7899 16.6332 9.86553 15.5579 8.78986C14.4853 7.71418 13.4642 6.71148 13.2935 6.56013C13.1202 6.40878 12.871 6.20878 12.7383 6.11688C12.6029 6.02499 12.3726 5.87364 12.2237 5.78175C12.072 5.69256 11.8011 5.54661 11.6142 5.45742C11.4301 5.37094 11.1348 5.24391 10.9561 5.18175C10.7773 5.11688 10.5227 5.0358 10.3873 5.00067C10.2518 4.96283 10.0189 4.91148 9.86993 4.88175C9.72096 4.85202 9.45823 4.81148 9.28759 4.78986C9.11695 4.77094 8.79193 4.74661 8.56441 4.74121C8.33689 4.7331 8.03624 4.73851 7.89268 4.74932Z" fill="url(#paint4_linear_1087_3593)"/>
<path d="M11.9509 0.691576C11.894 0.696981 11.7017 0.718603 11.5257 0.740224C11.3469 0.761846 11.0625 0.810494 10.8919 0.84563C10.7212 0.880765 10.4477 0.951035 10.2851 1.00239C10.1226 1.05103 9.85991 1.14293 9.70281 1.20779C9.54571 1.26995 9.26673 1.39968 9.08255 1.49158C8.89837 1.58347 8.63022 1.73482 8.48937 1.82671C8.34582 1.92131 8.13726 2.06725 8.0235 2.15374C7.90974 2.23752 7.70118 2.40779 7.56034 2.52941C7.41949 2.65104 7.21093 2.84833 7.09988 2.96995C6.98612 3.09158 6.80465 3.29968 6.69631 3.43482C6.58797 3.56995 6.40378 3.8186 6.29002 3.98887C6.17626 4.15914 5.98667 4.48347 5.87291 4.71049C5.75915 4.93752 5.62372 5.23482 5.57226 5.36725C5.5235 5.50239 5.44766 5.72401 5.40162 5.85914C5.35828 5.99428 5.30411 6.18347 5.28244 6.28347C5.25806 6.38347 5.21202 6.6159 5.17951 6.79968C5.14701 6.98347 5.10638 7.30239 5.08742 7.50779C5.06846 7.73212 5.06305 8.04563 5.07388 8.28347C5.08201 8.50239 5.10638 8.82671 5.12805 9.00509C5.15243 9.18077 5.19847 9.46725 5.23639 9.63752C5.27161 9.80779 5.34203 10.0808 5.39078 10.2429C5.44225 10.4051 5.53704 10.6781 5.60476 10.8483C5.67247 11.0186 5.75915 11.2186 5.79707 11.2943C5.83499 11.3673 5.87291 11.4294 5.88374 11.4294C5.89457 11.4294 5.94604 11.3862 5.9975 11.3321C6.04896 11.2781 6.1546 11.1537 6.23314 11.0564C6.31169 10.9564 6.38753 10.8483 6.40378 10.8159C6.42816 10.7673 6.41191 10.6916 6.29273 10.3402C6.21418 10.1078 6.12209 9.80509 6.08688 9.66185C6.05167 9.52131 5.99479 9.25374 5.965 9.06995C5.91353 8.78347 5.90541 8.64022 5.90541 8.07536C5.90541 7.52671 5.91353 7.36455 5.96229 7.08347C5.99208 6.89968 6.04625 6.62671 6.08417 6.47806C6.12209 6.32941 6.19522 6.08347 6.24398 5.93482C6.29544 5.78617 6.39837 5.52671 6.47421 5.35644C6.55275 5.18617 6.68547 4.92401 6.77215 4.77536C6.85611 4.62671 6.99967 4.40239 7.08634 4.28076C7.17572 4.15644 7.34095 3.94293 7.4547 3.80509C7.56846 3.66725 7.76077 3.46185 7.87995 3.35104C8.00183 3.23752 8.21581 3.05103 8.35936 2.93752C8.50021 2.82131 8.73856 2.64833 8.89024 2.55104C9.03921 2.45374 9.33444 2.28887 9.54842 2.18347C9.7624 2.07806 10.0522 1.95103 10.1931 1.89698C10.3366 1.84563 10.6264 1.75914 10.8404 1.70509C11.0544 1.65103 11.355 1.58887 11.5121 1.56455C11.7505 1.52671 11.9292 1.52131 12.6118 1.53212C13.3702 1.54293 13.446 1.54833 13.7494 1.6132C13.9255 1.65104 14.1936 1.7186 14.3426 1.75914C14.4915 1.80239 14.7489 1.89158 14.9114 1.95374C15.0739 2.0186 15.3529 2.14833 15.5316 2.24022C15.7104 2.33212 15.9812 2.49158 16.1383 2.59698C16.2954 2.69968 16.5175 2.86185 16.6313 2.95644C16.7451 3.05104 16.959 3.24563 17.1053 3.39158C17.2543 3.53482 17.4601 3.75104 17.563 3.87266C17.666 3.99428 17.777 4.10509 17.8095 4.12131C17.842 4.14022 18.0695 4.19968 18.3106 4.25644C18.5517 4.3159 18.7765 4.36185 18.8063 4.36185C18.846 4.36185 18.8659 4.34743 18.8659 4.3186C18.8659 4.29158 18.7792 4.14563 18.6736 3.98887C18.5679 3.83212 18.3783 3.57806 18.2537 3.42131C18.1291 3.26725 17.9043 3.0159 17.7554 2.86455C17.6064 2.7132 17.3599 2.48887 17.2109 2.36455C17.062 2.24293 16.7938 2.04293 16.6178 1.92671C16.439 1.80779 16.1356 1.62941 15.946 1.52941C15.7537 1.42941 15.4395 1.28347 15.2472 1.20779C15.0549 1.12941 14.8003 1.03752 14.6784 0.999684C14.5565 0.964548 14.3317 0.902386 14.1746 0.867251C14.0175 0.829413 13.6763 0.772657 13.4108 0.737521C13.0479 0.688873 12.8285 0.675359 12.4953 0.678062C12.2543 0.680765 12.0078 0.68617 11.9509 0.691576Z" fill="url(#paint5_linear_1087_3593)"/>
<path d="M15.983 4.7513C15.8394 4.76481 15.601 4.79184 15.4521 4.81346C15.3031 4.83779 15.0485 4.88644 14.8833 4.92157C14.7208 4.95671 14.3957 5.0513 14.1601 5.12698C13.9272 5.20535 13.613 5.32968 13.464 5.40265C13.3123 5.47562 13.1904 5.5486 13.1904 5.56481C13.1904 5.58103 13.3204 5.70265 13.4748 5.82968C13.6319 5.95941 13.789 6.07292 13.8242 6.08103C13.8676 6.09184 14.0165 6.0513 14.263 5.96211C14.4689 5.88914 14.756 5.79995 14.8968 5.76481C15.0404 5.72968 15.3248 5.67022 15.5306 5.63779C15.7473 5.59995 16.0723 5.56752 16.3053 5.55671C16.5463 5.5486 16.847 5.554 17.0555 5.57292C17.2479 5.58914 17.5566 5.63238 17.7408 5.66481C17.925 5.69995 18.2229 5.77022 18.399 5.81887C18.5778 5.87022 18.873 5.97292 19.0599 6.0459C19.2441 6.12157 19.5176 6.2486 19.6666 6.33238C19.8156 6.41346 20.0837 6.57833 20.2598 6.69725C20.4385 6.81617 20.7229 7.03238 20.8936 7.17833C21.0615 7.32427 21.3215 7.58373 21.4678 7.754C21.614 7.92427 21.828 8.19184 21.9391 8.3486C22.0501 8.50265 22.2126 8.75941 22.2993 8.91346C22.386 9.07022 22.5106 9.32157 22.5756 9.47022C22.6433 9.61887 22.7462 9.89184 22.8085 10.0756C22.8681 10.2594 22.9548 10.5783 22.9954 10.7837C23.0442 11.0162 23.0875 11.3189 23.1065 11.5837C23.1227 11.827 23.1281 12.1918 23.12 12.4351C23.1119 12.6702 23.0848 12.9837 23.0631 13.1324C23.0415 13.281 22.9819 13.554 22.9358 13.7378C22.8898 13.9216 22.795 14.2243 22.7273 14.4081C22.6596 14.5918 22.5512 14.8594 22.4835 14.9999C22.4185 15.1432 22.2939 15.3702 22.2099 15.5054C22.1287 15.6378 21.977 15.8648 21.8768 16.0027C21.7766 16.1432 21.5951 16.3702 21.4732 16.5054C21.3513 16.6432 21.1807 16.8189 21.0967 16.8972C21.0127 16.9756 20.8448 17.127 20.7256 17.2351L20.5062 17.4297C20.3166 18.1756 20.2598 18.4216 20.2598 18.4567C20.2598 18.4918 20.2652 18.5216 20.2733 18.5216C20.2814 18.5216 20.3248 18.5027 20.3708 18.4783C20.4169 18.4567 20.5523 18.3702 20.6742 18.2891C20.7961 18.2081 21.0046 18.0567 21.14 17.954C21.2755 17.8486 21.5653 17.5837 21.7874 17.3621C22.042 17.1081 22.2831 16.8351 22.4483 16.6135C22.5945 16.4216 22.795 16.127 22.8952 15.9567C22.9981 15.7864 23.1417 15.5189 23.2175 15.3621C23.2934 15.2054 23.4098 14.9405 23.4775 14.7702C23.5452 14.5999 23.6509 14.2621 23.7132 14.0216C23.7728 13.781 23.8513 13.4027 23.8838 13.1837C23.9353 12.8432 23.9434 12.6837 23.9434 12.1135C23.9407 11.5432 23.9326 11.3837 23.8811 11.0567C23.8486 10.8432 23.7809 10.5054 23.7321 10.3081C23.6807 10.1081 23.594 9.81346 23.5371 9.6486C23.4802 9.48644 23.3259 9.13238 23.1931 8.86211C23.0523 8.57292 22.8546 8.22427 22.711 8.01076C22.5783 7.81346 22.367 7.52698 22.2397 7.37833C22.1124 7.23238 21.8903 6.99454 21.7468 6.8513C21.6032 6.71076 21.3649 6.49725 21.2159 6.37562C21.0669 6.25671 20.8475 6.09454 20.7256 6.01346C20.6038 5.93238 20.4142 5.81076 20.3004 5.74319C20.1866 5.67563 19.9943 5.57292 19.8724 5.51076C19.7506 5.4513 19.5068 5.34319 19.3307 5.27022C19.152 5.19995 18.8676 5.09995 18.6969 5.0486C18.5263 4.99995 18.3042 4.94049 18.2067 4.91887C18.1065 4.89725 17.8844 4.85671 17.7137 4.82968C17.5431 4.79995 17.2424 4.76481 17.042 4.7513C16.8443 4.73508 16.5815 4.72427 16.4597 4.72698C16.3405 4.72968 16.1238 4.74049 15.983 4.7513Z" fill="url(#paint6_linear_1087_3593)"/>
<path d="M18.8198 13.0892C18.7114 13.2216 18.5977 13.373 18.5679 13.4216L18.5164 13.5162C18.7033 14.0081 18.7981 14.3189 18.8496 14.5243C18.901 14.7297 18.966 15.0378 18.9958 15.2081C19.0283 15.3919 19.0554 15.7027 19.0635 15.9676C19.0717 16.227 19.0662 16.5513 19.05 16.7297C19.0337 16.9 18.9985 17.1676 18.9714 17.3216C18.9444 17.4784 18.8956 17.7054 18.8658 17.8243C18.836 17.9459 18.7737 18.154 18.7304 18.2892C18.687 18.4243 18.5868 18.673 18.511 18.8432C18.4324 19.0135 18.3024 19.2703 18.2239 19.4108C18.1453 19.554 18.0234 19.7567 17.953 19.8621C17.8799 19.9703 17.7526 20.1486 17.6659 20.2621C17.5819 20.3757 17.3544 20.6243 17.1594 20.8162C16.9671 21.0081 16.6881 21.2594 16.5392 21.3757C16.3902 21.4919 16.1627 21.6513 16.0354 21.7324C15.9081 21.8135 15.6101 21.9757 15.3772 22.0919C15.1415 22.2108 14.8219 22.3486 14.6648 22.4C14.5104 22.4513 14.2423 22.527 14.0717 22.5703C13.901 22.6108 13.6518 22.6621 13.5164 22.6838C13.381 22.7054 13.0884 22.7378 12.8691 22.754C12.563 22.7757 12.3788 22.7757 12.0809 22.754C11.8669 22.7378 11.5852 22.7054 11.4552 22.6865C11.3225 22.6648 11.0949 22.6189 10.9514 22.5865C10.8051 22.5513 10.5505 22.4811 10.388 22.427C10.2255 22.3757 9.95735 22.2703 9.79484 22.1946C9.62962 22.1216 9.39126 22.0027 9.26396 21.9324C9.13666 21.8621 8.97956 21.773 8.91456 21.7324C8.84955 21.6946 8.66537 21.5621 8.50015 21.4378C8.33763 21.3162 8.04782 21.0594 7.85551 20.8676C7.6632 20.6784 7.42485 20.4324 7.32463 20.3243L7.14316 20.127C6.39289 19.9432 6.15724 19.8892 6.13558 19.8892C6.11391 19.8892 6.09766 19.9108 6.09766 19.9405C6.09766 19.9676 6.18975 20.127 6.30351 20.2946C6.41456 20.4621 6.60416 20.7189 6.72604 20.8676C6.84522 21.0189 7.09982 21.2919 7.28942 21.4757C7.47902 21.6594 7.74717 21.8973 7.87989 22.0027C8.01532 22.1054 8.27805 22.2919 8.46223 22.4135C8.64641 22.5324 8.99581 22.727 9.23688 22.8459C9.48065 22.9621 9.81109 23.1027 9.9736 23.1594C10.1388 23.2162 10.4395 23.3027 10.6453 23.354C10.8539 23.4054 11.1247 23.4648 11.2548 23.4865C11.3821 23.5081 11.6665 23.5432 11.8858 23.5648C12.1079 23.5865 12.3761 23.6027 12.4817 23.6027C12.5874 23.6027 12.8555 23.5838 13.0749 23.5648C13.297 23.5432 13.6383 23.4946 13.8387 23.4594C14.0364 23.4243 14.3642 23.3486 14.5619 23.2892C14.7623 23.2297 15.0765 23.1216 15.2607 23.0486C15.4449 22.9757 15.7347 22.8432 15.9053 22.7567C16.076 22.6703 16.3739 22.4946 16.5662 22.3676C16.7585 22.2405 17.0131 22.0567 17.135 21.9621C17.2542 21.8648 17.4926 21.6513 17.6605 21.4892C17.8284 21.3243 18.0884 21.0405 18.2374 20.8567C18.3864 20.6703 18.5895 20.3973 18.687 20.2486C18.7873 20.1 18.9552 19.8108 19.0581 19.6054C19.1637 19.4 19.2938 19.1216 19.3506 18.9865C19.4075 18.8513 19.4888 18.6243 19.5321 18.4838C19.5754 18.3405 19.6405 18.1081 19.6757 17.9676C19.7109 17.8243 19.765 17.5703 19.7921 17.4C19.8219 17.2297 19.8598 16.8865 19.8761 16.6378C19.9005 16.2865 19.9005 16.0865 19.8761 15.7351C19.8598 15.4892 19.8219 15.1513 19.7948 14.9892C19.7678 14.8243 19.7082 14.5459 19.6648 14.3703C19.6188 14.1919 19.5321 13.8973 19.4671 13.7108C19.4021 13.527 19.2938 13.2567 19.2233 13.1135C19.1475 12.9513 19.0825 12.8486 19.0608 12.8486C19.0392 12.8486 18.9308 12.9567 18.8198 13.0892Z" fill="url(#paint7_linear_1087_3593)"/>
<defs>
<linearGradient id="paint0_linear_1087_3593" x1="17.7556" y1="18.2696" x2="7.08112" y2="14.7208" gradientUnits="userSpaceOnUse">
<stop stop-color="#D1D1D1" stop-opacity="0"/>
<stop offset="0.514423" stop-color="white"/>
<stop offset="1" stop-color="#D1D1D1" stop-opacity="0"/>
</linearGradient>
<linearGradient id="paint1_linear_1087_3593" x1="11.8447" y1="15.5585" x2="4.29285" y2="14.4997" gradientUnits="userSpaceOnUse">
<stop stop-color="#D1D1D1" stop-opacity="0"/>
<stop offset="0.514423" stop-color="white"/>
<stop offset="1" stop-color="#D1D1D1" stop-opacity="0"/>
</linearGradient>
<linearGradient id="paint2_linear_1087_3593" x1="19.8185" y1="15.3525" x2="12.2592" y2="14.2916" gradientUnits="userSpaceOnUse">
<stop stop-color="#D1D1D1" stop-opacity="0"/>
<stop offset="0.514423" stop-color="white"/>
<stop offset="1" stop-color="#D1D1D1" stop-opacity="0"/>
</linearGradient>
<linearGradient id="paint3_linear_1087_3593" x1="11.6633" y1="16.9912" x2="-0.116687" y2="15.0093" gradientUnits="userSpaceOnUse">
<stop stop-color="#D1D1D1" stop-opacity="0"/>
<stop offset="0.514423" stop-color="white"/>
<stop offset="1" stop-color="#D1D1D1" stop-opacity="0"/>
</linearGradient>
<linearGradient id="paint4_linear_1087_3593" x1="17.5489" y1="10.2936" x2="6.87097" y2="6.72555" gradientUnits="userSpaceOnUse">
<stop stop-color="#D1D1D1" stop-opacity="0"/>
<stop offset="0.514423" stop-color="white"/>
<stop offset="1" stop-color="#D1D1D1" stop-opacity="0"/>
</linearGradient>
<linearGradient id="paint5_linear_1087_3593" x1="18.7351" y1="9.45632" x2="4.30767" y2="5.46357" gradientUnits="userSpaceOnUse">
<stop stop-color="#D1D1D1" stop-opacity="0"/>
<stop offset="0.514423" stop-color="white"/>
<stop offset="1" stop-color="#D1D1D1" stop-opacity="0"/>
</linearGradient>
<linearGradient id="paint6_linear_1087_3593" x1="23.8415" y1="15.99" x2="12.0691" y2="14.011" gradientUnits="userSpaceOnUse">
<stop stop-color="#D1D1D1" stop-opacity="0"/>
<stop offset="0.514423" stop-color="white"/>
<stop offset="1" stop-color="#D1D1D1" stop-opacity="0"/>
</linearGradient>
<linearGradient id="paint7_linear_1087_3593" x1="19.7636" y1="21.6292" x2="5.33644" y2="17.6376" gradientUnits="userSpaceOnUse">
<stop stop-color="#D1D1D1" stop-opacity="0"/>
<stop offset="0.514423" stop-color="white"/>
<stop offset="1" stop-color="#D1D1D1" stop-opacity="0"/>
</linearGradient>
</defs>
</svg>
