<svg width="44" height="661" viewBox="4 0 44 661" fill="none" xmlns="http://www.w3.org/2000/svg">
<path d="M21.2797 30.7518C21.2499 30.7843 21.1687 30.9032 21.0956 31.0167C21.0251 31.1302 20.9601 31.2545 20.952 31.2924C20.9385 31.3572 20.9899 31.4194 21.4991 31.9491C21.8079 32.2708 22.7884 33.2518 23.6768 34.1275C24.5652 35.0032 25.3913 35.8005 25.5105 35.8978C25.6324 35.9924 25.8816 36.1735 26.0685 36.2951C26.2526 36.4194 26.537 36.5897 26.6996 36.6735C26.8648 36.76 27.1194 36.8816 27.2684 36.9437C27.4173 37.0059 27.6855 37.1032 27.8642 37.16C28.0403 37.2194 28.3491 37.3005 28.5495 37.3464C28.7472 37.3897 29.0262 37.4437 29.1698 37.4654C29.3106 37.487 29.6763 37.5113 29.9823 37.5194C30.3236 37.5275 30.6324 37.5221 30.7841 37.5059C30.952 37.4843 31.0441 37.4627 31.0766 37.4302C31.101 37.4059 31.2039 37.2302 31.3014 37.0383C31.3989 36.8464 31.4802 36.6708 31.4802 36.6437C31.4829 36.6194 31.4666 36.6005 31.4504 36.6005C31.4314 36.6005 31.296 36.6194 31.147 36.641C30.952 36.6708 30.6784 36.6843 30.1774 36.687C29.5517 36.6897 29.4433 36.6843 29.1427 36.6302C28.9585 36.5978 28.6958 36.5437 28.5603 36.5086C28.4276 36.4762 28.1784 36.4005 28.0132 36.3437C27.8453 36.2843 27.5907 36.187 27.4444 36.1221C27.2982 36.0572 27.0679 35.9437 26.9325 35.8654C26.7971 35.7897 26.5587 35.6383 26.4043 35.5275C26.2472 35.4194 26.0197 35.2464 25.9005 35.1437C25.7787 35.041 24.7115 33.9978 23.5278 32.8248C22.3442 31.6518 21.3664 30.6924 21.3556 30.6924C21.342 30.6924 21.3095 30.7194 21.2797 30.7518Z" fill="url(#paint0_linear_1087_3591)"/>
<path d="M23.1673 26.6516C22.2355 27.5759 21.2279 28.5894 20.9273 28.9002C20.6266 29.2137 20.2881 29.5921 20.1743 29.7434C20.0606 29.8948 19.8953 30.1326 19.8087 30.2732C19.722 30.411 19.5811 30.6651 19.4945 30.8353C19.4078 31.0056 19.2778 31.2948 19.2047 31.4786C19.1315 31.6651 19.0313 31.9543 18.9826 32.1245C18.9338 32.2948 18.8634 32.584 18.8309 32.7705C18.7957 32.9543 18.755 33.2029 18.7415 33.3245C18.7252 33.4434 18.7063 33.7516 18.6982 34.0083C18.69 34.2732 18.6954 34.5921 18.709 34.7543C18.7334 34.9948 18.7469 35.0489 18.7984 35.0948C18.8309 35.1272 19.0042 35.2272 19.1857 35.3218C19.3672 35.4137 19.5378 35.4894 19.5676 35.4894C19.6028 35.4894 19.6191 35.4732 19.6191 35.4326C19.6191 35.4002 19.5974 35.2516 19.573 35.1029C19.5432 34.9029 19.5297 34.6651 19.5297 34.1867C19.5297 33.6813 19.5378 33.4813 19.5757 33.2597C19.6001 33.1029 19.6516 32.8489 19.6841 32.6921C19.7193 32.5353 19.7789 32.3164 19.8168 32.2029C19.8547 32.0894 19.9305 31.8786 19.9847 31.738C20.0416 31.5948 20.1635 31.3353 20.2556 31.157C20.3477 30.9813 20.5075 30.7083 20.6131 30.5516C20.716 30.3948 20.8948 30.157 21.0058 30.0218C21.1196 29.8867 22.1597 28.8272 23.3162 27.6624C24.4755 26.5002 25.4479 25.5137 25.4777 25.4705L25.5346 25.3921C25.4073 25.2651 25.2718 25.1705 25.1499 25.0975C25.0281 25.0245 24.9143 24.9678 24.8953 24.9678C24.8764 24.9678 24.099 25.7245 23.1673 26.6516Z" fill="url(#paint1_linear_1087_3591)"/>
<path d="M32.5929 24.805C32.5929 24.832 32.6118 24.9914 32.6362 25.1617C32.6687 25.3806 32.6823 25.6482 32.6823 26.0752C32.6823 26.5293 32.6714 26.7563 32.6362 26.9779C32.6118 27.1428 32.5522 27.4374 32.5035 27.6374C32.4547 27.8347 32.3626 28.1482 32.2922 28.332C32.2245 28.5185 32.0864 28.8293 31.9862 29.0293C31.8859 29.2266 31.7288 29.5104 31.6368 29.6563C31.5447 29.8023 31.3524 30.0563 31.2115 30.2239C31.068 30.3887 30.0252 31.459 28.893 32.6023C27.7608 33.7428 26.7966 34.7212 26.7478 34.7752L26.6611 34.8752C26.7613 34.9698 26.8941 35.0617 27.0241 35.1401C27.1514 35.2185 27.276 35.2833 27.3031 35.2833C27.3274 35.2833 28.2944 34.3401 29.5512 33.086C31.16 31.4806 31.8074 30.8158 31.9509 30.6293C32.0593 30.486 32.2218 30.2536 32.3166 30.1131C32.4087 29.9698 32.5685 29.6969 32.6687 29.5077C32.7662 29.3158 32.9017 29.0374 32.9639 28.886C33.0262 28.7374 33.1183 28.4887 33.1698 28.332C33.2186 28.1779 33.2944 27.8752 33.3377 27.6617C33.3811 27.4482 33.4352 27.1239 33.4596 26.9401C33.4867 26.7347 33.5057 26.4158 33.5084 26.1158C33.5084 25.8455 33.5002 25.532 33.4867 25.4185C33.4704 25.2563 33.4515 25.2023 33.4082 25.1617C33.3757 25.132 33.1969 25.032 33.01 24.9347C32.8231 24.8401 32.6525 24.7617 32.6308 24.7617C32.6118 24.7617 32.5929 24.7806 32.5929 24.805Z" fill="url(#paint2_linear_1087_3591)"/>
<path d="M17.9885 23.9268C17.826 24.0349 17.6066 24.189 17.4982 24.27C17.3926 24.3511 17.1895 24.5214 17.0459 24.6484C16.9051 24.7754 16.6803 25.0025 16.5475 25.1484C16.4148 25.2971 16.209 25.5457 16.0925 25.7025C15.9733 25.8592 15.7864 26.1376 15.6754 26.3214C15.5643 26.5052 15.4072 26.8025 15.326 26.9781C15.2447 27.1565 15.1364 27.4187 15.0822 27.5592C15.0307 27.7025 14.9468 27.9565 14.898 28.1268C14.8493 28.2971 14.7816 28.5917 14.7464 28.7835C14.7111 28.9754 14.6705 29.2592 14.657 29.416C14.6434 29.5727 14.6299 29.8971 14.6299 30.1376C14.6299 30.3808 14.6461 30.7322 14.6678 30.9241C14.6868 31.116 14.7328 31.4187 14.7707 31.5944C14.8059 31.7727 14.8709 32.0403 14.9143 32.189C14.9576 32.3376 15.0389 32.5862 15.0985 32.743C15.1581 32.8998 15.2664 33.1538 15.3395 33.3106C15.4127 33.4673 15.54 33.7106 15.6239 33.8511C15.7079 33.9944 15.8542 34.2268 15.9517 34.3673C16.0465 34.5106 16.2252 34.743 16.3444 34.8835C16.4636 35.0268 16.6423 35.2241 16.7399 35.3241C16.8374 35.4241 17.0215 35.5971 17.1516 35.7079C17.2789 35.816 17.4928 35.9862 17.6283 36.0835C17.7637 36.1808 17.9966 36.3349 18.1456 36.4295C18.2946 36.5241 18.5383 36.6619 18.6873 36.7376C18.8363 36.8133 19.0936 36.9295 19.2561 36.9944C19.4213 37.0592 19.7111 37.1592 19.9034 37.216C20.0958 37.2727 20.3693 37.343 20.5102 37.37C20.6537 37.3998 20.8839 37.4403 21.0275 37.4619C21.1683 37.4862 21.5177 37.5106 21.8021 37.5187C22.1028 37.5268 22.4549 37.5214 22.6418 37.5052C22.8206 37.489 23.0698 37.4592 23.1971 37.4376C23.3271 37.4133 23.5654 37.3673 23.7279 37.3295C23.8904 37.2944 24.1694 37.216 24.3482 37.1592C24.527 37.1025 24.8059 36.9998 24.9685 36.9322C25.131 36.8646 25.2989 36.7835 25.3368 36.7538C25.3964 36.7106 25.4018 36.6944 25.3747 36.6592C25.3585 36.6349 25.2339 36.5268 25.0985 36.4187C24.963 36.3106 24.8303 36.2052 24.8005 36.1863C24.7572 36.1592 24.6786 36.1781 24.2453 36.3241C23.9338 36.4295 23.5925 36.5241 23.3542 36.57C23.1402 36.6133 22.8531 36.6592 22.7149 36.6754C22.5741 36.689 22.2572 36.7025 22.008 36.7025C21.748 36.7025 21.4284 36.6862 21.2523 36.6619C21.0871 36.6403 20.8108 36.5917 20.6402 36.5565C20.4695 36.5214 20.1662 36.4376 19.9685 36.3754C19.768 36.3106 19.4728 36.1971 19.3076 36.1241C19.1451 36.0511 18.8715 35.9079 18.7008 35.8079C18.5302 35.7052 18.3189 35.5727 18.2323 35.5106C18.1456 35.4511 17.9533 35.2998 17.807 35.1808C17.6608 35.0592 17.4143 34.8268 17.2599 34.6646C17.1028 34.5025 16.9105 34.2808 16.8319 34.1754C16.7507 34.0673 16.599 33.8538 16.4961 33.6971C16.3932 33.5403 16.2333 33.2619 16.144 33.0781C16.0519 32.8944 15.9354 32.6322 15.8839 32.4971C15.8298 32.3646 15.7485 32.1079 15.6998 31.9295C15.651 31.7538 15.5887 31.4917 15.5589 31.3511C15.5318 31.2079 15.4966 30.9646 15.4831 30.8079C15.4695 30.6538 15.4587 30.3403 15.4587 30.1133C15.456 29.8863 15.4695 29.5727 15.4858 29.416C15.4993 29.2592 15.54 28.9998 15.5752 28.8349C15.6104 28.6727 15.6727 28.4106 15.7187 28.2565C15.7648 28.0998 15.8487 27.8511 15.9083 27.7025C15.9679 27.5511 16.0844 27.2971 16.1656 27.1349C16.2496 26.97 16.3986 26.7106 16.5015 26.5538C16.6044 26.3971 16.7859 26.1484 16.9051 25.9998C17.0242 25.8511 17.2274 25.6241 17.3574 25.4944C17.4847 25.3673 17.7014 25.1646 17.8341 25.043L18.0806 24.8241C18.2702 24.0646 18.3271 23.8187 18.3271 23.7862C18.3271 23.7565 18.3162 23.7295 18.3054 23.7295C18.2946 23.7295 18.1537 23.8187 17.9885 23.9268Z" fill="url(#paint3_linear_1087_3591)"/>
<path d="M21.5177 22.7493C21.3768 22.7601 21.2333 22.7763 21.2008 22.7845C21.1656 22.7953 21.106 22.8682 21.0437 22.9763C20.9868 23.0709 20.8947 23.2466 20.8351 23.3628C20.7782 23.479 20.7295 23.5926 20.7295 23.6142C20.7295 23.6358 20.7457 23.652 20.762 23.652C20.781 23.652 20.9624 23.6331 21.1683 23.6088C21.4012 23.5817 21.7479 23.5655 22.0729 23.5655C22.4576 23.5655 22.6851 23.5763 22.9018 23.6088C23.0643 23.6358 23.3324 23.6845 23.4949 23.7223C23.6602 23.7574 23.9202 23.8277 24.0773 23.879C24.2344 23.9277 24.4944 24.025 24.6596 24.0953C24.8221 24.1655 25.0442 24.2709 25.1499 24.3277C25.2555 24.3872 25.4884 24.5304 25.6672 24.6466C25.8433 24.7655 26.087 24.9412 26.2089 25.0358C26.3281 25.1331 27.3817 26.1601 28.5464 27.3142C29.7138 28.4709 30.7105 29.4493 30.7647 29.4872C30.846 29.5466 30.8676 29.5547 30.9028 29.5277C30.9272 29.5088 30.9895 29.4304 31.0437 29.352C31.0951 29.2736 31.1683 29.1493 31.2062 29.0763L31.2739 28.9412C31.1683 28.7899 30.2582 27.8655 29.1829 26.7899C28.1103 25.7142 27.0892 24.7115 26.9185 24.5601C26.7452 24.4088 26.496 24.2088 26.3633 24.1169C26.2279 24.025 25.9976 23.8736 25.8487 23.7817C25.697 23.6926 25.4261 23.5466 25.2392 23.4574C25.0551 23.3709 24.7598 23.2439 24.5811 23.1817C24.4023 23.1169 24.1477 23.0358 24.0123 23.0007C23.8768 22.9628 23.6439 22.9115 23.4949 22.8817C23.346 22.852 23.0832 22.8115 22.9126 22.7899C22.742 22.7709 22.4169 22.7466 22.1894 22.7412C21.9619 22.7331 21.6612 22.7385 21.5177 22.7493Z" fill="url(#paint4_linear_1087_3591)"/>
<path d="M25.5759 18.6916C25.519 18.697 25.3267 18.7186 25.1507 18.7402C24.9719 18.7618 24.6875 18.8105 24.5169 18.8456C24.3462 18.8808 24.0727 18.951 23.9101 19.0024C23.7476 19.051 23.4849 19.1429 23.3278 19.2078C23.1707 19.27 22.8917 19.3997 22.7075 19.4916C22.5234 19.5835 22.2552 19.7348 22.1144 19.8267C21.9708 19.9213 21.7623 20.0673 21.6485 20.1537C21.5347 20.2375 21.3262 20.4078 21.1853 20.5294C21.0445 20.651 20.8359 20.8483 20.7249 20.97C20.6111 21.0916 20.4297 21.2997 20.3213 21.4348C20.213 21.57 20.0288 21.8186 19.915 21.9889C19.8013 22.1591 19.6117 22.4835 19.4979 22.7105C19.3841 22.9375 19.2487 23.2348 19.1973 23.3673C19.1485 23.5024 19.0727 23.724 19.0266 23.8591C18.9833 23.9943 18.9291 24.1835 18.9074 24.2835C18.8831 24.3835 18.837 24.6159 18.8045 24.7997C18.772 24.9835 18.7314 25.3024 18.7124 25.5078C18.6935 25.7321 18.688 26.0456 18.6989 26.2835C18.707 26.5024 18.7314 26.8267 18.7531 27.0051C18.7774 27.1808 18.8235 27.4673 18.8614 27.6375C18.8966 27.8078 18.967 28.0808 19.0158 28.2429C19.0672 28.4051 19.162 28.6781 19.2298 28.8483C19.2975 29.0186 19.3841 29.2186 19.4221 29.2943C19.46 29.3673 19.4979 29.4294 19.5087 29.4294C19.5196 29.4294 19.571 29.3862 19.6225 29.3321C19.674 29.2781 19.7796 29.1537 19.8581 29.0564C19.9367 28.9564 20.0125 28.8483 20.0288 28.8159C20.0532 28.7673 20.0369 28.6916 19.9177 28.3402C19.8392 28.1078 19.7471 27.8051 19.7119 27.6618C19.6767 27.5213 19.6198 27.2537 19.59 27.07C19.5385 26.7835 19.5304 26.6402 19.5304 26.0754C19.5304 25.5267 19.5385 25.3645 19.5873 25.0835C19.6171 24.8997 19.6713 24.6267 19.7092 24.4781C19.7471 24.3294 19.8202 24.0835 19.869 23.9348C19.9204 23.7862 20.0234 23.5267 20.0992 23.3564C20.1778 23.1862 20.3105 22.924 20.3971 22.7754C20.4811 22.6267 20.6247 22.4024 20.7113 22.2808C20.8007 22.1564 20.9659 21.9429 21.0797 21.8051C21.1935 21.6673 21.3858 21.4618 21.5049 21.351C21.6268 21.2375 21.8408 21.051 21.9844 20.9375C22.1252 20.8213 22.3636 20.6483 22.5152 20.551C22.6642 20.4537 22.9594 20.2889 23.1734 20.1835C23.3874 20.0781 23.6772 19.951 23.8181 19.897C23.9616 19.8456 24.2514 19.7591 24.4654 19.7051C24.6794 19.651 24.98 19.5889 25.1371 19.5645C25.3755 19.5267 25.5542 19.5213 26.2368 19.5321C26.9952 19.5429 27.071 19.5483 27.3744 19.6132C27.5505 19.651 27.8186 19.7186 27.9676 19.7591C28.1165 19.8024 28.3739 19.8916 28.5364 19.9537C28.6989 20.0186 28.9779 20.1483 29.1566 20.2402C29.3354 20.3321 29.6062 20.4916 29.7633 20.597C29.9204 20.6997 30.1425 20.8618 30.2563 20.9564C30.3701 21.051 30.584 21.2456 30.7303 21.3916C30.8793 21.5348 31.0851 21.751 31.188 21.8727C31.291 21.9943 31.402 22.1051 31.4345 22.1213C31.467 22.1402 31.6945 22.1997 31.9356 22.2564C32.1767 22.3159 32.4015 22.3618 32.4313 22.3618C32.471 22.3618 32.4909 22.3474 32.4909 22.3186C32.4909 22.2916 32.4042 22.1456 32.2986 21.9889C32.1929 21.8321 32.0033 21.5781 31.8787 21.4213C31.7541 21.2673 31.5293 21.0159 31.3804 20.8645C31.2314 20.7132 30.9849 20.4889 30.8359 20.3645C30.687 20.2429 30.4188 20.0429 30.2428 19.9267C30.064 19.8078 29.7606 19.6294 29.571 19.5294C29.3787 19.4294 29.0645 19.2835 28.8722 19.2078C28.6799 19.1294 28.4253 19.0375 28.3034 18.9997C28.1815 18.9645 27.9567 18.9024 27.7996 18.8673C27.6425 18.8294 27.3013 18.7727 27.0358 18.7375C26.6729 18.6889 26.4535 18.6754 26.1203 18.6781C25.8793 18.6808 25.6328 18.6862 25.5759 18.6916Z" fill="url(#paint5_linear_1087_3591)"/>
<path d="M29.608 22.7513C29.4644 22.7648 29.226 22.7918 29.0771 22.8135C28.9281 22.8378 28.6735 22.8864 28.5083 22.9216C28.3458 22.9567 28.0207 23.0513 27.7851 23.127C27.5522 23.2054 27.238 23.3297 27.089 23.4027C26.9373 23.4756 26.8154 23.5486 26.8154 23.5648C26.8154 23.581 26.9454 23.7027 27.0998 23.8297C27.2569 23.9594 27.414 24.0729 27.4492 24.081C27.4926 24.0918 27.6415 24.0513 27.888 23.9621C28.0939 23.8891 28.381 23.7999 28.5218 23.7648C28.6654 23.7297 28.9498 23.6702 29.1556 23.6378C29.3723 23.5999 29.6973 23.5675 29.9303 23.5567C30.1713 23.5486 30.472 23.554 30.6805 23.5729C30.8729 23.5891 31.1816 23.6324 31.3658 23.6648C31.55 23.6999 31.8479 23.7702 32.024 23.8189C32.2028 23.8702 32.498 23.9729 32.6849 24.0459C32.8691 24.1216 33.1426 24.2486 33.2916 24.3324C33.4406 24.4135 33.7087 24.5783 33.8848 24.6972C34.0635 24.8162 34.3479 25.0324 34.5186 25.1783C34.6865 25.3243 34.9465 25.5837 35.0928 25.754C35.239 25.9243 35.453 26.1918 35.5641 26.3486C35.6751 26.5027 35.8376 26.7594 35.9243 26.9135C36.011 27.0702 36.1356 27.3216 36.2006 27.4702C36.2683 27.6189 36.3712 27.8918 36.4335 28.0756C36.4931 28.2594 36.5798 28.5783 36.6204 28.7837C36.6692 29.0162 36.7125 29.3189 36.7315 29.5837C36.7477 29.827 36.7531 30.1918 36.745 30.4351C36.7369 30.6702 36.7098 30.9837 36.6881 31.1324C36.6665 31.281 36.6069 31.554 36.5608 31.7378C36.5148 31.9216 36.42 32.2243 36.3523 32.4081C36.2846 32.5918 36.1762 32.8594 36.1085 32.9999C36.0435 33.1432 35.9189 33.3702 35.8349 33.5054C35.7537 33.6378 35.602 33.8648 35.5018 34.0027C35.4016 34.1432 35.2201 34.3702 35.0982 34.5054C34.9763 34.6432 34.8057 34.8189 34.7217 34.8972C34.6377 34.9756 34.4698 35.127 34.3506 35.2351L34.1312 35.4297C33.9416 36.1756 33.8848 36.4216 33.8848 36.4567C33.8848 36.4918 33.8902 36.5216 33.8983 36.5216C33.9064 36.5216 33.9498 36.5027 33.9958 36.4783C34.0419 36.4567 34.1773 36.3702 34.2992 36.2891C34.4211 36.2081 34.6296 36.0567 34.765 35.954C34.9005 35.8486 35.1903 35.5837 35.4124 35.3621C35.667 35.1081 35.9081 34.8351 36.0733 34.6135C36.2195 34.4216 36.42 34.127 36.5202 33.9567C36.6231 33.7864 36.7667 33.5189 36.8425 33.3621C36.9184 33.2054 37.0348 32.9405 37.1025 32.7702C37.1702 32.5999 37.2759 32.2621 37.3382 32.0216C37.3978 31.781 37.4763 31.4027 37.5088 31.1837C37.5603 30.8432 37.5684 30.6837 37.5684 30.1135C37.5657 29.5432 37.5576 29.3837 37.5061 29.0567C37.4736 28.8432 37.4059 28.5054 37.3571 28.3081C37.3057 28.1081 37.219 27.8135 37.1621 27.6486C37.1052 27.4864 36.9509 27.1324 36.8181 26.8621C36.6773 26.5729 36.4796 26.2243 36.336 26.0108C36.2033 25.8135 35.992 25.527 35.8647 25.3783C35.7374 25.2324 35.5153 24.9945 35.3718 24.8513C35.2282 24.7108 34.9899 24.4972 34.8409 24.3756C34.6919 24.2567 34.4725 24.0945 34.3506 24.0135C34.2288 23.9324 34.0392 23.8108 33.9254 23.7432C33.8116 23.6756 33.6193 23.5729 33.4974 23.5108C33.3756 23.4513 33.1318 23.3432 32.9557 23.2702C32.777 23.1999 32.4926 23.0999 32.3219 23.0486C32.1513 22.9999 31.9292 22.9405 31.8317 22.9189C31.7315 22.8972 31.5094 22.8567 31.3387 22.8297C31.1681 22.7999 30.8674 22.7648 30.667 22.7513C30.4693 22.7351 30.2065 22.7243 30.0847 22.727C29.9655 22.7297 29.7488 22.7405 29.608 22.7513Z" fill="url(#paint6_linear_1087_3591)"/>
<path d="M32.4448 31.0892C32.3364 31.2216 32.2227 31.373 32.1929 31.4216L32.1414 31.5162C32.3283 32.0081 32.4231 32.3189 32.4746 32.5243C32.526 32.7297 32.591 33.0378 32.6208 33.2081C32.6533 33.3919 32.6804 33.7027 32.6885 33.9676C32.6967 34.227 32.6912 34.5513 32.675 34.7297C32.6587 34.9 32.6235 35.1676 32.5964 35.3216C32.5694 35.4784 32.5206 35.7054 32.4908 35.8243C32.461 35.9459 32.3987 36.154 32.3554 36.2892C32.312 36.4243 32.2118 36.673 32.136 36.8432C32.0574 37.0135 31.9274 37.2703 31.8489 37.4108C31.7703 37.554 31.6484 37.7567 31.578 37.8621C31.5049 37.9703 31.3776 38.1486 31.2909 38.2621C31.2069 38.3757 30.9794 38.6243 30.7844 38.8162C30.5921 39.0081 30.3131 39.2594 30.1642 39.3757C30.0152 39.4919 29.7877 39.6513 29.6604 39.7324C29.5331 39.8135 29.2351 39.9757 29.0022 40.0919C28.7665 40.2108 28.4469 40.3486 28.2898 40.4C28.1354 40.4513 27.8673 40.527 27.6967 40.5703C27.526 40.6108 27.2768 40.6621 27.1414 40.6838C27.006 40.7054 26.7134 40.7378 26.4941 40.754C26.188 40.7757 26.0038 40.7757 25.7059 40.754C25.4919 40.7378 25.2102 40.7054 25.0802 40.6865C24.9475 40.6648 24.7199 40.6189 24.5764 40.5865C24.4301 40.5513 24.1755 40.4811 24.013 40.427C23.8505 40.3757 23.5824 40.2703 23.4198 40.1946C23.2546 40.1216 23.0163 40.0027 22.889 39.9324C22.7617 39.8621 22.6046 39.773 22.5396 39.7324C22.4746 39.6946 22.2904 39.5621 22.1251 39.4378C21.9626 39.3162 21.6728 39.0594 21.4805 38.8676C21.2882 38.6784 21.0498 38.4324 20.9496 38.3243L20.7682 38.127C20.0179 37.9432 19.7822 37.8892 19.7606 37.8892C19.7389 37.8892 19.7227 37.9108 19.7227 37.9405C19.7227 37.9676 19.8147 38.127 19.9285 38.2946C20.0396 38.4621 20.2292 38.7189 20.351 38.8676C20.4702 39.0189 20.7248 39.2919 20.9144 39.4757C21.104 39.6594 21.3722 39.8973 21.5049 40.0027C21.6403 40.1054 21.903 40.2919 22.0872 40.4135C22.2714 40.5324 22.6208 40.727 22.8619 40.8459C23.1056 40.9621 23.4361 41.1027 23.5986 41.1594C23.7638 41.2162 24.0645 41.3027 24.2703 41.354C24.4789 41.4054 24.7497 41.4648 24.8798 41.4865C25.0071 41.5081 25.2915 41.5432 25.5108 41.5648C25.7329 41.5865 26.0011 41.6027 26.1067 41.6027C26.2124 41.6027 26.4805 41.5838 26.6999 41.5648C26.922 41.5432 27.2633 41.4946 27.4637 41.4594C27.6614 41.4243 27.9892 41.3486 28.1869 41.2892C28.3873 41.2297 28.7015 41.1216 28.8857 41.0486C29.0699 40.9757 29.3597 40.8432 29.5303 40.7567C29.701 40.6703 29.9989 40.4946 30.1912 40.3676C30.3835 40.2405 30.6381 40.0567 30.76 39.9621C30.8792 39.8648 31.1176 39.6513 31.2855 39.4892C31.4534 39.3243 31.7134 39.0405 31.8624 38.8567C32.0114 38.6703 32.2145 38.3973 32.312 38.2486C32.4123 38.1 32.5802 37.8108 32.6831 37.6054C32.7887 37.4 32.9188 37.1216 32.9756 36.9865C33.0325 36.8513 33.1138 36.6243 33.1571 36.4838C33.2004 36.3405 33.2655 36.1081 33.3007 35.9676C33.3359 35.8243 33.39 35.5703 33.4171 35.4C33.4469 35.2297 33.4848 34.8865 33.5011 34.6378C33.5255 34.2865 33.5255 34.0865 33.5011 33.7351C33.4848 33.4892 33.4469 33.1513 33.4198 32.9892C33.3928 32.8243 33.3332 32.5459 33.2898 32.3703C33.2438 32.1919 33.1571 31.8973 33.0921 31.7108C33.0271 31.527 32.9188 31.2567 32.8483 31.1135C32.7725 30.9513 32.7075 30.8486 32.6858 30.8486C32.6642 30.8486 32.5558 30.9567 32.4448 31.0892Z" fill="url(#paint7_linear_1087_3591)"/>
<g filter="url(#filter0_d_1087_3591)">
<path d="M4.25 58L48 58.2847" stroke="url(#paint8_linear_1087_3591)" stroke-width="0.5" stroke-linecap="round" shape-rendering="crispEdges"/>
</g>
<path d="M19.7373 71.8752C19.7373 70.7667 19.7373 70.2124 19.9942 69.7252C20.2511 69.238 20.7335 68.8772 21.6983 68.1558L22.6343 67.456C24.3782 66.152 25.2502 65.5 26.2889 65.5C27.3276 65.5 28.1995 66.152 29.9435 67.456L30.8794 68.1558C31.8443 68.8772 32.3267 69.238 32.5836 69.7252C32.8405 70.2124 32.8405 70.7667 32.8405 71.8752V75.3373C32.8405 76.8769 32.8405 77.6466 32.2922 78.1249C31.744 78.6032 30.8615 78.6032 29.0967 78.6032H23.4811C21.7162 78.6032 20.8338 78.6032 20.2856 78.1249C19.7373 77.6466 19.7373 76.8769 19.7373 75.3373V71.8752Z" stroke="#C7C7CC" stroke-width="0.637971"/>
<path d="M28.1761 78.4984V75.1389C28.1761 74.8799 27.9661 74.6699 27.7071 74.6699H24.8166C24.5576 74.6699 24.3477 74.8799 24.3477 75.1389V78.4984" stroke="#C7C7CC" stroke-width="0.637971" stroke-linecap="round" stroke-linejoin="round"/>
<path opacity="0.99" fill-rule="evenodd" clip-rule="evenodd" d="M27.5127 105.844C31.4242 105.841 31.6163 105.843 31.8315 105.891C31.9554 105.918 32.1521 105.977 32.2687 106.021C32.3853 106.066 32.588 106.173 32.7191 106.26C32.8543 106.348 33.0437 106.507 33.157 106.625C33.2663 106.739 33.412 106.923 33.4796 107.032C33.5478 107.141 33.6419 107.326 33.6882 107.443C33.7346 107.559 33.7949 107.762 33.822 107.893C33.8684 108.118 33.8711 108.319 33.8711 111.365C33.8704 114.428 33.8677 114.61 33.8207 114.823C33.7936 114.947 33.7346 115.144 33.6902 115.26C33.6452 115.377 33.5379 115.58 33.4518 115.711C33.3637 115.845 33.204 116.036 33.0868 116.149C32.9722 116.259 32.7768 116.411 32.6529 116.487C32.529 116.563 32.3323 116.66 32.2157 116.702C32.0991 116.744 31.9322 116.793 31.8448 116.811C31.7295 116.834 31.6606 116.836 31.5931 116.815C31.5421 116.8 31.4672 116.751 31.4275 116.707C31.3871 116.661 31.3473 116.581 31.3387 116.526C31.3294 116.471 31.3294 116.387 31.3387 116.34C31.3473 116.292 31.395 116.21 31.444 116.155C31.493 116.1 31.5792 116.036 31.6361 116.012C31.6924 115.988 31.8282 115.935 31.9375 115.894C32.0468 115.853 32.2071 115.77 32.2932 115.712C32.38 115.653 32.5138 115.533 32.5913 115.446C32.6695 115.358 32.7801 115.191 32.8384 115.075C32.8967 114.958 32.9616 114.779 32.9834 114.677C33.0172 114.519 33.0232 114.034 33.0232 111.352C33.0232 108.696 33.0172 108.183 32.9841 108.026C32.9629 107.924 32.8953 107.739 32.8344 107.615C32.749 107.443 32.6754 107.342 32.5224 107.189C32.3694 107.036 32.2687 106.962 32.0965 106.877C31.9726 106.816 31.7878 106.748 31.6858 106.727C31.5275 106.694 30.9121 106.688 27.5127 106.688C24.1133 106.688 23.4979 106.694 23.3396 106.727C23.2376 106.748 23.0528 106.816 22.9289 106.877C22.756 106.962 22.6573 107.035 22.5043 107.189C22.3745 107.32 22.2718 107.455 22.2089 107.575C22.1559 107.677 22.091 107.826 22.0651 107.907C22.0227 108.036 22.0161 108.199 22.0029 109.355C21.9883 110.631 21.987 110.661 21.932 110.733C21.9009 110.775 21.8439 110.832 21.8041 110.861C21.7518 110.9 21.6909 110.914 21.5776 110.914C21.461 110.914 21.4041 110.9 21.3477 110.858C21.3067 110.827 21.2491 110.77 21.2199 110.73C21.1689 110.661 21.1669 110.611 21.1596 109.408C21.1537 108.347 21.159 108.125 21.1954 107.933C21.2186 107.809 21.2729 107.612 21.3146 107.496C21.357 107.379 21.4537 107.182 21.5299 107.059C21.6061 106.935 21.7584 106.74 21.8684 106.625C21.9777 106.511 22.1632 106.353 22.2797 106.275C22.3963 106.198 22.5752 106.099 22.6772 106.056C22.7792 106.012 22.958 105.952 23.0746 105.922C23.1912 105.893 23.3164 105.864 23.3528 105.858C23.3893 105.851 25.2612 105.846 27.5127 105.844ZM21.6173 112.21C21.6902 112.217 21.7783 112.244 21.8128 112.27C21.8472 112.297 21.9009 112.353 21.932 112.394C21.9863 112.466 21.989 112.5 22.0029 113.56C22.0161 114.508 22.0241 114.67 22.0651 114.797C22.0916 114.877 22.1559 115.026 22.2089 115.128C22.2718 115.25 22.3738 115.382 22.5043 115.513C22.6566 115.665 22.7573 115.739 22.9289 115.824C23.0528 115.886 23.2376 115.953 23.3396 115.975C23.4893 116.007 23.7741 116.015 24.8167 116.015C25.8269 116.016 26.127 116.023 26.1945 116.051C26.2528 116.075 26.4767 116.31 26.89 116.78C27.2252 117.162 27.5054 117.474 27.5127 117.474C27.52 117.474 27.8002 117.162 28.1353 116.78C28.5765 116.277 28.7706 116.075 28.8375 116.048C28.9077 116.02 29.0342 116.013 29.3588 116.02C29.747 116.028 29.7947 116.034 29.8622 116.085C29.9033 116.116 29.9609 116.173 29.9901 116.213C30.0291 116.265 30.0431 116.326 30.0431 116.44C30.0431 116.556 30.0291 116.613 29.9868 116.669C29.9556 116.71 29.8987 116.768 29.8589 116.797C29.7993 116.842 29.739 116.852 29.1952 116.864L28.4798 117.676C27.9909 118.232 27.7372 118.501 27.6783 118.524C27.6306 118.544 27.5564 118.56 27.5127 118.56C27.469 118.56 27.3941 118.544 27.3471 118.524C27.2875 118.5 27.0411 118.237 25.8434 116.864L24.565 116.856C23.3641 116.848 23.2747 116.844 23.0879 116.793C22.9786 116.762 22.7997 116.699 22.6904 116.653C22.5811 116.606 22.3963 116.505 22.2797 116.428C22.1632 116.35 21.9784 116.192 21.8684 116.078C21.7591 115.963 21.6134 115.78 21.5458 115.671C21.4776 115.562 21.3842 115.377 21.3378 115.26C21.2914 115.144 21.2312 114.947 21.204 114.823C21.161 114.625 21.155 114.473 21.1543 113.571C21.1537 112.905 21.1636 112.518 21.1821 112.471C21.1974 112.431 21.2305 112.369 21.2557 112.333C21.2808 112.298 21.3424 112.253 21.3928 112.233C21.4451 112.214 21.5425 112.204 21.6173 112.21ZM28.7713 109.204C28.8382 109.204 28.9117 109.226 28.97 109.265C29.021 109.298 29.0832 109.367 29.1091 109.418C29.1435 109.487 29.1515 109.543 29.1389 109.642C29.1296 109.715 29.0832 110.007 28.9488 110.808L29.3899 111.267C29.6324 111.52 29.8516 111.758 29.8775 111.797C29.9059 111.841 29.9232 111.919 29.9225 112.001C29.9225 112.119 29.9119 112.143 29.8231 112.226C29.7324 112.312 29.6913 112.326 29.3138 112.406C29.0885 112.454 28.8083 112.512 28.6918 112.535C28.5493 112.563 28.4626 112.595 28.4261 112.633C28.397 112.665 28.2903 112.839 28.1897 113.021C28.0883 113.203 27.9592 113.43 27.9022 113.525C27.8452 113.619 27.7671 113.73 27.7286 113.77C27.6896 113.811 27.6167 113.851 27.5657 113.86C27.5147 113.868 27.4312 113.863 27.3802 113.848C27.3292 113.833 27.2563 113.78 27.2179 113.732C27.1802 113.684 27.0192 113.413 26.8602 113.13C26.6787 112.806 26.5522 112.608 26.5191 112.597C26.4899 112.586 26.2038 112.522 25.8832 112.451C25.5467 112.378 25.2698 112.304 25.2274 112.275C25.187 112.248 25.1367 112.19 25.1148 112.147C25.093 112.103 25.0751 112.025 25.0751 111.974C25.0751 111.923 25.0877 111.848 25.1029 111.809C25.1181 111.768 25.3387 111.527 26.0567 110.808L25.9633 110.272C25.9117 109.976 25.8699 109.675 25.8699 109.603C25.8699 109.53 25.8865 109.437 25.9064 109.397C25.9262 109.357 25.9739 109.303 26.0124 109.278C26.0548 109.249 26.1309 109.232 26.2078 109.232C26.3118 109.233 26.435 109.281 27.4994 109.783L28.0824 109.495C28.5268 109.273 28.6904 109.204 28.7713 109.204Z" fill="#E6E6E6"/>
<path d="M23.2422 149.231L23.2422 148.865H23.2422V149.231ZM30.7598 155.114H31.1258V155.114L30.7598 155.114ZM23.2422 157.729V158.096H23.2422L23.2422 157.729ZM18.9932 153.48H18.6271V153.481L18.9932 153.48ZM23.5608 157.715L23.5333 157.35L23.5608 157.715ZM27.1323 151.772L27.4675 151.625L27.1323 151.772ZM23.2422 149.231L23.2422 149.598C24.8306 149.598 26.1961 150.551 26.7972 151.919L27.1323 151.772L27.4675 151.625C26.7538 150.001 25.1316 148.865 23.2422 148.865L23.2422 149.231ZM28.1445 152.5V152.866C29.3866 152.866 30.3937 153.873 30.3937 155.114L30.7598 155.114L31.1258 155.114C31.1258 153.468 29.7906 152.134 28.1445 152.134V152.5ZM30.7598 155.114H30.3937C30.3937 156.356 29.3865 157.363 28.1445 157.363V157.729V158.096C29.7908 158.096 31.1258 156.761 31.1258 155.114H30.7598ZM28.1445 157.729V157.363H23.5754V157.729V158.096H28.1445V157.729ZM23.5608 157.715L23.5333 157.35C23.4317 157.358 23.336 157.363 23.2422 157.363L23.2422 157.729L23.2422 158.096C23.3628 158.096 23.4794 158.089 23.5882 158.08L23.5608 157.715ZM23.2422 157.729V157.363C21.0978 157.363 19.3594 155.625 19.3592 153.48L18.9932 153.48L18.6271 153.481C18.6273 156.029 20.6934 158.096 23.2422 158.096V157.729ZM18.9932 153.48H19.3592C19.3592 151.336 21.0977 149.598 23.2422 149.598V149.231V148.865C20.6933 148.865 18.6271 150.932 18.6271 153.48H18.9932ZM23.5754 157.729V157.363C23.7737 157.363 23.9344 157.524 23.9344 157.722H23.5684H23.2023C23.2023 157.929 23.3693 158.096 23.5754 158.096V157.729ZM23.5684 157.722H23.9344C23.9344 157.505 23.7496 157.334 23.5333 157.35L23.5608 157.715L23.5882 158.08C23.3801 158.096 23.2023 157.932 23.2023 157.722H23.5684ZM27.1323 151.772L26.7972 151.919C27.0209 152.428 27.5131 152.866 28.1445 152.866V152.5V152.134C27.8751 152.134 27.6061 151.94 27.4675 151.625L27.1323 151.772Z" fill="#E6E6E6"/>
<path d="M30.4556 153.503C30.7846 153.175 31.0396 152.779 31.2035 152.344C31.3674 151.908 31.4364 151.443 31.406 150.979C31.3755 150.514 31.2463 150.062 31.027 149.652C30.8077 149.241 30.5033 148.882 30.1342 148.599C29.7651 148.316 29.3398 148.115 28.8867 148.009C28.4336 147.904 27.9631 147.896 27.5068 147.987C27.0505 148.077 26.6188 148.265 26.2406 148.536C25.8625 148.807 25.5465 149.155 25.3139 149.558" stroke="#E6E6E6" stroke-width="0.732142"/>
<path d="M32.1369 192.5V196.664C32.1369 197.767 32.1369 198.318 31.7944 198.66C31.4518 199.003 30.9006 199.003 29.798 199.003H22.3825C22.334 199.003 22.3098 199.003 22.2893 199.002C21.3527 198.98 20.5986 198.226 20.5767 197.29C20.5762 197.269 20.5762 197.245 20.5762 197.196M20.5762 197.196V188.336C20.5762 187.233 20.5762 186.682 20.9187 186.34C21.2612 185.997 21.8125 185.997 22.915 185.997H29.798C30.9006 185.997 31.4518 185.997 31.7944 186.34C32.1369 186.682 32.1369 187.233 32.1369 188.336V193.051C32.1369 194.154 32.1369 194.705 31.7944 195.048C31.4518 195.39 30.9006 195.39 29.798 195.39H22.3825C22.334 195.39 22.3098 195.39 22.2893 195.391C21.3527 195.413 20.5986 196.167 20.5767 197.103C20.5762 197.124 20.5762 197.148 20.5762 197.196Z" stroke="#E6E6E6" stroke-width="0.584712"/>
<path d="M24.1885 191.054L25.2201 192.086C25.4485 192.314 25.8187 192.314 26.047 192.086L28.5237 189.609" stroke="#E6E6E6" stroke-width="0.584712" stroke-linecap="round"/>
<path d="M26.168 226.434H29.1289C30.1137 226.434 30.8118 226.435 31.3408 226.506C31.8582 226.575 32.1535 226.705 32.3682 226.92C32.5828 227.135 32.7127 227.43 32.7822 227.947C32.8533 228.476 32.8545 229.174 32.8545 230.159V234.141C32.8545 235.125 32.8533 235.824 32.7822 236.353C32.7127 236.869 32.5826 237.164 32.3682 237.379C32.1535 237.594 31.8582 237.723 31.3408 237.793C30.8118 237.864 30.1137 237.865 29.1289 237.865H26.168C25.1831 237.865 24.4851 237.864 23.9561 237.793C23.4386 237.723 23.1434 237.594 22.9287 237.379C22.7142 237.164 22.5842 236.87 22.5146 236.353C22.4435 235.824 22.4424 235.125 22.4424 234.141V230.159C22.4424 229.174 22.4435 228.476 22.5146 227.947C22.5842 227.43 22.714 227.135 22.9287 226.92C23.1434 226.705 23.4386 226.575 23.9561 226.506C24.4851 226.435 25.1832 226.434 26.168 226.434ZM29.1787 227.665C28.9553 227.665 28.7735 227.846 28.7734 228.069V230.109C28.7734 230.333 28.9552 230.515 29.1787 230.515C29.4021 230.515 29.583 230.333 29.583 230.109V228.069C29.583 227.846 29.4021 227.665 29.1787 227.665Z" stroke="#E6E6E6" stroke-width="0.809249" stroke-linecap="round"/>
<path d="M19.998 229.09H23.0582M19.998 232.15H23.0582M19.998 235.21H23.0582" stroke="#E6E6E6" stroke-width="0.809249" stroke-linecap="round"/>
<path d="M31.7747 273.583V271.823C31.7747 270.921 31.7747 270.471 31.5993 270.127C31.445 269.824 31.1988 269.578 30.896 269.423C30.5518 269.248 30.1012 269.248 29.2 269.248H27.8193C27.4162 269.248 27.2147 269.248 27.0318 269.192C26.8698 269.143 26.7192 269.063 26.5884 268.955C26.4407 268.834 26.329 268.666 26.1054 268.331L25.8832 267.997C25.6597 267.662 25.5479 267.494 25.4002 267.373C25.2695 267.265 25.1188 267.185 24.9569 267.136C24.7739 267.08 24.5724 267.08 24.1693 267.08H23.5112C22.61 267.08 22.1594 267.08 21.8152 267.255C21.5124 267.41 21.2662 267.656 21.1119 267.959C20.9365 268.303 20.9365 268.754 20.9365 269.655V270.693M31.7747 275.209C31.7747 275.56 31.7747 275.736 31.7474 275.882C31.6255 276.535 31.1141 277.047 30.4605 277.169C30.3143 277.196 30.1387 277.196 29.7877 277.196H23.5112C22.61 277.196 22.1594 277.196 21.8152 277.021C21.5124 276.866 21.2662 276.62 21.1119 276.317C20.9365 275.973 20.9365 275.522 20.9365 274.621V272.138" stroke="#E6E6E6" stroke-width="0.750957" stroke-linecap="round"/>
<circle cx="26.356" cy="309.61" r="2.51469" stroke="#E6E6E6" stroke-width="0.750957" stroke-linecap="round"/>
<path d="M21.0958 316.454C21.5892 314.178 23.7377 313.583 26.0672 313.583H26.644C28.9735 313.583 31.122 314.178 31.6154 316.454C31.7275 316.972 31.3455 317.918 30.8161 317.918H21.8951C21.3657 317.918 20.9837 316.972 21.0958 316.454Z" stroke="#E6E6E6" stroke-width="0.750957" stroke-linecap="round"/>
<g clip-path="url(#clip0_1087_3591)">
<path opacity="0.99" d="M30.115 351.212C30.0654 351.226 29.6882 351.383 29.2794 351.557L28.534 351.875C28.0258 351.661 27.6712 351.514 27.416 351.408C27.0727 351.265 26.9236 351.214 26.8401 351.208C26.7768 351.202 26.6865 351.21 26.6368 351.226C26.5871 351.239 26.508 351.283 26.4606 351.32C26.4019 351.367 26.3635 351.422 26.3409 351.488C26.3228 351.543 26.3093 351.618 26.3093 351.655C26.3093 351.692 26.3364 351.851 26.3657 352.008C26.3974 352.165 26.4583 352.469 26.5013 352.684L26.5803 353.077C25.6181 353.912 25.32 354.186 25.2997 354.224C25.2794 354.261 25.2568 354.345 25.2522 354.41C25.2455 354.479 25.2545 354.561 25.2726 354.606C25.2884 354.649 25.3449 354.722 25.3991 354.769C25.4646 354.826 25.5323 354.861 25.6159 354.88C25.6791 354.896 26.0789 354.971 26.5013 355.045C26.9688 355.128 27.276 355.192 27.2873 355.208C27.2963 355.222 27.4476 355.459 27.6238 355.733C27.7977 356.008 27.9942 356.308 28.0574 356.4C28.1478 356.529 28.1975 356.578 28.2833 356.626C28.3759 356.675 28.4188 356.684 28.5318 356.684C28.6289 356.682 28.6989 356.671 28.7666 356.639C28.8186 356.616 28.8864 356.567 28.9157 356.533C28.9451 356.498 29.0941 356.278 29.2455 356.047C29.3991 355.816 29.582 355.531 29.6543 355.416C29.7379 355.282 29.8056 355.196 29.8395 355.186C29.8666 355.175 30.246 355.104 30.6797 355.028C31.1156 354.949 31.5018 354.877 31.538 354.863C31.5741 354.849 31.6441 354.808 31.6916 354.771C31.739 354.733 31.7932 354.669 31.8135 354.626C31.8338 354.577 31.8451 354.502 31.8384 354.428C31.8338 354.335 31.818 354.29 31.7683 354.231C31.7345 354.188 31.486 353.957 31.215 353.714C30.944 353.471 30.6752 353.23 30.6165 353.175L30.5103 353.077C30.6006 352.622 30.6616 352.308 30.7045 352.086C30.752 351.849 30.7813 351.639 30.7768 351.575C30.7723 351.496 30.752 351.443 30.7091 351.385C30.6729 351.339 30.6029 351.281 30.551 351.253C30.4922 351.224 30.4041 351.2 30.3296 351.194C30.2551 351.188 30.1692 351.196 30.115 351.212Z" fill="#E6E6E6"/>
<path opacity="0.99" d="M26.4694 349.002C26.4503 349.008 26.4145 349.028 26.3906 349.046C26.3668 349.064 26.3477 349.105 26.3477 349.147C26.3477 349.189 26.3668 349.23 26.3906 349.25C26.4145 349.268 26.4599 349.288 26.4933 349.294C26.5267 349.3 26.7201 349.32 26.9231 349.336C27.1261 349.354 27.52 349.395 27.7946 349.427C28.0692 349.461 28.4895 349.518 28.7259 349.554C28.9622 349.592 29.3228 349.653 29.5257 349.693C29.7287 349.733 30.0367 349.796 30.2063 349.834C30.3758 349.874 30.6838 349.949 30.8868 350.005C31.0897 350.06 31.4025 350.152 31.5792 350.209C31.7559 350.267 32.0138 350.356 32.1523 350.408C32.2908 350.461 32.5439 350.567 32.7134 350.642C32.8829 350.717 33.1742 350.862 33.3581 350.964C33.5419 351.065 33.795 351.22 33.9192 351.305C34.0434 351.392 34.201 351.516 34.2678 351.581C34.3347 351.645 34.4278 351.744 34.4732 351.797C34.5209 351.853 34.5925 351.952 34.6331 352.022C34.6737 352.089 34.7239 352.204 34.7454 352.28C34.7716 352.371 34.7788 352.455 34.7692 352.548C34.7621 352.621 34.7286 352.737 34.7 352.806C34.669 352.874 34.6021 352.983 34.552 353.048C34.5042 353.114 34.3753 353.239 34.2678 353.326C34.1604 353.414 33.9717 353.543 33.8476 353.614C33.7234 353.684 33.5013 353.789 33.3581 353.844C33.2148 353.902 32.9665 353.985 32.8089 354.031C32.6513 354.075 32.4364 354.13 32.3314 354.152C32.2215 354.176 32.1165 354.212 32.0854 354.235C32.0544 354.261 32.0329 354.303 32.0329 354.335C32.0329 354.366 32.0591 354.41 32.0997 354.442C32.157 354.49 32.1761 354.494 32.2836 354.484C32.3505 354.476 32.5654 354.428 32.7611 354.374C32.9593 354.319 33.265 354.218 33.4417 354.148C33.6183 354.077 33.8547 353.969 33.967 353.91C34.0792 353.848 34.2511 353.743 34.349 353.674C34.4469 353.606 34.5997 353.481 34.6904 353.398C34.7931 353.3 34.891 353.183 34.9579 353.068C35.0176 352.969 35.082 352.832 35.1035 352.76C35.1322 352.665 35.1393 352.576 35.1322 352.413C35.1202 352.232 35.1059 352.169 35.0462 352.036C35.0056 351.948 34.9053 351.792 34.8218 351.688C34.7382 351.583 34.5615 351.404 34.4206 351.283C34.2821 351.166 34.0672 351.003 33.9431 350.924C33.8189 350.845 33.5873 350.71 33.4297 350.624C33.2721 350.537 32.9808 350.398 32.785 350.314C32.5868 350.231 32.2979 350.116 32.1403 350.06C31.9827 350.005 31.7416 349.921 31.6031 349.878C31.4646 349.834 31.1757 349.749 30.9584 349.689C30.7411 349.629 30.3615 349.538 30.1107 349.485C29.86 349.431 29.4756 349.356 29.2512 349.318C29.0267 349.28 28.6518 349.223 28.4154 349.189C28.1791 349.155 27.7755 349.107 27.52 349.08C27.2646 349.052 26.9804 349.026 26.8873 349.018C26.7942 349.012 26.6724 349.004 26.6127 348.998C26.553 348.994 26.4885 348.996 26.4694 349.002Z" fill="#E6E6E6"/>
<path opacity="0.99" d="M24.1257 349.008C24.0267 349.011 23.7651 349.024 23.5416 349.037C23.3181 349.049 22.9346 349.08 22.6908 349.104C22.447 349.129 22.0863 349.173 21.8908 349.204C21.6952 349.233 21.4032 349.284 21.2432 349.316C21.0832 349.349 20.8139 349.407 20.6463 349.449C20.4787 349.491 20.2222 349.56 20.0749 349.605C19.9276 349.651 19.6609 349.745 19.478 349.814C19.2952 349.883 19.0387 349.996 18.9066 350.065C18.7745 350.134 18.5917 350.237 18.5002 350.297C18.4088 350.354 18.2615 350.463 18.1726 350.537C18.0837 350.613 17.9618 350.733 17.9034 350.806C17.8425 350.879 17.7586 351.004 17.7155 351.084C17.6723 351.164 17.6215 351.289 17.5986 351.362C17.5783 351.436 17.5605 351.58 17.5605 351.685C17.5605 351.801 17.5783 351.934 17.6088 352.03C17.6342 352.116 17.6799 352.237 17.7104 352.297C17.7434 352.359 17.8323 352.492 17.911 352.597C17.9898 352.699 18.1472 352.868 18.259 352.973C18.3707 353.075 18.5663 353.231 18.6907 353.32C18.8152 353.409 19.0057 353.531 19.1098 353.594C19.2139 353.654 19.4095 353.761 19.5415 353.83C19.6736 353.898 19.9377 354.023 20.1257 354.108C20.3136 354.192 20.6057 354.31 20.7733 354.372C20.9409 354.437 21.1111 354.488 21.1492 354.488C21.1924 354.488 21.2457 354.466 21.2812 354.432C21.3193 354.399 21.3447 354.352 21.3447 354.317C21.3422 354.277 21.3168 354.234 21.2736 354.203C21.2355 354.174 21.0679 354.099 20.9003 354.034C20.7327 353.97 20.4482 353.852 20.2654 353.772C20.0825 353.692 19.8311 353.574 19.7066 353.509C19.5822 353.445 19.3485 353.309 19.1885 353.211C19.0285 353.111 18.7745 352.926 18.6247 352.797C18.4596 352.655 18.3021 352.495 18.2234 352.386C18.1498 352.288 18.0685 352.152 18.0406 352.085C18.0101 352.019 17.9771 351.903 17.9618 351.829C17.944 351.736 17.944 351.647 17.9644 351.529C17.9821 351.42 18.0253 351.304 18.0863 351.195C18.1498 351.084 18.2387 350.973 18.3631 350.862C18.4622 350.77 18.645 350.633 18.7695 350.555C18.8939 350.477 19.1504 350.346 19.3384 350.263C19.5263 350.179 19.8184 350.065 19.986 350.01C20.1536 349.954 20.4736 349.863 20.6971 349.805C20.9206 349.749 21.2965 349.667 21.5352 349.627C21.774 349.585 22.16 349.525 22.3987 349.493C22.6375 349.462 23.0235 349.422 23.2622 349.404C23.501 349.387 24.0013 349.364 24.3797 349.358C24.88 349.347 25.0832 349.336 25.1366 349.313C25.1747 349.295 25.2178 349.26 25.2331 349.233C25.2483 349.204 25.2534 349.155 25.2458 349.122C25.2356 349.082 25.2026 349.046 25.1543 349.026C25.0959 349 24.9918 348.993 24.6896 348.997C24.4788 349 24.2248 349.004 24.1257 349.008Z" fill="#E6E6E6"/>
<path opacity="0.99" d="M32.1277 344.637C32.0172 344.655 31.7964 344.71 31.6383 344.758C31.4802 344.806 31.2242 344.897 31.0737 344.959C30.9231 345.02 30.6395 345.15 30.4463 345.248C30.253 345.346 29.9544 345.511 29.7813 345.616C29.6081 345.718 29.3095 345.912 29.1162 346.042C28.923 346.173 28.6244 346.387 28.4512 346.517C28.2806 346.649 28.0196 346.855 27.874 346.971C27.7285 347.09 27.3972 347.377 27.1362 347.61C26.8777 347.845 26.5164 348.178 26.3357 348.354C26.155 348.53 25.9617 348.719 25.904 348.776C25.8463 348.833 25.6907 348.995 25.5577 349.137C25.4247 349.276 25.1537 349.575 24.9579 349.799C24.7622 350.02 24.4761 350.358 24.323 350.545C24.1674 350.734 23.8964 351.076 23.7207 351.309C23.5426 351.542 23.3016 351.866 23.1862 352.028C23.0683 352.19 22.87 352.473 22.7445 352.656C22.6216 352.838 22.3555 353.244 22.1573 353.557C21.959 353.872 21.6177 354.456 21.3994 354.858C21.1786 355.259 20.9176 355.768 20.8147 355.987C20.7118 356.206 20.5688 356.53 20.496 356.706C20.4232 356.882 20.3002 357.206 20.2199 357.425C20.1396 357.644 20.0267 357.993 19.9715 358.201C19.9163 358.408 19.8435 358.705 19.8134 358.863C19.7707 359.084 19.7582 359.239 19.7582 359.559C19.7557 359.885 19.7657 359.999 19.8008 360.118C19.8259 360.2 19.8862 360.337 19.9313 360.426C19.9865 360.531 20.0719 360.636 20.1748 360.729C20.2827 360.83 20.3881 360.898 20.5085 360.951C20.6064 360.992 20.7394 361.037 20.8097 361.051C20.8774 361.067 21.0431 361.078 21.1736 361.078C21.304 361.078 21.4747 361.067 21.55 361.053C21.6253 361.04 21.7959 360.998 21.9264 360.957C22.0569 360.919 22.333 360.807 22.5412 360.713C22.747 360.617 23.0657 360.453 23.2439 360.348C23.4221 360.243 23.7182 360.056 23.8964 359.935C24.0746 359.812 24.3456 359.618 24.4987 359.502C24.6518 359.387 24.9604 359.136 25.1888 358.945C25.4172 358.755 25.7535 358.452 25.9341 358.274C26.2478 357.97 26.2679 357.945 26.2679 357.859C26.2679 357.788 26.2528 357.754 26.1976 357.71C26.155 357.671 26.1023 357.651 26.0471 357.653C26.0044 357.653 25.9417 357.665 25.909 357.678C25.8789 357.694 25.638 357.897 25.377 358.13C25.116 358.365 24.7647 358.664 24.5991 358.796C24.4334 358.926 24.2126 359.098 24.1097 359.173C24.0068 359.248 23.8086 359.387 23.6705 359.483C23.5325 359.577 23.2615 359.75 23.0683 359.864C22.875 359.981 22.5588 360.145 22.3656 360.232C22.1723 360.318 21.9114 360.421 21.7884 360.462C21.6077 360.519 21.5098 360.538 21.299 360.547C21.1033 360.554 21.0004 360.549 20.8975 360.522C20.8222 360.501 20.7093 360.455 20.6466 360.419C20.5838 360.38 20.5035 360.312 20.4684 360.264C20.4307 360.213 20.3831 360.122 20.358 360.061C20.3354 359.997 20.3103 359.844 20.3027 359.718C20.2952 359.593 20.3027 359.371 20.3178 359.228C20.3354 359.084 20.373 358.863 20.4006 358.737C20.4257 358.612 20.4759 358.406 20.511 358.281C20.5462 358.155 20.6315 357.888 20.7018 357.687C20.7695 357.487 20.885 357.183 20.9527 357.014C21.023 356.845 21.151 356.549 21.2388 356.357C21.3266 356.168 21.5123 355.791 21.6529 355.524C21.7909 355.259 22.0293 354.83 22.1824 354.572C22.3355 354.315 22.5789 353.924 22.7244 353.705C22.87 353.486 23.1134 353.126 23.264 352.907C23.4171 352.688 23.6304 352.384 23.7408 352.233C23.8512 352.083 24.0495 351.82 24.18 351.652C24.313 351.483 24.5213 351.22 24.6467 351.07C24.7697 350.919 25.0433 350.6 25.2541 350.362C25.4623 350.125 25.8262 349.728 26.0571 349.484C26.2905 349.24 26.7196 348.82 27.0082 348.55C27.2968 348.281 27.7109 347.914 27.9242 347.731C28.1375 347.551 28.5039 347.256 28.7398 347.076C28.9757 346.898 29.3145 346.652 29.4927 346.529C29.6708 346.408 29.9594 346.22 30.1326 346.118C30.3057 346.013 30.5818 345.858 30.7474 345.773C30.9131 345.686 31.1665 345.568 31.3121 345.511C31.4576 345.451 31.6659 345.376 31.7763 345.344C31.8868 345.31 32.0674 345.267 32.1779 345.246C32.3184 345.221 32.4439 345.214 32.5919 345.223C32.745 345.232 32.8404 345.253 32.9307 345.294C32.9985 345.324 33.0989 345.392 33.149 345.442C33.2017 345.495 33.272 345.584 33.3046 345.643C33.3373 345.705 33.3774 345.81 33.3975 345.878C33.4176 345.953 33.4276 346.113 33.4276 346.278C33.4251 346.437 33.4 346.665 33.3699 346.825C33.3423 346.976 33.2896 347.197 33.257 347.316C33.2243 347.434 33.129 347.713 33.0462 347.932C32.9659 348.151 32.8303 348.475 32.7475 348.651C32.6647 348.826 32.5442 349.068 32.4815 349.187C32.4062 349.328 32.3661 349.433 32.3661 349.488C32.3661 349.552 32.3861 349.593 32.4338 349.641C32.474 349.678 32.5392 349.714 32.5794 349.723C32.6195 349.732 32.6898 349.735 32.73 349.726C32.7701 349.719 32.8354 349.684 32.873 349.65C32.9106 349.614 32.9884 349.493 33.0462 349.381C33.1039 349.269 33.2218 349.016 33.3122 348.822C33.4 348.628 33.5355 348.304 33.6108 348.103C33.6861 347.902 33.7865 347.599 33.8341 347.43C33.8818 347.261 33.937 347.04 33.9571 346.939C33.9772 346.839 34.0073 346.624 34.0224 346.46C34.0399 346.255 34.0424 346.102 34.0249 345.958C34.0098 345.846 33.9747 345.68 33.9446 345.593C33.917 345.506 33.8567 345.372 33.8141 345.296C33.7689 345.221 33.656 345.086 33.5581 344.997C33.4301 344.881 33.3297 344.812 33.1942 344.751C33.0913 344.705 32.9282 344.653 32.8303 344.634C32.7325 344.616 32.5819 344.603 32.4915 344.603C32.4012 344.603 32.2381 344.619 32.1277 344.637Z" fill="#E6E6E6"/>
</g>
<g filter="url(#filter1_d_1087_3591)">
<path d="M24.5786 384.523C25.2341 382.888 25.5619 382.071 26.1255 382.071C26.6891 382.071 27.0168 382.888 27.6723 384.523L27.7029 384.599C28.0732 385.522 28.2584 385.983 28.6357 386.264C29.0131 386.545 29.5085 386.589 30.4993 386.678L30.6784 386.694C32.2999 386.839 33.1106 386.912 33.2841 387.427C33.4576 387.943 32.8555 388.491 31.6513 389.587L31.2494 389.952C30.6398 390.507 30.335 390.784 30.1929 391.148C30.1665 391.215 30.1444 391.285 30.127 391.355C30.0336 391.734 30.1229 392.137 30.3014 392.941L30.3569 393.192C30.685 394.67 30.849 395.41 30.5626 395.728C30.4556 395.848 30.3165 395.933 30.162 395.976C29.7485 396.088 29.1614 395.61 27.9873 394.653C27.2163 394.025 26.8309 393.711 26.3883 393.64C26.2142 393.612 26.0368 393.612 25.8627 393.64C25.4201 393.711 25.0346 394.025 24.2636 394.653C23.0895 395.61 22.5025 396.088 22.089 395.976C21.9344 395.933 21.7953 395.848 21.6883 395.728C21.4019 395.41 21.566 394.67 21.894 393.192L21.9496 392.941C22.1281 392.137 22.2173 391.734 22.124 391.355C22.1065 391.285 22.0845 391.215 22.058 391.148C21.916 390.784 21.6112 390.507 21.0016 389.952L20.5997 389.587C19.3955 388.491 18.7934 387.943 18.9669 387.427C19.1403 386.912 19.9511 386.839 21.5726 386.694L21.7517 386.678C22.7425 386.589 23.2379 386.545 23.6152 386.264C23.9926 385.983 24.1778 385.522 24.5481 384.599L24.5786 384.523Z" stroke="#D1D1D1" stroke-width="0.833333"/>
</g>
<path d="M30.8271 430.745L27.8309 433.741C27.412 434.16 26.7327 434.16 26.3138 433.741L25.9536 433.381C25.5346 432.962 24.8553 432.962 24.4364 433.381L22.066 435.751" stroke="#E6E6E6" stroke-width="0.750957" stroke-linecap="round" stroke-linejoin="round"/>
<path d="M19.5625 428.867V436.699C19.5625 437.9 19.5625 438.501 19.7964 438.96C20.0021 439.364 20.3303 439.692 20.734 439.898C21.193 440.132 21.7938 440.132 22.9954 440.132H30.8269" stroke="#E6E6E6" stroke-width="0.750957" stroke-linecap="round"/>
<rect x="19.8535" y="470.165" width="13.0058" height="10.8382" rx="2.25323" stroke="#E6E6E6" stroke-width="0.5"/>
<path d="M19.8535 473.777L32.8593 473.777" stroke="#E6E6E6" stroke-width="0.5" stroke-linecap="round"/>
<path d="M24.1885 477.39H28.5237" stroke="#E6E6E6" stroke-width="0.5" stroke-linecap="round"/>
<path d="M23.4658 467.997L23.4658 470.887" stroke="#E6E6E6" stroke-width="0.5" stroke-linecap="round"/>
<path d="M29.2461 467.997L29.2461 470.887" stroke="#E6E6E6" stroke-width="0.5" stroke-linecap="round"/>
<path d="M23.1631 515.422L29.0861 515.422" stroke="#E6E6E6" stroke-width="0.57776" stroke-linecap="round"/>
<path d="M23.1631 517.961L26.5476 517.961" stroke="#E6E6E6" stroke-width="0.57776" stroke-linecap="round"/>
<path d="M20.625 510.854C20.625 509.787 20.625 509.254 20.8325 508.847C21.015 508.489 21.3063 508.198 21.6645 508.015C22.0717 507.808 22.6049 507.808 23.6711 507.808H26.1324C26.598 507.808 26.8309 507.808 27.05 507.86C27.2442 507.907 27.4299 507.984 27.6003 508.088C27.7924 508.206 27.957 508.371 28.2863 508.7L30.7326 511.146C31.0619 511.475 31.2265 511.64 31.3443 511.832C31.4486 512.002 31.5256 512.188 31.5722 512.382C31.6248 512.602 31.6248 512.834 31.6248 513.3V519.146C31.6248 520.212 31.6248 520.745 31.4173 521.152C31.2348 521.511 30.9435 521.802 30.5853 521.984C30.1781 522.192 29.6449 522.192 28.5787 522.192H23.6711C22.6049 522.192 22.0717 522.192 21.6645 521.984C21.3063 521.802 21.015 521.511 20.8325 521.152C20.625 520.745 20.625 520.212 20.625 519.146V510.854Z" stroke="#E6E6E6" stroke-width="0.57776"/>
<path d="M26.5479 507.808V509.838C26.5479 510.905 26.5479 511.438 26.7554 511.845C26.9379 512.203 27.2291 512.494 27.5874 512.677C27.9946 512.884 28.5277 512.884 29.594 512.884H31.6247" stroke="#E6E6E6" stroke-width="0.57776"/>
<path d="M26.1249 563.002V556.778M26.1249 563.002L21.5986 559.769C21.1477 559.447 20.9222 559.286 20.8004 559.05C20.6787 558.813 20.6787 558.536 20.6787 557.982V552.888M26.1249 563.002L30.6511 559.769C31.1021 559.447 31.3276 559.286 31.4493 559.05C31.5711 558.813 31.5711 558.536 31.5711 557.982V552.888M26.1249 556.778L20.6787 552.888M26.1249 556.778L31.5711 552.888M20.6787 552.888L24.848 549.91C25.4646 549.47 25.7729 549.249 26.1249 549.249C26.4769 549.249 26.7852 549.47 27.4017 549.91L31.5711 552.888" stroke="#E6E6E6" stroke-width="0.5" stroke-linejoin="round"/>
<g filter="url(#filter2_d_1087_3591)">
<path d="M4.625 593.25H47.625" stroke="url(#paint9_linear_1087_3591)" stroke-width="0.5" stroke-linecap="round" shape-rendering="crispEdges"/>
</g>
<path d="M23 611.375L26.125 614.5L29.25 611.375M23 607.625L26.125 604.5L29.25 607.625" stroke="#E6E6E6" stroke-width="0.449979" stroke-linecap="round" stroke-linejoin="round"/>
<rect x="13.9906" y="627.366" width="24.2687" height="24.2687" rx="12.1344" fill="#FFF8F8" fill-opacity="0.2"/>
<rect x="13.9906" y="627.366" width="24.2687" height="24.2687" rx="12.1344" stroke="url(#paint10_linear_1087_3591)" stroke-width="0.73125"/>
<defs>
<filter id="filter0_d_1087_3591" x="0" y="57.75" width="52.25" height="8.78516" filterUnits="userSpaceOnUse" color-interpolation-filters="sRGB">
<feFlood flood-opacity="0" result="BackgroundImageFix"/>
<feColorMatrix in="SourceAlpha" type="matrix" values="0 0 0 0 0 0 0 0 0 0 0 0 0 0 0 0 0 0 127 0" result="hardAlpha"/>
<feOffset dy="4"/>
<feGaussianBlur stdDeviation="2"/>
<feComposite in2="hardAlpha" operator="out"/>
<feColorMatrix type="matrix" values="0 0 0 0 0 0 0 0 0 0 0 0 0 0 0 0 0 0 0.25 0"/>
<feBlend mode="normal" in2="BackgroundImageFix" result="effect1_dropShadow_1087_3591"/>
<feBlend mode="normal" in="SourceGraphic" in2="effect1_dropShadow_1087_3591" result="shape"/>
</filter>
<filter id="filter1_d_1087_3591" x="12.7917" y="379" width="26.6667" height="26.6667" filterUnits="userSpaceOnUse" color-interpolation-filters="sRGB">
<feFlood flood-opacity="0" result="BackgroundImageFix"/>
<feColorMatrix in="SourceAlpha" type="matrix" values="0 0 0 0 0 0 0 0 0 0 0 0 0 0 0 0 0 0 127 0" result="hardAlpha"/>
<feOffset dy="3.33333"/>
<feGaussianBlur stdDeviation="1.66667"/>
<feComposite in2="hardAlpha" operator="out"/>
<feColorMatrix type="matrix" values="0 0 0 0 0 0 0 0 0 0 0 0 0 0 0 0 0 0 0.3 0"/>
<feBlend mode="normal" in2="BackgroundImageFix" result="effect1_dropShadow_1087_3591"/>
<feBlend mode="normal" in="SourceGraphic" in2="effect1_dropShadow_1087_3591" result="shape"/>
</filter>
<filter id="filter2_d_1087_3591" x="0.375" y="593" width="51.5" height="8.5" filterUnits="userSpaceOnUse" color-interpolation-filters="sRGB">
<feFlood flood-opacity="0" result="BackgroundImageFix"/>
<feColorMatrix in="SourceAlpha" type="matrix" values="0 0 0 0 0 0 0 0 0 0 0 0 0 0 0 0 0 0 127 0" result="hardAlpha"/>
<feOffset dy="4"/>
<feGaussianBlur stdDeviation="2"/>
<feComposite in2="hardAlpha" operator="out"/>
<feColorMatrix type="matrix" values="0 0 0 0 0 0 0 0 0 0 0 0 0 0 0 0 0 0 0.25 0"/>
<feBlend mode="normal" in2="BackgroundImageFix" result="effect1_dropShadow_1087_3591"/>
<feBlend mode="normal" in="SourceGraphic" in2="effect1_dropShadow_1087_3591" result="shape"/>
</filter>
<linearGradient id="paint0_linear_1087_3591" x1="31.3806" y1="36.2696" x2="20.7061" y2="32.7208" gradientUnits="userSpaceOnUse">
<stop stop-color="#D1D1D1" stop-opacity="0"/>
<stop offset="0.514423" stop-color="white"/>
<stop offset="1" stop-color="#D1D1D1" stop-opacity="0"/>
</linearGradient>
<linearGradient id="paint1_linear_1087_3591" x1="25.1303" y1="24.7311" x2="16.1199" y2="28.9971" gradientUnits="userSpaceOnUse">
<stop stop-color="#D1D1D1" stop-opacity="0.5"/>
<stop offset="0.514423" stop-color="white"/>
<stop offset="1" stop-color="#D1D1D1" stop-opacity="0.5"/>
</linearGradient>
<linearGradient id="paint2_linear_1087_3591" x1="32.3412" y1="24.2495" x2="22.8914" y2="29.2032" gradientUnits="userSpaceOnUse">
<stop stop-color="#D1D1D1" stop-opacity="0.5"/>
<stop offset="0.514423" stop-color="white"/>
<stop offset="1" stop-color="#D1D1D1" stop-opacity="0.5"/>
</linearGradient>
<linearGradient id="paint3_linear_1087_3591" x1="28.0149" y1="36.2689" x2="24.2098" y2="22.5099" gradientUnits="userSpaceOnUse">
<stop stop-color="#D1D1D1" stop-opacity="0.5"/>
<stop offset="0.514423" stop-color="white"/>
<stop offset="1" stop-color="#D1D1D1" stop-opacity="0.5"/>
</linearGradient>
<linearGradient id="paint4_linear_1087_3591" x1="31.3801" y1="30.0197" x2="19.5274" y2="25.2749" gradientUnits="userSpaceOnUse">
<stop stop-color="#D1D1D1" stop-opacity="0.5"/>
<stop offset="0.514423" stop-color="white"/>
<stop offset="1" stop-color="#D1D1D1" stop-opacity="0.5"/>
</linearGradient>
<linearGradient id="paint5_linear_1087_3591" x1="31.8615" y1="21.8459" x2="19.8441" y2="29.5412" gradientUnits="userSpaceOnUse">
<stop stop-color="#D1D1D1" stop-opacity="0.5"/>
<stop offset="0.514423" stop-color="white"/>
<stop offset="1" stop-color="#D1D1D1" stop-opacity="0.5"/>
</linearGradient>
<linearGradient id="paint6_linear_1087_3591" x1="33.303" y1="36.2689" x2="29.5087" y2="22.5116" gradientUnits="userSpaceOnUse">
<stop stop-color="#D1D1D1" stop-opacity="0.5"/>
<stop offset="0.514423" stop-color="white"/>
<stop offset="1" stop-color="#D1D1D1" stop-opacity="0.5"/>
</linearGradient>
<linearGradient id="paint7_linear_1087_3591" x1="30.9001" y1="28.5767" x2="18.8808" y2="35.7883" gradientUnits="userSpaceOnUse">
<stop stop-color="#D1D1D1" stop-opacity="0.5"/>
<stop offset="0.514423" stop-color="white"/>
<stop offset="1" stop-color="#D1D1D1" stop-opacity="0.5"/>
</linearGradient>
<linearGradient id="paint8_linear_1087_3591" x1="4.24675" y1="58.5" x2="47.9967" y2="58.7847" gradientUnits="userSpaceOnUse">
<stop stop-color="#CDCDCD" stop-opacity="0"/>
<stop offset="0.5" stop-color="#CDCDCD"/>
<stop offset="1" stop-color="#CDCDCD" stop-opacity="0"/>
</linearGradient>
<linearGradient id="paint9_linear_1087_3591" x1="4.625" y1="593.75" x2="47.625" y2="593.75" gradientUnits="userSpaceOnUse">
<stop stop-color="#CDCDCD" stop-opacity="0"/>
<stop offset="0.5" stop-color="#CDCDCD"/>
<stop offset="1" stop-color="#CDCDCD" stop-opacity="0"/>
</linearGradient>
<linearGradient id="paint10_linear_1087_3591" x1="26.4223" y1="618.176" x2="26.4223" y2="659.353" gradientUnits="userSpaceOnUse">
<stop stop-color="#00FF48"/>
<stop offset="1" stop-color="#00992B" stop-opacity="0"/>
</linearGradient>
<clipPath id="clip0_1087_3591">
<rect width="17.5742" height="16.4758" fill="white" transform="translate(17.3379 344.762)"/>
</clipPath>
</defs>
</svg>
