<svg width="25" height="27" viewBox="0 0 25 27" fill="none" xmlns="http://www.w3.org/2000/svg">
<g filter="url(#filter0_d_1094_3054)">
<path d="M9.78223 7.32129V6.95522H9.78221L9.78223 7.32129ZM19.3662 14.8213H19.7323V14.8213L19.3662 14.8213ZM9.78223 18.1553L9.78221 18.5213H9.78223V18.1553ZM4.36621 12.7383H4.00014V12.7383L4.36621 12.7383ZM10.1896 18.1374L10.1622 17.7724L10.1896 18.1374ZM9.78223 7.32129V7.68736C11.8486 7.68736 13.6251 8.92874 14.407 10.7079L14.7422 10.5606L15.0773 10.4133C14.1829 8.37808 12.1496 6.95522 9.78223 6.95522V7.32129ZM16.0322 11.4883V11.8544C17.6711 11.8544 19 13.1827 19.0001 14.8213L19.3662 14.8213L19.7323 14.8213C19.7322 12.7781 18.0752 11.1222 16.0322 11.1222V11.4883ZM19.3662 14.8213H19.0001C19.0001 16.4601 17.671 17.7892 16.0322 17.7892V18.1553V18.5213C18.0754 18.5213 19.7323 16.8644 19.7323 14.8213H19.3662ZM16.0322 18.1553V17.7892H10.2081V18.1553V18.5213H16.0322V18.1553ZM10.1896 18.1374L10.1622 17.7724C10.0317 17.7822 9.90604 17.7892 9.78223 17.7892V18.1553V18.5213C9.93242 18.5213 10.0787 18.5129 10.2171 18.5025L10.1896 18.1374ZM9.78223 18.1553L9.78225 17.7892C6.99312 17.7891 4.73235 15.5276 4.73228 12.7383L4.36621 12.7383L4.00014 12.7383C4.00022 15.9318 6.58861 18.5212 9.78221 18.5213L9.78223 18.1553ZM4.36621 12.7383H4.73228C4.73228 9.94894 6.99306 7.6875 9.78225 7.68736L9.78223 7.32129L9.78221 6.95522C6.58857 6.95538 4.00014 9.54473 4.00014 12.7383H4.36621ZM10.2081 18.1553V17.7892C10.4054 17.7892 10.5653 17.9491 10.5653 18.1463H10.1992H9.83315C9.83315 18.3535 10.001 18.5213 10.2081 18.5213V18.1553ZM10.1992 18.1463H10.5653C10.5653 17.928 10.3796 17.756 10.1622 17.7724L10.1896 18.1374L10.2171 18.5025C10.01 18.5181 9.83315 18.3543 9.83315 18.1463H10.1992ZM14.7422 10.5606L14.407 10.7079C14.6805 11.3302 15.2772 11.8544 16.0322 11.8544V11.4883V11.1222C15.6392 11.1222 15.2657 10.842 15.0773 10.4133L14.7422 10.5606Z" fill="#CDCDCD"/>
<path d="M18.5544 11.2799C18.9737 10.8605 19.2988 10.3565 19.5077 9.80137C19.7166 9.24628 19.8046 8.65298 19.7658 8.06115C19.727 7.46931 19.5623 6.89258 19.2827 6.36951C19.0032 5.84643 18.6151 5.38908 18.1446 5.02802C17.674 4.66696 17.1318 4.41052 16.5542 4.27584C15.9766 4.14116 15.3769 4.13134 14.7952 4.24705C14.2135 4.36276 13.6632 4.60133 13.1811 4.9468C12.699 5.29227 12.2962 5.73668 11.9996 6.25033" stroke="#CDCDCD" stroke-width="0.732142"/>
</g>
<defs>
<filter id="filter0_d_1094_3054" x="-1.72559" y="0" width="28" height="28" filterUnits="userSpaceOnUse" color-interpolation-filters="sRGB">
<feFlood flood-opacity="0" result="BackgroundImageFix"/>
<feColorMatrix in="SourceAlpha" type="matrix" values="0 0 0 0 0 0 0 0 0 0 0 0 0 0 0 0 0 0 127 0" result="hardAlpha"/>
<feOffset dy="4"/>
<feGaussianBlur stdDeviation="2"/>
<feComposite in2="hardAlpha" operator="out"/>
<feColorMatrix type="matrix" values="0 0 0 0 0 0 0 0 0 0 0 0 0 0 0 0 0 0 0.5 0"/>
<feBlend mode="normal" in2="BackgroundImageFix" result="effect1_dropShadow_1094_3054"/>
<feBlend mode="normal" in="SourceGraphic" in2="effect1_dropShadow_1094_3054" result="shape"/>
</filter>
</defs>
</svg>
