<svg width="28" height="28" viewBox="0 0 28 28" fill="none" xmlns="http://www.w3.org/2000/svg">
<g filter="url(#filter0_d_1087_3624)">
<path opacity="0.99" fill-rule="evenodd" clip-rule="evenodd" d="M15.3334 2.03895C19.8446 2.03589 20.0661 2.03819 20.3144 2.0932C20.4573 2.12453 20.6842 2.19253 20.8186 2.24372C20.9531 2.29568 21.1869 2.41946 21.3381 2.51879C21.494 2.62118 21.7125 2.8038 21.8431 2.9398C21.9692 3.07199 22.1372 3.28364 22.2152 3.40971C22.2939 3.53579 22.4023 3.74897 22.4558 3.88344C22.5093 4.01792 22.5788 4.25173 22.6101 4.40302C22.6636 4.66205 22.6667 4.89356 22.6667 8.40681C22.6659 11.9392 22.6628 12.1493 22.6086 12.3953C22.5773 12.5382 22.5093 12.7651 22.4581 12.8996C22.4062 13.0341 22.2824 13.2679 22.1831 13.4192C22.0815 13.5743 21.8974 13.7944 21.7621 13.9243C21.63 14.0511 21.4046 14.2268 21.2617 14.3147C21.1189 14.4026 20.892 14.5141 20.7575 14.5623C20.6231 14.6112 20.4305 14.6677 20.3297 14.6883C20.1968 14.7151 20.1173 14.7166 20.0394 14.6929C19.9806 14.6753 19.8942 14.6188 19.8484 14.5676C19.8018 14.5157 19.756 14.4224 19.746 14.359C19.7353 14.2964 19.7353 14.1993 19.746 14.1451C19.756 14.0901 19.811 13.9946 19.8675 13.9311C19.924 13.8685 20.0233 13.7944 20.089 13.7661C20.154 13.7386 20.3106 13.6775 20.4366 13.6301C20.5627 13.5827 20.7476 13.488 20.8469 13.4207C20.947 13.3527 21.1013 13.2144 21.1907 13.1136C21.2808 13.0127 21.4084 12.8202 21.4756 12.6857C21.5429 12.5512 21.6177 12.3449 21.643 12.2272C21.6819 12.0446 21.6888 11.4853 21.6888 8.39153C21.6888 5.32909 21.6819 4.73693 21.6437 4.55584C21.6193 4.43817 21.5413 4.22499 21.4711 4.08211C21.3725 3.88344 21.2877 3.7673 21.1112 3.5908C20.9348 3.4143 20.8186 3.32948 20.62 3.23092C20.4771 3.16062 20.264 3.08269 20.1463 3.05824C19.9638 3.02003 19.254 3.01315 15.3334 3.01315C11.4127 3.01315 10.7029 3.02003 10.5204 3.05824C10.4027 3.08269 10.1896 3.16062 10.0467 3.23092C9.84731 3.32948 9.73348 3.41277 9.557 3.5908C9.40726 3.74133 9.28885 3.8972 9.21627 4.03626C9.15515 4.15393 9.08028 4.32585 9.05049 4.4183C9.0016 4.5673 8.99396 4.75526 8.97868 6.08935C8.96187 7.56021 8.96034 7.59459 8.89693 7.67864C8.86103 7.72602 8.79533 7.79249 8.74949 7.82611C8.68913 7.87119 8.61885 7.88724 8.48821 7.88724C8.35375 7.88724 8.28805 7.87119 8.22311 7.82229C8.17575 7.78638 8.10928 7.72067 8.07567 7.67482C8.01684 7.59536 8.01455 7.53729 8.00615 6.15048C7.99927 4.92642 8.00538 4.66969 8.0474 4.44887C8.07414 4.30598 8.13679 4.07905 8.18492 3.94457C8.23381 3.81009 8.34535 3.58316 8.4332 3.44028C8.52106 3.29739 8.69677 3.07275 8.82359 2.94057C8.94965 2.80838 9.16356 2.62653 9.29802 2.53713C9.43247 2.44773 9.63874 2.33389 9.7564 2.28346C9.87405 2.23303 10.0803 2.16426 10.2148 2.12988C10.3492 2.09626 10.4936 2.06264 10.5356 2.05576C10.5777 2.04812 12.7366 2.04124 15.3334 2.03895ZM8.53405 9.38178C8.61808 9.38942 8.71969 9.42075 8.75942 9.45132C8.79914 9.48188 8.86103 9.54606 8.89693 9.59344C8.95958 9.67672 8.96263 9.71645 8.97868 10.9382C8.99396 12.0316 9.00312 12.2188 9.05049 12.3648C9.08105 12.4572 9.15515 12.6291 9.21627 12.7468C9.28885 12.8874 9.4065 13.0402 9.557 13.1907C9.73271 13.3665 9.84884 13.4521 10.0467 13.5499C10.1896 13.6209 10.4027 13.6989 10.5204 13.7241C10.693 13.7607 11.0215 13.7699 12.224 13.7699C13.3891 13.7707 13.7351 13.7798 13.8131 13.8112C13.8803 13.8387 14.1385 14.1099 14.6152 14.6524C15.0018 15.0925 15.3249 15.4532 15.3334 15.4532C15.3418 15.4532 15.6649 15.0925 16.0515 14.6524C16.5603 14.0725 16.7841 13.8394 16.8613 13.8081C16.9423 13.776 17.0882 13.7676 17.4625 13.7753C17.9102 13.7852 17.9652 13.7921 18.0431 13.8509C18.0905 13.8868 18.157 13.9525 18.1906 13.9984C18.2357 14.0587 18.2517 14.129 18.2517 14.2597C18.2517 14.3942 18.2357 14.4599 18.1868 14.5248C18.1509 14.5722 18.0852 14.6387 18.0393 14.6723C17.9706 14.7235 17.901 14.7349 17.2738 14.7495L16.4487 15.6862C15.8849 16.3273 15.5923 16.6367 15.5243 16.6643C15.4693 16.6864 15.3838 16.7048 15.3334 16.7048C15.2829 16.7048 15.1966 16.6864 15.1424 16.6643C15.0736 16.636 14.7894 16.3326 13.4082 14.7487L11.9337 14.7395C10.5486 14.7311 10.4455 14.7265 10.2301 14.6669C10.104 14.6318 9.89773 14.5592 9.77167 14.5057C9.64562 14.4522 9.43247 14.3353 9.29802 14.2459C9.16356 14.1565 8.95041 13.9747 8.82359 13.8425C8.69754 13.7103 8.52946 13.4994 8.45154 13.3734C8.37285 13.2473 8.26513 13.0341 8.21165 12.8996C8.15818 12.7651 8.08866 12.5382 8.05733 12.3953C8.00768 12.1669 8.0008 11.9919 8.00004 10.9512C7.99927 10.1833 8.01073 9.73708 8.03212 9.68283C8.04969 9.63622 8.08789 9.56516 8.11692 9.5239C8.14595 9.48264 8.217 9.43069 8.27506 9.40853C8.33542 9.38637 8.44772 9.37414 8.53405 9.38178ZM16.7849 5.91514C16.862 5.91438 16.9468 5.94036 17.0141 5.98467C17.0729 6.02288 17.1447 6.10234 17.1745 6.16118C17.2142 6.24064 17.2234 6.30559 17.2089 6.4202C17.1982 6.50425 17.1447 6.84121 16.9896 7.76499L17.4984 8.29449C17.778 8.58561 18.0309 8.86068 18.0607 8.90576C18.0936 8.95619 18.1134 9.04559 18.1127 9.14033C18.1127 9.27711 18.1004 9.30461 17.9981 9.40012C17.8934 9.49869 17.846 9.5155 17.4106 9.60719C17.1508 9.66297 16.8277 9.72944 16.6932 9.75619C16.529 9.78904 16.4289 9.82572 16.3869 9.87003C16.3532 9.90594 16.2302 10.1069 16.1141 10.317C15.9972 10.5271 15.8483 10.7885 15.7826 10.8977C15.7169 11.007 15.6267 11.1346 15.5824 11.1812C15.5373 11.2278 15.4533 11.2744 15.3945 11.2843C15.3356 11.2943 15.2394 11.2882 15.1806 11.2706C15.1217 11.253 15.0377 11.1927 14.9934 11.1369C14.9498 11.0811 14.7642 10.7686 14.5808 10.4423C14.3715 10.0687 14.2256 9.841 14.1874 9.82801C14.1538 9.81578 13.8238 9.7409 13.454 9.65991C13.0659 9.57586 12.7466 9.48952 12.6977 9.45666C12.6511 9.42534 12.593 9.35886 12.5678 9.30843C12.5426 9.258 12.522 9.16861 12.522 9.10977C12.522 9.05094 12.5365 8.9646 12.554 8.91875C12.5716 8.87214 12.826 8.59401 13.6542 7.76499L13.5464 7.14608C13.4868 6.8053 13.4387 6.4584 13.4387 6.37435C13.4387 6.29031 13.4578 6.18333 13.4807 6.13749C13.5037 6.09088 13.5587 6.02899 13.603 5.99995C13.6519 5.9671 13.7397 5.94647 13.8283 5.94723C13.9483 5.948 14.0904 6.00301 15.3181 6.58295L15.9904 6.24981C16.503 5.99461 16.6917 5.91514 16.7849 5.91514Z" fill="#CDCDCD"/>
</g>
<defs>
<filter id="filter0_d_1087_3624" x="0" y="0" width="28" height="28" filterUnits="userSpaceOnUse" color-interpolation-filters="sRGB">
<feFlood flood-opacity="0" result="BackgroundImageFix"/>
<feColorMatrix in="SourceAlpha" type="matrix" values="0 0 0 0 0 0 0 0 0 0 0 0 0 0 0 0 0 0 127 0" result="hardAlpha"/>
<feOffset dy="4"/>
<feGaussianBlur stdDeviation="2"/>
<feComposite in2="hardAlpha" operator="out"/>
<feColorMatrix type="matrix" values="0 0 0 0 0 0 0 0 0 0 0 0 0 0 0 0 0 0 0.5 0"/>
<feBlend mode="normal" in2="BackgroundImageFix" result="effect1_dropShadow_1087_3624"/>
<feBlend mode="normal" in="SourceGraphic" in2="effect1_dropShadow_1087_3624" result="shape"/>
</filter>
</defs>
</svg>
