<svg width="24" height="25" viewBox="0 0 24 25" fill="none" xmlns="http://www.w3.org/2000/svg">
<g filter="url(#filter0_d_1087_3629)">
<path d="M11.5205 2.94141H14.9365C16.0703 2.94141 16.8799 2.9427 17.4951 3.02539C18.0988 3.10655 18.4548 3.25946 18.7158 3.52051C18.9768 3.78154 19.1298 4.13766 19.2109 4.74121C19.2936 5.3564 19.2939 6.16609 19.2939 7.2998V11.8916C19.2939 13.0257 19.2937 13.8359 19.2109 14.4512C19.1298 15.0545 18.9766 15.4099 18.7158 15.6709C18.4548 15.9319 18.0988 16.0858 17.4951 16.167C16.8799 16.2497 16.0702 16.25 14.9365 16.25H11.5205C10.3868 16.25 9.5771 16.2497 8.96191 16.167C8.35828 16.0858 8.00226 15.9319 7.74121 15.6709C7.48033 15.4099 7.32723 15.0545 7.24609 14.4512C7.16337 13.8359 7.16211 13.0257 7.16211 11.8916V7.2998C7.16211 6.16607 7.16342 5.3564 7.24609 4.74121C7.32725 4.13757 7.48016 3.78156 7.74121 3.52051C8.00226 3.25946 8.35828 3.10655 8.96191 3.02539C9.57711 2.94272 10.3868 2.94141 11.5205 2.94141ZM14.9932 4.48535C14.7698 4.48535 14.5891 4.66637 14.5889 4.88965V7.24316C14.589 7.46655 14.7698 7.64746 14.9932 7.64746C15.2165 7.64743 15.3974 7.46653 15.3975 7.24316V4.88965C15.3972 4.66638 15.2165 4.48538 14.9932 4.48535Z" stroke="#CDCDCD" stroke-width="0.809249" stroke-linecap="round"/>
<path d="M4.4043 6.06641H7.93371M4.4043 9.59582H7.93371M4.4043 13.1252H7.93371" stroke="#CDCDCD" stroke-width="0.809249" stroke-linecap="round"/>
</g>
<defs>
<filter id="filter0_d_1087_3629" x="-2.2627" y="0" width="28" height="28" filterUnits="userSpaceOnUse" color-interpolation-filters="sRGB">
<feFlood flood-opacity="0" result="BackgroundImageFix"/>
<feColorMatrix in="SourceAlpha" type="matrix" values="0 0 0 0 0 0 0 0 0 0 0 0 0 0 0 0 0 0 127 0" result="hardAlpha"/>
<feOffset dy="4"/>
<feGaussianBlur stdDeviation="2"/>
<feComposite in2="hardAlpha" operator="out"/>
<feColorMatrix type="matrix" values="0 0 0 0 0 0 0 0 0 0 0 0 0 0 0 0 0 0 0.5 0"/>
<feBlend mode="normal" in2="BackgroundImageFix" result="effect1_dropShadow_1087_3629"/>
<feBlend mode="normal" in="SourceGraphic" in2="effect1_dropShadow_1087_3629" result="shape"/>
</filter>
</defs>
</svg>
