<svg width="24" height="26" viewBox="0 0 24 26" fill="none" xmlns="http://www.w3.org/2000/svg">
<g filter="url(#filter0_d_1094_3016)">
<path d="M10.0581 5.52254C10.7136 3.88837 11.0414 3.07129 11.605 3.07129C12.1686 3.07129 12.4963 3.88837 13.1518 5.52254L13.1824 5.59863C13.5527 6.52186 13.7379 6.98347 14.1152 7.26404C14.4926 7.54462 14.988 7.58898 15.9787 7.67771L16.1579 7.69375C17.7794 7.83897 18.5901 7.91158 18.7636 8.4274C18.9371 8.94322 18.335 9.49101 17.1308 10.5866L16.7289 10.9522C16.1193 11.5068 15.8145 11.7841 15.6724 12.1476C15.6459 12.2154 15.6239 12.2848 15.6065 12.3555C15.5131 12.7344 15.6024 13.1367 15.7809 13.9412L15.8364 14.1916C16.1645 15.6703 16.3285 16.4096 16.0421 16.7285C15.9351 16.8476 15.796 16.9334 15.6415 16.9756C15.228 17.0884 14.6409 16.61 13.4668 15.6533C12.6958 15.025 12.3103 14.7109 11.8678 14.6403C11.6937 14.6125 11.5163 14.6125 11.3422 14.6403C10.8996 14.7109 10.5141 15.025 9.74314 15.6533C8.56901 16.61 7.98195 17.0884 7.56845 16.9756C7.41393 16.9334 7.27484 16.8476 7.16782 16.7285C6.88142 16.4096 7.04545 15.6703 7.37351 14.1916L7.42908 13.9412C7.60759 13.1367 7.69684 12.7344 7.60346 12.3555C7.58604 12.2848 7.56401 12.2154 7.53751 12.1476C7.39545 11.7841 7.09065 11.5068 6.48107 10.9522L6.07917 10.5866C4.87496 9.49101 4.27286 8.94322 4.44634 8.4274C4.61982 7.91158 5.43058 7.83897 7.05209 7.69375L7.23121 7.67771C8.22197 7.58898 8.71735 7.54462 9.09473 7.26404C9.4721 6.98347 9.65727 6.52186 10.0276 5.59863L10.0581 5.52254Z" stroke="#CDCDCD" stroke-width="0.833333"/>
</g>
<defs>
<filter id="filter0_d_1094_3016" x="-2.39551" y="0" width="28" height="28" filterUnits="userSpaceOnUse" color-interpolation-filters="sRGB">
<feFlood flood-opacity="0" result="BackgroundImageFix"/>
<feColorMatrix in="SourceAlpha" type="matrix" values="0 0 0 0 0 0 0 0 0 0 0 0 0 0 0 0 0 0 127 0" result="hardAlpha"/>
<feOffset dy="4"/>
<feGaussianBlur stdDeviation="2"/>
<feComposite in2="hardAlpha" operator="out"/>
<feColorMatrix type="matrix" values="0 0 0 0 0 0 0 0 0 0 0 0 0 0 0 0 0 0 0.5 0"/>
<feBlend mode="normal" in2="BackgroundImageFix" result="effect1_dropShadow_1094_3016"/>
<feBlend mode="normal" in="SourceGraphic" in2="effect1_dropShadow_1094_3016" result="shape"/>
</filter>
</defs>
</svg>
