<svg version="1.2" xmlns="http://www.w3.org/2000/svg" viewBox="0 0 1596 1588" width="1596" height="1588"><style>.a{fill:#121212}</style><path class="a" d="m692 17.3c-14.3 9.6-38.2 30.7-53 47.1-18 19.7-32.5 40.9-43.5 63.6-9.1 18.7-19.1 45.7-22.2 60-4.4 20-6.2 75.2-7.7 238-1.1 116.6-2.8 217.8-3.8 225-1.1 8.4-5.4 15.1-11.8 19-7.9 4.7-11.9 5-19 1.4-5-2.5-38.7-28.9-75-58.6-36.3-29.7-69.2-56.4-73-59.4-6.1-4.7-11.7-3.3-42 10.2-19.3 8.6-56.2 25.7-82 38-25.9 12.3-46.6 24.1-46 26.3 0.5 2.1 48.7 43.5 107 92.1 58.3 48.5 115 92.5 126 97.9 11 5.4 29.9 12.5 42 16 12.1 3.4 34.6 6.2 50 6.2 17.2 0 38-3.1 54-8.2 14.3-4.5 35.7-14 47.5-21 11.9-7.1 31.7-24.9 44-39.5 14.5-17 26.7-37.1 34.3-56l11.8-29.4c0.3-161.2-0.1-315.6-0.6-447-0.8-188-2.1-239-6-239-2.8 0-16.7 7.8-31 17.3zm195.6 282.7c-42.7 50.5-86 104.1-96.4 119-10.3 14.8-22.4 38.2-27 52-4.5 13.7-9.3 35.3-10.6 48-1.6 15-0.2 32.4 4 50 3.5 14.8 11.3 37.3 17.3 50 6.8 14.4 21.3 33.5 39 51.1 21.6 21.7 34.1 30.6 54.1 38.6 14.3 5.8 36.8 12.6 50 15.3 17.8 3.5 108.3 4.4 348.7 3.4 178.5-0.8 326.1-2.8 328-4.6 1.8-1.7-1.2-11.4-6.7-21.4-5.5-10-20.8-30-34-44.4-13.2-14.5-33-32.8-44-40.7-11-8-29-19.3-40-25.2-11-5.9-34.4-14.8-52-19.7-30.9-8.7-39.6-9-258.4-11.2-193.4-1.9-227.4-3.1-233.2-8.2-3.7-3.3-6.7-10.5-6.5-16 0.1-6.9 20.2-34.1 64.1-87 52.7-63.4 63.3-78.2 60-84-2.1-3.9-15.3-31.3-29.2-61-14-29.7-29.7-63.5-35.1-75.1-5.3-11.6-10.8-21-12.1-21-1.4 0.1-37.4 41.5-80 92.1zm-885.3 567c-1.2 1.6 5.3 14.7 14.4 29 9.1 14.3 24.9 34.8 35 45.6 10 10.8 31.8 28.5 48.3 39.2 16.5 10.8 39.9 23.3 52 27.7 12.1 4.5 35 10.7 51 13.9 21.6 4.2 64.6 5.6 168 5.6 76.4 0 174.8 1.3 218.6 3 77 2.9 79.8 3.3 86 12.2 5 7.3 5.4 11.2 2 18-2.4 4.9-14.2 20.5-26.2 34.8-12.1 14.3-37.1 44.6-55.6 67.4-18.6 22.7-36.1 44.3-38.9 48-4.3 5.6-1.3 14.6 19.4 58.6 13.5 28.6 30.7 65 38.1 81 7.5 15.9 15.4 29 17.6 29 2.2 0 43.6-47.7 92-106 48.4-58.3 92.5-115 98-126 5.5-11 12.7-30.4 16-43 3.3-12.7 6-34.7 5.9-49 0-14.3-2-34.1-4.3-44-2.3-9.9-9-27.9-14.8-40-6.3-13.1-22-33.4-38.7-50-15.5-15.5-37.1-32.4-48.1-37.7-11-5.4-29-12.1-40-14.9-15.8-4.2-91.6-5.3-356.8-5.4-185.2 0-337.8 1.3-338.9 3zm1033.7-116.4c-7.7 1-23 4.6-34 8.1-11 3.6-32.2 14.3-47 23.9-16 10.3-34.3 26.8-45 40.4-9.9 12.6-22.9 34.7-28.9 49l-11 26c-2 671.3-1.7 690 4.9 690.1 3.8 0.1 17.1-6.7 29.4-15 12.3-8.3 27.6-19.6 34-25.1 6.4-5.5 19.9-19.9 30.1-32 10.2-12.1 24.1-32.8 31-46 6.8-13.2 16.3-35.7 21-50 7.8-23.9 8.7-38.7 11.6-186 1.8-88 3.4-192.9 3.6-233 0.2-60.8 1.3-74 6.6-79 3.4-3.3 11.1-5.9 17-5.8 7.7 0.1 27.1 13.7 68.7 48.2 31.9 26.5 65.2 54.3 74 61.8 8.8 7.5 18.2 13.6 21 13.7 2.7 0 17.1-5.5 32-12.4 14.8-6.9 51.3-24.2 81-38.4l54-25.8c-19.3-16.5-62.4-52.8-108.3-91.3-45.9-38.5-92.5-76.5-103.6-84.4-11.1-7.9-31.8-19-46.1-24.7-15.5-6.1-37.3-11-54-12.2-15.4-1-34.3-1-42-0.1z"/></svg>